/* XPM */
static char *_10a4a3cc0f04f28bb48604f2aa73a94PfsajvufcuozFGWD[] = {
/* columns rows colors chars-per-pixel */
"64 64 17 1 ",
"  c #730E0E",
". c #750E0E",
"X c #760E0E",
"o c #780E0E",
"O c #7A0F0F",
"+ c #7C0F0F",
"@ c #810F0F",
"# c #820F0F",
"$ c #821010",
"% c #841010",
"& c #891010",
"* c #881111",
"= c #8D1111",
"- c #8F1111",
"; c #901212",
": c #951212",
"> c #991212",
/* pixels */
"XXXXXXXXXXXXXXXXXXXXXXXXXXXXXXXXXXXXXXXXXXXXXXXXXXXXXXXXXXXXXXXX",
"XXXXXXXXXXXXXXXXXXXXXXXXXXXXXXXXXXXXXXXXXXXXXXXXXXXXXXXXXXXXXXXX",
"XXXXXXXXXXXXXXXXXXXXXXXXXXXXXXXXXXXXXXXXXXXXXXXXXXXXXXXXXXXXXXXX",
"XXXXXXXXXXXXXXXXXXXXXXXXXXXXXXXXXXXXXXXXXXXXXXXXXXXXXXXXXXXXXXXX",
"XXXXXXXXXXXXXXXXXXXXXXXXXXXXXXXXXXXXXXXXXXXXXXXXXXXXXXXXXXXXXXXX",
"XXXXXXXXXXXXXXXXXXXXXXXXXXXXXXXXXXXXXXXXXXXXXXXXXXXXXXXXXXXXXXXX",
"XXXXXXXXXXXXXXXXXXXXXXXXXXXXXXXXXXXXXXXXXXXXXXXXXXXXXXXXXXXXXXXX",
"XXXXXXXXXXXXXXXXXXXXXXXXXXXXXXXXXXXXXXXXXXXXXXXXXXXXXXXXXXXXXXXX",
"XXXXXXXXXXXXXXX XXX   X XXXXXXXX XXXXX X X  X  XXXXXXXXXXXXXXXXX",
"XXXXXXXXX+++++++@@$$$$$$oXXXXXX++++++@+$$$$$%$++++++++XXXXXXXXXX",
"XXXXXXXXX*==*===>>>>>>>>oXXXXXX*==*==*=>>>>:>:=****=**XXXXXXXXXX",
"XXXXXXXXo*******::::::>;XXXXXXo********:::>:>:*==*=***$XXXXXXXXX",
"XXXXXXXXo*=****=:::::>>:oXXXXXo***=****::::>::****=*=*%*+XXXXXXX",
"XXXXXXXXo****=**::>::::;oXXXXXX**=**=*=:>:::::=*******%**XXXXXXX",
"XXXXXXXXo*=****=:>:>:>>:XXXXXXo*=*****=::>:>::*****=****@+XXXXXX",
"XXXXXXXXX*******::::::::XXXXXXX***=****:::::>:*******=***@XXXXXX",
"XXXXXXXXX=;==;=;::::>:>:oXXXXXX*=**=**=:::::::;=;==;==***@XXXXXX",
"XXXXXXXXo:>::>:>:::>::::XXXXXXo*****=**::>:>::>:>::>>=****XXXXXX",
"XXXXXXXXo::>::::>:>:::>;oXXXXXX*=******:>:::>::>>:::>***=*XXXXXX",
"XXXXXXXXX:>::>:>::::>:>:XXXXXXX*=**=**=::::>:::::::>>=*=**XXXXXX",
"XXXXXXXXo:::>:>:>:>::>::oXXXXXo**=****=:>:>::>:>::>:>=***@XXXXXX",
"XXXXXXX X:>:::::::::::::XXXXXXX********::::::::::>::>=***oXXXXXX",
"XXXXXXXXo:>:::::::::::>:oXXXXXX*=*=**=*:::>::>>:::>::;***oXXXXXX",
"XXXXXXXXo:>>>>>>>>>>>>>:oXXXXXo%=*=***=:>>:>:>:>>::>>;=**XXXXXXX",
"XXXXXXX X**&*&&&&&&&&&&&XXXXXXX@$$$$$$$=;;:;;;;;;:;;:=***oXXXXXX",
"XXXXXXXXXXXXXXX XXXXXXXXXXXXXXXXXXXXX o%***************=*XXXXXXX",
"XXXXXXXXXXXXXXXXXXXXXXXXXXXXXXXXXXXXXXo*=****************XXXXXXX",
"XXXXXXXXXXXXXXXXXXXXXXXXXXXXXXXXXXXXXXX***=*=**==*=******XXXXXXX",
"XXXXXXXXXXXXXXXXXXXXXXXXXXXXXXXXXXXXXXo*****=**=**=******XXXXXXX",
"XXXXXXXXXXXXXXXXXXXXXXXXXXXXXXXXXXXXXXX*=**=**********oXXXXXXXXX",
"XXXXXXXXXXXXXXXXXXXXXXXXXXXXXXXXXXXXXXo*=*=**=**=*=***XXXXXXXXXX",
"XXXXXXXXXo++++++o+++++++XXXXXXXXXXXXXXX$$$$$$$$$$$$%$$XXXXXXXXXX",
"XXXXXXXX+*=*=**==**==***o oo oo XXXXXXXX XX XX XX XXXXXXXXXXXXXX",
"XXXXXXXXX****=***=***=**oo  o ooXXXXXXXXXXXXXXXXXXXXXXXXXXXXXXXX",
"XXXXXXXXX*=***********=*o  oo o XXXXXXXXXXXXXXXXXXXXXXXXXXXXXXXX",
"XXXXXXXXo**=***=***=**** ooo oo XXXXXXXXXXXXXXXXXXXXXXXXXXXXXXXX",
"XXXXXXXXo****=**=**==***oo oo ooXXXXXXXXXXXXXXXXXXXXXXXXXXXXXXXX",
"XXXXXXXXX*=*************o  o oo XXXXXXXXXXXXXXXXXXXXXXXXXXXXXXXX",
"XXXXXXXXo$*************% oo  o oXXXXXXXX X X   X   X  XXXXXXXXXX",
"XXXXXXXXo;;;=;==;==;==;*+++++++oXXXXXXX$@@@@@@@$@@@@@@XXXXXXXXXX",
"XXXXXXXXo;>>>:>:>:>:>>::****-**+XXXXXXX:>>:>>>:>>>>>>:XXXXXXXXXX",
"XXXXXXXXo::::::>:::>::::-**-**%oXXXXXXX:>::::>:>:::::=$oXXXXXXXX",
"XXXXXXXXo:>:>:>:>:>:>:>:***-***oXXXXXXX:>:>::::::::>:***XXXXXXXX",
"XXXXXXX o:::::::::::::::-******+XXXXXXo::>:::>:>>:::>***XXXXXXXX",
"XXXXXXXXo:::::>:>:>:::::*******  XXXXXo:>:>::::::::>>***XXXXXXXX",
"XXXXXXXX+;>>>>:>:::::>::-******oXXXXXXo:>::::>:>>:>:>***XXXXXXXX",
"XXXXXXX +-:;;;;;::>:>:>:****-**oXXXXXXX;:::::>;;=====***XXXXXXXX",
"XXXXXXXXo*******:>::::::-******o XXXX X:>::>::******=**%XXXXXXXX",
"XXXXXXXXX******=::::::::*******oXXXXXXo;>:::>:=*********+XXXXXXX",
"XXXXXXXXX*=**=**:>:>:>>:-*-****+XXXXXXo::>:>::**=**=**=%X XXXXXX",
"XXXXXXXXo****=*=::>:::::*******oXXXXXXX:>:::::=******=*$XXXXXXXX",
"XXXXXXXXX*=*****:::::>::*-*****oXXXXXXX:>::>::****=***%++ XXXXXX",
"XXXXXXXXo*=****=::::::::*******oXXXXXXX:::::::=*=**=**XXXXXXXXXX",
"XXXXXXXXo***=**=>>>>>>>:--**-**  XXXXXX:>>>>>:*=****=*XXXXXXXXXX",
"XXXXXXXXo$$$$$@%%*=%=*%=$$$$$+$oXXXXXX+%=%=*=********%XXXXXXXXXX",
"XXXXXXXXXX XXXXXo o oo  o o ooooXXXXXXX +XX*****=*XXXXXXXXXXXXXX",
"XXXXXXXXXXXXXXXXXXXXXXXXXXXXXXXXXXXXXXXXXXX+***=*$XXXXXXXXXXXXXX",
"XXXXXXXXXXXXXXXXXXXXXXXXXXXXXXXXXXXXXXXXXXXX***%*$XXXXXXXXXXXXXX",
"XXXXXXXXXXXXXXXXXXXXXXXXXXXXXXXXXXXXXXXXXXXXoX++$oXXXXXXXXXXXXXX",
"XXXXXXXXXXXXXXXXXXXXXXXXXXXXXXXXXXXXXXXXXXXXXXXXXXXXXXXXXXXXXXXX",
"XXXXXXXXXXXXXXXXXXXXXXXXXXXXXXXXXXXXXXXXXXXXXXXXXXXXXXXXXXXXXXXX",
"XXXXXXXXXXXXXXXXXXXXXXXXXXXXXXXXXXXXXXXXXXXXXXXXXXXXXXXXXXXXXXXX",
"XXXXXXXXXXXXXXXXXXXXXXXXXXXXXXXXXXXXXXXXXXXXXXXXXXXXXXXXXXXXXXXX",
"XXXXXXXXXXXXXXXXXXXXXXXXXXXXXXXXXXXXXXXXXXXXXXXXXXXXXXXXXXXXXXXX"
};
