/* XPM */
static char *_e9560da13ed4aa3a8bd6429400d6357CGFdOP3IJoVC5tWd[] = {
/* columns rows colors chars-per-pixel */
"64 64 230 2 ",
"   c #FB5A05",
".  c #F85805",
"X  c #F25605",
"o  c #EB5405",
"O  c #E85305",
"+  c #D04800",
"@  c #C94500",
"#  c #C84500",
"$  c #D14800",
"%  c #D34900",
"&  c #D54900",
"*  c #C44400",
"=  c #C34400",
"-  c #C24400",
";  c #BF4300",
":  c #C04300",
">  c #C14300",
",  c #C74600",
"<  c #C84600",
"1  c #CA4600",
"2  c #DD4C00",
"3  c #DE4D00",
"4  c #CB4700",
"5  c #C64500",
"6  c #D24800",
"7  c #D74A00",
"8  c #DA4B00",
"9  c #F35705",
"0  c #F65805",
"q  c #FD5A05",
"w  c #FF5B05",
"e  c #E85000",
"r  c #D44A00",
"t  c #F75805",
"y  c #EC5405",
"u  c #E35104",
"i  c #DF5004",
"p  c #0C0C0C",
"a  c #CD4700",
"s  c #CE4700",
"d  c #BE4200",
"f  c #BD4200",
"g  c #C54500",
"h  c #D64A00",
"j  c #BA4100",
"k  c #BB4100",
"l  c #BC4100",
"z  c #ED5505",
"x  c #F15605",
"c  c #FA5905",
"v  c #E55204",
"b  c #DA4E04",
"n  c #CC4904",
"m  c #C64704",
"M  c gray",
"N  c #B83F00",
"B  c #BA4000",
"V  c #AE3D00",
"C  c #AB3C00",
"Z  c #AA3B00",
"A  c #B33E00",
"S  c #B43F00",
"D  c #B53F00",
"F  c #C34300",
"G  c #C24300",
"H  c #C14200",
"J  c #C04200",
"K  c #A73A00",
"L  c #A83A00",
"P  c #A93B00",
"I  c #B64000",
"U  c #DD4F04",
"Y  c #E25104",
"T  c #F55705",
"R  c #E65205",
"E  c #DE4F04",
"W  c #D14B04",
"Q  c #C24504",
"!  c #BB4304",
"~  c #B03D00",
"^  c #A83B00",
"/  c #A43900",
"(  c #A53900",
")  c #AC3C00",
"_  c #AD3C00",
"`  c #B53E00",
"'  c #B43E00",
"]  c #9B3600",
"[  c #9C3600",
"{  c #9E3700",
"}  c #A13800",
"|  c #D64C04",
" . c #DC4F04",
".. c #CC4600",
"X. c #B63F00",
"o. c #9A3600",
"O. c #9D3700",
"+. c #C04404",
"@. c #BF4404",
"#. c #BD4304",
"$. c #B94204",
"%. c #A93A00",
"&. c #9F3700",
"*. c #A53A00",
"=. c #D94B00",
"-. c #E64F00",
";. c #BD4100",
":. c #131313",
">. c #E24E00",
",. c #D24900",
"<. c #C64400",
"1. c #E04D00",
"2. c #D14900",
"3. c #DF4D00",
"4. c #D04900",
"5. c #AF3C00",
"6. c #D34A00",
"7. c #1B1F20",
"8. c #CF4800",
"9. c #893000",
"0. c #B13E00",
"q. c #B94000",
"w. c #B94100",
"e. c #BC4200",
"r. c #CC4700",
"t. c #B74000",
"y. c #CE4800",
"u. c black",
"i. c #A03800",
"p. c #A23900",
"a. c #AE3C00",
"s. c #90121C",
"d. c #A33800",
"f. c #AF3D00",
"g. c #943300",
"h. c #953300",
"j. c #B84000",
"k. c #C94600",
"l. c #B23E00",
"z. c #C74500",
"x. c #CD4800",
"c. c #973500",
"v. c #E44F00",
"b. c #983500",
"n. c #E54F00",
"m. c #953400",
"M. c #9F3800",
"N. c #B73F00",
"B. c #CB4600",
"V. c #EA5305",
"C. c #F45705",
"Z. c #B23D00",
"A. c #EF5505",
"S. c #D54C04",
"D. c #CD4904",
"F. c #C74704",
"G. c #1A1E1F",
"H. c gray7",
"J. c #C54604",
"K. c #191D1E",
"L. c #111111",
"P. c #C34604",
"I. c #171B1C",
"U. c gray6",
"Y. c gray73",
"T. c #C14504",
"R. c #161A1B",
"E. c #0E0E0E",
"W. c #B9B9B9",
"Q. c #15191A",
"!. c gray5",
"~. c gray72",
"^. c #0B0B0B",
"/. c #131718",
"(. c #B6B6B6",
"). c gray4",
"_. c #121617",
"`. c gray71",
"'. c #090909",
"]. c #111516",
"[. c #B4B4B4",
"{. c gray3",
"}. c #101415",
"|. c gray70",
" X c #AC3B00",
".X c #070707",
"XX c #0F1314",
"oX c #B2B2B2",
"OX c #060606",
"+X c #0E1213",
"@X c #B1B1B1",
"#X c #C54400",
"$X c #040404",
"%X c #0C1011",
"&X c #AFAFAF",
"*X c gray1",
"=X c #0B0F10",
"-X c #AEAEAE",
";X c #A33900",
":X c #0A0E0F",
">X c gray68",
",X c #E14D00",
"<X c #DB4C00",
"1X c #080C0D",
"2X c gray67",
"3X c #070B0C",
"4X c #AAAAAA",
"5X c #FC5A05",
"6X c #D44900",
"7X c #060A0B",
"8X c #E34E00",
"9X c #05090A",
"0X c #E75000",
"qX c #CF4700",
"wX c #040809",
"eX c #030708",
"rX c #AB3B00",
"tX c #A63A00",
"yX c #B03E00",
"uX c #BA4204",
"iX c #BC4304",
"pX c #9C3700",
"aX c #C44604",
"sX c #C84704",
"dX c #E05004",
"fX c #933300",
"gX c #AA3C00",
"hX c #993500",
"jX c #B33F00",
"kX c #D84A00",
/* pixels */
"  . X o O + @ # @ $ % & * = = - - ; ; : > , < 1 2 2 3 3 2 2 > > > - - - = 4 1 4 1 < 5 % 6 $ 6 7 8 9 0 q w w w e e e e e e e r r ",
"t 9 y u i p p p p p a s d f f f p p p p p - = g 7 7 7 h h & j j j k k l f * * 5 g = p p p p p p & z x c q w w e e e e e e e r r ",
"y v b n m p M M M p N B V C C Z p M M M M A S D F F F G H J K K K L P Z C A A I D S p M M M M p * U Y x T c w e e e e e e e r r ",
"R E W Q ! p M M M p ~ A ^ / ( / p M M M M ) _ V B B N ` ' A ] ] ] [ { { } ^ Z V V _ p M M M M p d |  .z X t w e e e e e e e r r ",
"..* X.L L p M M M p o.O.} O.O.O.p M M M M ` ` ` +.@.#.$.$.$.L L L L L L %.O.&.*.*.*.p M M M M p ^ l G % =.3 -.r r r r r r r r r ",
";.p M M M M M M M p o.o.p M M M M p p p p L L L :.:.:.:.:.:.:.:.:.:.:.:.:.:.:.p o.o.p p p p p M M M M 1 + 7 >.,.r r r r r r r r ",
"N p M M M M M M M p o.o.p M M M M p L L L L L L :.:.:.:.:.:.:.:.:.:.:.:.:.:.:.p o.o.o.o.o.o.p M M M M <.s & 1.2.r r r r r r r r ",
"A p M M M M M M M p o.o.p M M M M p L L L L L L :.:.:.:.:.:.:.:.:.:.:.:.:.:.:.p o.o.o.o.o.o.p M M M M * ..% 3.4.r r r r r r r r ",
"5.p M M M M M M M p o.o.p M M M M p L L L L L L :.:.:.:.:.:.:.:.:.:.:.:.:.:.:.p o.o.o.o.o.o.p M M M M F 1 $ 3 4.6.r r r r r r r ",
"L p M M M M M M M p o.o.p M M M M p L L p :.:.:.7.7.7.7.7.7.7.7.:.:.:.:.:.:.:.:.:.:.:.p o.o.p M M M M G 1 $ 3 8.6.r r r r r r r ",
"o.p M M M M M M M p 9.9.p M M M M p o.o.p :.:.:.7.7.7.7.7.7.7.7.:.:.:.:.:.:.:.:.:.:.:.p o.o.p M M M M 0.q.; 4 w.e.f f f f f r r ",
"o.p M M M M M M M p 9.9.p M M M M p o.o.p :.:.:.7.7.7.7.7.7.7.7.:.:.:.:.:.:.:.:.:.:.:.p o.o.p M M M M A j > r.w.f f f f f f r r ",
"o.p M M M M M M M p 9.9.p M M M M p p p p :.:.:.7.7.7.7.7.7.7.7.:.:.:.:.:.:.:.:.:.:.:.p p p p M M M M t.d * y.l f f f f f f r r ",
"o.p M M M M M M M p 9.9.p p p p p M M M M :.:.:.7.7.7.7.7.7.7.7.u.u.u.u.:.:.:.:.:.:.:.M M M M p p p p f = < 2.f f f f f f f r r ",
"o.p M M M M M M M p 9.9.o.o.o.o.p M M M M :.:.:.7.7.7.7.7.7.7.7.u.u.u.u.:.:.:.:.:.:.:.M M M M p ] / C ; 5 4 ,.f f f f f f f r r ",
"o.p M M M M M M M p 9.9.o.o.o.o.p M M M M :.:.:.7.7.7.7.7.7.7.7.u.u.u.u.:.:.:.:.:.:.:.M M M M p i.Z A * 1 y.r f f f f f f f r r ",
"o.p M M M M M M M p o.o.Z %.L L p M M M M :.:.:.7.7.7.7.7.7.7.7.u.u.u.u.:.:.:.:.:.:.:.M M M M p p.) D g 1 y.r r r r r r r r e e ",
"o.p M M M M M M M p o.o.a.a.a.L p p p p p :.:.:.s.s.s.s.u.u.u.u.u.u.u.u.s.s.s.:.:.:.:.p p p p p d.f.q.5 4 y.,.r r r r r r r e e ",
"o.p M M M M M M M p o.o.5.5.5.L L L o.o.p :.:.:.s.s.s.s.u.u.u.u.u.u.u.u.s.s.s.:.:.:.:.p g.h.h.g.d.f.j.g k.r.4.2.6.r r r r r e e ",
"o.p M M M M M M M p o.o._ _ _ L L L o.o.p :.:.:.s.s.s.s.u.u.u.u.u.u.u.u.s.s.s.:.:.:.:.p g.g.g.g.O.P l.f : - z.< k.4 r.x.4.2.e e ",
"o.p M M M M M M M p o.o.%.%.L L p p p p p :.:.:.s.s.s.s.u.u.u.u.u.u.u.u.s.s.s.:.:.:.:.p p p p p c.p.C I w.e.; > - * 5 , 4 r.v.e ",
"o.p M M M M M M M p o.o.L L L L p u.u.u.u.:.:.:.:.:.:.:.u.u.u.u.u.u.u.u.:.:.:.:.:.:.:.u.u.u.u.p h.b.} ) f.l.I j.w.e.d : * , 1.n.",
"o.p M M M M M M M p L L $.$.$.$.p u.u.u.u.:.:.:.:.:.:.:.u.u.u.u.u.u.u.u.:.:.:.:.:.:.:.u.u.u.u.p m.o.o.o.o.] M.~ A N.B d <.B.V.C.",
"o.p M M M M M M M p L L $.$.$.$.p u.u.u.u.:.:.:.:.:.:.:.u.u.u.u.u.u.u.u.:.:.:.:.:.:.:.u.u.u.u.p b.o.o.o.o.o.o.L L Z a.Z.l G u A.",
"o.p M M M M M M M p L L p p p p p u.u.u.u.:.:.:.:.:.:.:.u.u.u.u.u.u.u.u.:.:.:.:.:.:.:.u.u.u.u.p p p p p p p p p p p p p p p p V.",
"o.p u.u.u.u.u.u.u.p L L p u.u.u.u.:.:.:.:.u.u.u.:.:.:.:.u.u.u.u.u.u.u.u.:.:.:.u.u.u.u.u.u.u.u.u.u.u.u.u.u.u.u.u.u.u.u.u.u.u.p b ",
"o.p u.u.u.u.u.u.u.p L L p u.u.u.u.:.:.:.:.u.u.u.:.:.:.:.u.u.u.u.u.u.u.u.:.:.:.u.u.u.u.u.u.u.u.u.u.u.u.u.u.u.u.u.u.u.u.u.u.u.p S.",
"o.p u.u.u.u.u.u.u.p L L p u.u.u.u.:.:.:.:.u.u.u.:.:.:.:.u.u.u.u.u.u.u.u.:.:.:.u.u.u.u.u.u.u.u.u.u.u.u.u.u.u.u.u.u.u.u.u.u.u.p W ",
"o.p u.u.u.u.u.u.u.p p p p u.u.u.u.:.:.:.:.u.u.u.:.:.:.:.u.u.u.u.u.u.u.u.:.:.:.u.u.u.u.u.u.u.u.u.u.u.u.u.u.u.u.u.u.u.u.u.u.u.p D.",
"9.p 7.7.7.7.u.u.u.:.:.:.:.u.u.u.u.7.7.7.7.:.:.:.u.u.u.u.:.:.:.:.:.:.:.:.u.u.u.:.:.:.:.u.u.u.u.7.7.7.7.7.7.7.7.7.7.7.u.u.u.u.p F.",
"9.p G.G.G.G.u.u.u.H.H.H.H.u.u.u.u.G.G.G.G.H.H.H.u.u.u.u.H.H.H.H.H.H.H.H.u.u.u.H.H.H.H.u.u.u.u.G.G.G.G.G.G.G.G.G.G.G.u.u.u.u.p J.",
"9.p K.K.K.K.u.u.u.L.L.L.L.u.u.u.u.K.K.K.K.L.L.L.u.u.u.u.L.L.L.L.L.L.L.L.u.u.u.L.L.L.L.u.u.u.u.K.K.K.K.K.K.K.K.K.K.K.u.u.u.u.p P.",
"9.p I.I.I.I.u.u.u.U.U.U.U.u.u.u.u.U.U.U.U.I.I.I.I.I.I.I.u.u.u.u.u.u.u.u.I.I.I.I.I.I.I.u.u.u.u.I.I.I.I.I.I.I.Y.Y.Y.Y.u.u.u.u.p T.",
"9.p R.R.R.R.u.u.u.E.E.E.E.u.u.u.u.E.E.E.E.R.R.R.R.R.R.R.u.u.u.u.u.u.u.u.R.R.R.R.R.R.R.u.u.u.u.R.R.R.R.R.R.R.W.W.W.W.u.u.u.u.p +.",
"9.p R.R.R.R.u.u.u.E.E.E.E.u.u.u.u.E.E.E.E.R.R.R.R.R.R.R.u.u.u.u.u.u.u.u.R.R.R.R.R.R.R.u.u.u.u.R.R.R.R.R.R.R.W.W.W.W.u.u.u.u.p +.",
"o.p Q.Q.Q.Q.u.u.u.!.!.!.!.u.u.u.u.!.!.!.!.Q.Q.Q.Q.Q.Q.Q.u.u.u.u.u.u.u.u.Q.Q.Q.Q.Q.Q.Q.u.u.u.u.Q.Q.Q.Q.Q.Q.Q.~.~.~.~.u.u.u.u.p 5.",
"o.p u.u.u.u.u.u.u.p p p p p p p p u.u.u.u.u.u.u.u.u.u.u.^.^.^.^.^.^.^.^.u.u.u.u.u.u.u.u.u.u.u././././.(.(.(.(.(.(.(.u.u.u.u.p 5.",
"o.p u.u.u.u.u.u.u.p o.o.L L L L p u.u.u.u.u.u.u.u.u.u.u.).).).).).).).).u.u.u.u.u.u.u.u.u.u.u._._._._.`.`.`.`.`.`.`.u.u.u.u.p 5.",
"] p u.u.u.u.u.u.u.p o.o.L L L L p u.u.u.u.u.u.u.u.u.u.u.'.'.'.'.'.'.'.'.u.u.u.u.u.u.u.u.u.u.u.].].].].[.[.[.[.[.[.[.u.u.u.u.p 5.",
"} p u.u.u.u.u.u.u.p o.o.L L L L p u.u.u.u.u.u.u.u.u.u.u.{.{.{.{.{.{.{.{.u.u.u.u.u.u.u.u.u.u.u.}.}.}.}.|.|.|.|.|.|.|.u.u.u.u.p 5.",
"K p u.u.u.u.p p p p { } A ~  XL p p p p p u.u.u..X.X.X.X.X.X.X.X.X.X.X.X.X.X.Xu.u.u.u.u.u.u.u.XXXXXXXXXXXXXXoXoXoXoXu.u.u.u.p 5.",
"k p u.u.u.u.o.o.o./ K Z C ^ / o.o.o.9.9.p u.u.u.OXOXOXOXOXOXOXOXOXOXOXOXOXOXOXu.u.u.u.u.u.u.u.+X+X+X+X+X+X+X@X@X@X@Xu.u.u.u.p M.",
"#Xp u.u.u.u.p.*.Z A D I S f.P o.o.o.9.9.p u.u.u.$X$X$X$X$X$X$X$X$X$X$X$X$X$X$Xu.u.u.u.u.u.u.u.%X%X%X%X%X%X%X&X&X&X&Xu.u.u.u.p M.",
"B.p u.u.u.u.C f.0.q.j j I f.P o.p p p p p u.u.u.*X*X*X*X*X*X*X*X*X*X*X*X*X*X*Xu.u.u.u.u.u.u.u.=X=X=X=X=X=X=X-X-X-X-Xu.u.u.u.p M.",
"& p p p p p t.w.k d d f S C ;Xo.p u.u.u.u.=X=X=Xu.u.u.u.u.u.u.u.u.u.u.u.u.u.u.=X=X=X=Xu.u.u.u.=X=X=X=X=X=X=X-X-X-X-Xu.u.u.u.p M.",
"8 7 s 1 @ j.d : > - : d A ^ &.o.p u.u.u.u.:X:X:Xu.u.u.u.u.u.u.u.u.u.u.u.u.u.u.:X:X:X:Xu.u.u.u.:X:X:X:X:X:X:X>X>X>X>Xu.u.u.u.p M.",
">.,X<X=.=.5 k.k.< * > k _ O.o.o.p u.u.u.u.1X1X1Xu.u.u.u.u.u.u.u.u.u.u.u.u.u.u.1X1X1X1Xu.u.u.u.1X1X1X1X1X1X1X2X2X2X2Xu.u.u.u.p M.",
"q   t T C.3 1.3.2 7 $ 1 p p p p p u.u.u.u.3X3X3Xu.u.u.u.u.u.u.u.u.u.u.u.u.u.u.3X3X3X3Xu.u.u.u.3X3X3X3X3X3X3X4X4X4X4Xu.u.u.u.p i.",
"w w 5X  c >.>.,X2 6Xa F p u.u.u.u.7X7X7X7Xu.u.u.u.u.u.u.7X7X7X7X7X7X7X7Xu.u.u.u.u.u.u.7X7X7X7Xu.u.u.u.7X7X7X7X7X7X7Xu.u.u.u.p } ",
"w w w w w e -.8X3.$ # ;.p u.u.u.u.9X9X9X9Xu.u.u.u.u.u.u.9X9X9X9X9X9X9X9Xu.u.u.u.u.u.u.9X9X9X9Xu.u.u.u.9X9X9X9X9X9X9Xu.u.u.u.p / ",
"w w w w w e 0X8X3 qX#XB p u.u.u.u.wXwXwXwXu.u.u.u.u.u.u.wXwXwXwXwXwXwXwXu.u.u.u.u.u.u.wXwXwXwXu.u.u.u.wXwXwXwXwXwXwXu.u.u.u.p *.",
"w w w w w e 0X>.2 a F X.p u.u.u.u.eXeXeXeXu.u.u.u.u.u.u.eXeXeXeXeXeXeXeXu.u.u.u.u.u.u.eXeXeXeXu.u.u.u.eXeXeXeXeXeXeXu.u.u.u.p K ",
"w w w w w e -.>.8 # l 5.p u.u.u.u.u.u.u.u.u.u.u.p L L p u.u.u.u.u.u.u.u.g.o.o.u.u.u.u.u.u.u.u.u.u.u.u.u.u.u.u.u.u.u.u.u.u.u.p V ",
"w w w w w e n.1.=.* q.rXp u.u.u.u.u.u.u.u.u.u.u.p L L p u.u.u.u.u.u.u.u.g.o.o.u.u.u.u.u.u.u.u.u.u.u.u.u.u.u.u.u.u.u.u.u.u.u.p 0.",
"e e e e e r 2.4 * 0.tXo.p u.u.u.u.u.u.u.u.u.u.u.p $.$.p u.u.u.u.u.u.u.u.L o.o.u.u.u.u.u.u.u.u.u.u.u.u.u.u.u.u.u.u.u.u.u.u.u.p D ",
"e e e e e r 8.1 - f./ o.p u.u.u.u.u.u.u.u.u.u.u.p $.$.p u.u.u.u.u.u.u.u.L o.o.u.u.u.u.u.u.u.u.u.u.u.u.u.u.u.u.u.u.u.u.u.u.u.p w.",
"e e e e e r r.z.; Z { o.p u.u.u.u.u.u.u.u.u.u.u.p $.$.$.$.$.%.%.%.L L L L o.o.u.u.u.u.u.u.u.u.u.u.u.u.L L L L o.o.o.o.{ Z yXe.z.",
"e e e e e r r.g d K ] o.p u.u.u.u.u.u.u.u.u.u.u.p $.$.uXiXT.` X.X.A ~ rXL o.o.u.u.u.u.u.u.u.u.u.u.u.u.L L L L o.o.pX;XP A q.- 4 ",
"e e e e e 6.1 = e.( o.o.p u.u.u.u.u.u.u.u.u.u.u.p $.$.aXsXD.H G G d B X.Z o.o.u.u.u.u.u.u.u.u.u.u.u.u.L L L L o.o.tX) l.k ; , 8.",
"e e e e e 2.5 d I u.u.u.u.u.u.u.u.u.u.u.u.u.u.u.p $.T.S.b dX% 6X6X+ ..<.B i.o.u.u.u.u.u.u.u.u.u.u.u.u.u.u.u.p { tXS w.; z.4 4.r ",
"r r r r r w.~ Z p.u.u.u.u.u.u.u.u.u.u.u.u.u.u.u.p  XN.# s % z., , g > e.f.N. Xu.u.u.u.u.u.u.u.u.u.u.u.u.u.u.p fXo.tXC f.X.q.6.r ",
"r r r r r w.yXgX;Xu.u.u.u.u.u.u.u.u.u.u.u.u.u.u.p A ;.s % =.r.x.x.1 5 > D ;.A u.u.u.u.u.u.u.u.u.u.u.u.u.u.u.p hXM.C ~ jXw.l r r ",
"r r r r r k l._ K u.u.u.u.u.u.u.u.u.u.u.u.u.u.u.p H @ kX2 >.6.r r 2.y.1 ; @ H u.u.u.u.u.u.u.u.u.u.u.u.u.u.u.p p.^ A I j f f r r ",
"r r r r r f t.jXf.p p p p p p p p p p p p p p p p s 6X3.>.-.r r r r ,.8.z.6Xs p p p p p p p p p p p p p p p p ) yXj.k f f f r r "
};
