/* XPM */
static char *f0f9cdb141db4c05d9c20280d7eefbc9bc8C7Fo4Nk4YOVqd[] = {
/* columns rows colors chars-per-pixel */
"64 64 226 2 ",
"   c #FF5B05",
".  c #E85000",
"X  c #D14900",
"o  c #CC4700",
"O  c #CA4600",
"+  c #C64500",
"@  c #C44400",
"#  c #C04300",
"$  c #BF4300",
"%  c #C14300",
"&  c #C74600",
"*  c #C84600",
"=  c #DD4C00",
"-  c #DE4D00",
";  c #C24400",
":  c #C34400",
">  c #CB4700",
",  c #D34900",
"<  c #D24800",
"1  c #D14800",
"2  c #D44900",
"3  c #D54900",
"4  c #EB5405",
"5  c #EA5305",
"6  c #E85305",
"7  c #DE4F04",
"8  c #C94500",
"9  c #C84500",
"0  c #D04800",
"q  c #D94B00",
"w  c #DC4C00",
"e  c #CE4800",
"r  c #D34A00",
"t  c #E64F00",
"y  c #CD4800",
"u  c #C54500",
"i  c #0C0C0C",
"p  c #D74A00",
"a  c #D64A00",
"s  c #BA4100",
"d  c #BB4100",
"f  c #BC4100",
"g  c #BD4200",
"h  c #CE4700",
"j  c #E35104",
"k  c #E45104",
"l  c #E25104",
"z  c #E15004",
"x  c #CB4600",
"c  c #E75000",
"v  c #E34E00",
"b  c #DF4D00",
"n  c #BC4200",
"m  c #B84000",
"M  c #B03E00",
"N  c gray",
"B  c #B33E00",
"V  c #B43F00",
"C  c #B53F00",
"Z  c #C34300",
"A  c #C24300",
"S  c #C14200",
"D  c #C04200",
"F  c #A73A00",
"G  c #A83A00",
"H  c #A93B00",
"J  c #AA3B00",
"K  c #AB3C00",
"L  c #B64000",
"P  c #CE4904",
"I  c #D04A04",
"U  c #CD4904",
"Y  c #CA4804",
"T  c #B43E00",
"R  c #C64400",
"E  c #BE4200",
"W  c #C94600",
"Q  c #E54F00",
"!  c #E14D00",
"~  c #B74000",
"^  c #B23E00",
"/  c #AC3C00",
"(  c #AD3C00",
")  c #AE3D00",
"_  c #BA4000",
"`  c #B83F00",
"'  c #B53E00",
"]  c #9B3600",
"[  c #9C3600",
"{  c #9E3700",
"}  c #A13800",
"|  c #A83B00",
" . c #C64704",
".. c #C54604",
"X. c #C84704",
"o. c #C14504",
"O. c #B73F00",
"+. c #B94000",
"@. c #D44A00",
"#. c #CF4800",
"$. c #B13E00",
"%. c #A53900",
"&. c #C04404",
"*. c #BF4404",
"=. c #BD4304",
"-. c #B94204",
";. c #A93A00",
":. c #9D3700",
">. c #9F3700",
",. c #A53A00",
"<. c #AC3B00",
"1. c #AF3C00",
"2. c #9A3600",
"3. c #A63A00",
"4. c #D24900",
"5. c #131313",
"6. c #D04900",
"7. c #C74500",
"8. c #1B1F20",
"9. c #B94100",
"0. c #AA3C00",
"q. c #A43900",
"w. c #A23900",
"e. c #B33F00",
"r. c #AF3D00",
"t. c #A03800",
"y. c black",
"u. c #9F3800",
"i. c #983500",
"p. c #BD4100",
"a. c #993600",
"s. c #90121C",
"d. c #973400",
"f. c #943300",
"g. c #953300",
"h. c #953400",
"j. c #B03D00",
"k. c #A33900",
"l. c #AE3C00",
"z. c #893000",
"x. c #1A1E1F",
"c. c gray7",
"v. c #191D1E",
"b. c #111111",
"n. c gray73",
"m. c #171B1C",
"M. c gray6",
"N. c #B9B9B9",
"B. c #161A1B",
"V. c #0E0E0E",
"C. c gray72",
"Z. c #15191A",
"A. c gray5",
"S. c #B6B6B6",
"D. c #131718",
"F. c #0B0B0B",
"G. c #B23D00",
"H. c gray71",
"J. c #121617",
"K. c gray4",
"L. c #B4B4B4",
"P. c #111516",
"I. c #090909",
"U. c #B63F00",
"Y. c gray70",
"T. c #101415",
"R. c gray3",
"E. c #B2B2B2",
"W. c #0F1314",
"Q. c #070707",
"!. c #B1B1B1",
"~. c #0E1213",
"^. c #060606",
"/. c #AFAFAF",
"(. c #0C1011",
"). c #040404",
"_. c #BF4200",
"`. c #AEAEAE",
"'. c #0B0F10",
"]. c gray1",
"[. c #CC4600",
"{. c #C54400",
"}. c gray68",
"|. c #0A0E0F",
" X c #CF4700",
".X c gray67",
"XX c #080C0D",
"oX c #CD4700",
"OX c #AAAAAA",
"+X c #070B0C",
"@X c #D54C04",
"#X c #E65205",
"$X c #F05605",
"%X c #E04D00",
"&X c #060A0B",
"*X c #CC4904",
"=X c #D74D04",
"-X c #EF5505",
";X c #E24E00",
":X c #E44F00",
">X c #05090A",
",X c #C34604",
"<X c #DC4F04",
"1X c #EE5505",
"2X c #040809",
"3X c #BE4404",
"4X c #D94D04",
"5X c #ED5505",
"6X c #BB4304",
"7X c #030708",
"8X c #D64C04",
"9X c #CF4A04",
"0X c #E75205",
"qX c #DA4B00",
"wX c #C94804",
"eX c #BC4304",
"rX c #CB4804",
"tX c #E55204",
"yX c #BA4204",
"uX c #AB3B00",
"iX c #C44604",
"pX c #DA4E04",
"aX c #E05004",
"sX c #933300",
"dX c #993500",
"fX c #D84A00",
/* pixels */
"          . . . . . . . X o O + @ # $ # % & * O = = - - = = % % % ; ; ; : > O > O * + , < 1 1 2 3 4 4 4 5 6 7 8 9 O 0 , q w e r ",
"          . . . . . . t y * u # i i i i i ; : u p p p a a 3 s s s d d f g @ @ + u : i i i i i i h j j k l z i i i i i x < p O X ",
"          . . . . c v b @ n m M i N N N N B V C Z Z Z A S D F F F G H J K B B L C V i N N N N i d P P I U Y N N N N i T D R E W ",
"          . . . . Q ! w # ~ ^ J i N N N N / ( ) _ _ ` ' T B ] ] ] [ { { } | J ) ) ( i N N N N i B  ...X...o.N N N N i J O.E +.u ",
". . . . . @.@.@.@.#.> + n $./ %.i N N N N ' ' ' &.*.=.-.-.-.G G G G G G ;.:.>.,.,.,.i N N N N i :.<.<.1.<.G N N N N i 2.>.3.V % ",
". . . . . @.@.@.4.W @ E i N N N N i i i i G G G 5.5.5.5.5.5.5.5.5.5.5.5.5.5.5.i 2.2.i i i i i N N N N G G G N N N N N N N N i C ",
". . . . . @.@.@.X & ; n i N N N N i G G G G G G 5.5.5.5.5.5.5.5.5.5.5.5.5.5.5.i 2.2.2.2.2.2.i N N N N G G G N N N N N N N N i ^ ",
". . . . . @.@.@.6.7.% s i N N N N i G G G G G G 5.5.5.5.5.5.5.5.5.5.5.5.5.5.5.i 2.2.2.2.2.2.i N N N N G G G N N N N N N N N i ) ",
". . . . . @.@.r 6.+ $ +.i N N N N i G G G G G G 5.5.5.5.5.5.5.5.5.5.5.5.5.5.5.i 2.2.2.2.2.2.i N N N N G G G N N N N N N N N i J ",
". . . . . @.@.r #.u $ +.i N N N N i G G i 5.5.5.5.5.5.5.5.5.5.5.8.8.8.8.8.8.8.5.5.5.5.i 2.2.i N N N N G G G N N N N N N N N i ,.",
"@.@.@.@.@.g g n 9.M 0.q.i N N N N i 2.2.i 5.5.5.5.5.5.5.5.5.5.5.8.8.8.8.8.8.8.5.5.5.5.i 2.2.i N N N N 2.2.2.N N N N N N N N i q.",
"@.@.@.@.@.g g g 9.$./ 3.i N N N N i 2.2.i 5.5.5.5.5.5.5.5.5.5.5.8.8.8.8.8.8.8.5.5.5.5.i 2.2.i N N N N 2.2.2.N N N N N N N N i w.",
"@.@.@.@.@.g g g f e.r.J i N N N N i i i i 5.5.5.5.5.5.5.5.5.5.5.8.8.8.8.8.8.8.5.5.5.5.i i i i N N N N 2.2.2.N N N N N N N N i t.",
"@.@.@.@.@.g g g g ~ B ) i i i i i N N N N 5.5.5.5.5.5.5.y.y.y.y.8.8.8.8.8.8.8.5.5.5.5.N N N N i i i i 2.2.2.N N N N N N N N i u.",
"@.@.@.@.@.g g g g +.C M +.K q.2.i N N N N 5.5.5.5.5.5.5.y.y.y.y.8.8.8.8.8.8.8.5.5.5.5.N N N N i 2.2.2.2.2.2.N N N N N N N N i u.",
"@.@.@.@.@.g g g g d m V E B J 2.i N N N N 5.5.5.5.5.5.5.y.y.y.y.8.8.8.8.8.8.8.5.5.5.5.N N N N i i.2.2.2.2.2.N N N N N N N N i u.",
"@.@.@.@.@.@.@.@.@.X e O 1 R p.;.i N N N N 5.5.5.5.5.5.5.y.y.y.y.8.8.8.8.8.8.8.5.5.5.5.N N N N i i.a.] 2.2.2.N N N N N N N N i 1.",
"@.@.@.@.@.@.@.@.@.X e > , O A 1.i i i i i 5.5.5.s.s.s.s.y.y.y.y.y.y.y.y.s.s.s.5.5.5.5.i i i i i d.:.>.2.2.2.N N N N N N N N i 1.",
"@.@.@.@.@.@.@.r X e o W < 8 A 1.G G 2.2.i 5.5.5.s.s.s.s.y.y.y.y.y.y.y.y.s.s.s.5.5.5.5.i f.g.g.f.i.{ u.2.2.2.N N N N N N N N i 1.",
"@.@.X e y o O W * u ; # 8 Z d G G G 2.2.i 5.5.5.s.s.s.s.y.y.y.y.y.y.y.y.s.s.s.5.5.5.5.i f.f.f.f.h.[ { 2.2.2.N N N N N N N N i 1.",
"r X o W & + : ; % E n 9.A d T G i i i i i 5.5.5.s.s.s.s.y.y.y.y.y.y.y.y.s.s.s.5.5.5.5.i i i i i f.i.] 2.2.2.N N N N N N N N i 1.",
"#.o & ; # E d 9.m V ^ r.O.j.G G i y.y.y.y.5.5.5.5.5.5.5.y.y.y.y.y.y.y.y.5.5.5.5.5.5.5.y.y.y.y.i g.i.2.2.2.2.N N N N N N N N i 1.",
"7.; 9.$.) _ ' B j.<.J G -.-.-.-.i y.y.y.y.5.5.5.5.5.5.5.y.y.y.y.y.y.y.y.5.5.5.5.5.5.5.y.y.y.y.i h.2.2.2.2.2.N N N N N N N N i &.",
"; g $.F k.l.G G G G G G -.-.-.-.i y.y.y.y.5.5.5.5.5.5.5.y.y.y.y.y.y.y.y.5.5.5.5.5.5.5.y.y.y.y.i i.2.2.2.2.2.N N N N N N N N i &.",
"g i i i i i i i i i i i i i i i i y.y.y.y.5.5.5.5.5.5.5.y.y.y.y.y.y.y.y.5.5.5.5.5.5.5.y.y.y.y.i i i i 2.2.2.N N N N N N N N i &.",
"/ i y.y.y.y.y.y.y.y.y.y.y.y.y.y.y.y.y.y.y.y.y.y.5.5.5.5.y.y.y.y.y.y.y.y.5.5.5.y.y.y.y.5.5.5.5.y.y.y.y.2.2.2.y.y.y.y.y.y.y.y.i &.",
"F i y.y.y.y.y.y.y.y.y.y.y.y.y.y.y.y.y.y.y.y.y.y.5.5.5.5.y.y.y.y.y.y.y.y.5.5.5.y.y.y.y.5.5.5.5.y.y.y.y.2.2.2.y.y.y.y.y.y.y.y.i &.",
"k.i y.y.y.y.y.y.y.y.y.y.y.y.y.y.y.y.y.y.y.y.y.y.5.5.5.5.y.y.y.y.y.y.y.y.5.5.5.y.y.y.y.5.5.5.5.y.y.y.y.2.2.2.y.y.y.y.y.y.y.y.i &.",
">.i y.y.y.y.y.y.y.y.y.y.y.y.y.y.y.y.y.y.y.y.y.y.5.5.5.5.y.y.y.y.y.y.y.y.5.5.5.y.y.y.y.5.5.5.5.y.y.y.y.i i i y.y.y.y.y.y.y.y.i &.",
"z.i y.y.y.y.8.8.8.8.8.8.8.8.8.8.8.y.y.y.y.5.5.5.y.y.y.y.5.5.5.5.5.5.5.5.y.y.y.5.5.5.5.8.8.8.8.y.y.y.y.5.5.5.y.y.y.y.8.8.8.8.i &.",
"z.i y.y.y.y.x.x.x.x.x.x.x.x.x.x.x.y.y.y.y.c.c.c.y.y.y.y.c.c.c.c.c.c.c.c.y.y.y.c.c.c.c.x.x.x.x.y.y.y.y.c.c.c.y.y.y.y.x.x.x.x.i &.",
"z.i y.y.y.y.v.v.v.v.v.v.v.v.v.v.v.y.y.y.y.b.b.b.y.y.y.y.b.b.b.b.b.b.b.b.y.y.y.b.b.b.b.v.v.v.v.y.y.y.y.b.b.b.y.y.y.y.v.v.v.v.i &.",
"z.i y.y.y.y.n.n.n.m.m.m.m.m.m.m.m.y.y.y.y.m.m.m.m.m.m.m.y.y.y.y.y.y.y.y.m.m.m.m.m.m.m.M.M.M.M.y.y.y.y.M.M.M.y.y.y.y.m.m.m.m.i &.",
"z.i y.y.y.y.N.N.N.B.B.B.B.B.B.B.B.y.y.y.y.B.B.B.B.B.B.B.y.y.y.y.y.y.y.y.B.B.B.B.B.B.B.V.V.V.V.y.y.y.y.V.V.V.y.y.y.y.B.B.B.B.i &.",
"z.i y.y.y.y.N.N.N.B.B.B.B.B.B.B.B.y.y.y.y.B.B.B.B.B.B.B.y.y.y.y.y.y.y.y.B.B.B.B.B.B.B.V.V.V.V.y.y.y.y.V.V.V.y.y.y.y.B.B.B.B.i o.",
"2.i y.y.y.y.C.C.C.Z.Z.Z.Z.Z.Z.Z.Z.y.y.y.y.Z.Z.Z.Z.Z.Z.Z.y.y.y.y.y.y.y.y.Z.Z.Z.Z.Z.Z.Z.A.A.A.A.y.y.y.y.A.A.A.y.y.y.y.Z.Z.Z.Z.i j.",
"2.i y.y.y.y.S.S.S.S.S.S.S.D.D.D.D.y.y.y.y.y.y.y.y.y.y.y.F.F.F.F.F.F.F.F.y.y.y.y.y.y.y.y.y.y.y.i i i i i i i y.y.y.y.y.y.y.y.i G.",
"2.i y.y.y.y.H.H.H.H.H.H.H.J.J.J.J.y.y.y.y.y.y.y.y.y.y.y.K.K.K.K.K.K.K.K.y.y.y.y.y.y.y.y.y.y.y.i G 2.2.2.2.2.y.y.y.y.y.y.y.y.i T ",
"2.i y.y.y.y.L.L.L.L.L.L.L.P.P.P.P.y.y.y.y.y.y.y.y.y.y.y.I.I.I.I.I.I.I.I.y.y.y.y.y.y.y.y.y.y.y.i G 2.2.2.2.2.y.y.y.y.y.y.y.y.i U.",
"2.i y.y.y.y.Y.Y.Y.Y.Y.Y.Y.T.T.T.T.y.y.y.y.y.y.y.y.y.y.y.R.R.R.R.R.R.R.R.y.y.y.y.y.y.y.y.y.y.y.i G 2.2.2.2.2.y.y.y.y.y.y.y.y.i d ",
"2.i y.y.y.y.E.E.E.W.W.W.W.W.W.W.W.y.y.y.y.y.y.y.Q.Q.Q.Q.Q.Q.Q.Q.Q.Q.Q.Q.Q.Q.Q.y.y.y.y.i i i i i G :.} q.} { i i i i y.y.y.y.i D ",
"G i y.y.y.y.!.!.!.~.~.~.~.~.~.~.~.y.y.y.y.y.y.y.^.^.^.^.^.^.^.^.^.^.^.^.^.^.^.y.y.y.y.i 2.2.2.2.:.B ` d _ O.J 2.2.i y.y.y.y.i V ",
"G i y.y.y.y./././.(.(.(.(.(.(.(.(.y.y.y.y.y.y.y.).).).).).).).).).).).).).).).y.y.y.y.i 2.2.2.2.} +._.7.7.R p.J ,.i y.y.y.y.i d ",
"G i y.y.y.y.`.`.`.'.'.'.'.'.'.'.'.y.y.y.y.y.y.y.].].].].].].].].].].].].].].].y.y.y.y.i i i i i t.+._.O [.[.{.$.r.i y.y.y.y.i $ ",
"G i y.y.y.y.`.`.`.'.'.'.'.'.'.'.'.y.y.y.y.'.'.'.y.y.y.y.y.y.y.y.y.y.y.y.y.y.y.'.'.'.'.y.y.y.y.i 2.G.d x h 0 h d 9.i i i i i i 7.",
"G i y.y.y.y.}.}.}.|.|.|.|.|.|.|.|.y.y.y.y.|.|.|.y.y.y.y.y.y.y.y.y.y.y.y.y.y.y.|.|.|.|.y.y.y.y.i 2.l.` x  X< , % # g m m 9.n @ > ",
"G i y.y.y.y..X.X.XXXXXXXXXXXXXXXXXy.y.y.y.XXXXXXy.y.y.y.y.y.y.y.y.y.y.y.y.y.y.XXXXXXXXy.y.y.y.i 2.G <.{.oX, q * W W + + 7.* y X ",
"-.i y.y.y.y.OXOXOX+X+X+X+X+X+X+X+Xy.y.y.y.+X+X+Xy.y.y.y.y.y.y.y.y.y.y.y.y.y.y.+X+X+X+Xy.y.y.y.i i i i @X7 #X$X= b ! - - %X! X @.",
"-.i y.y.y.y.&X&X&X&X&X&X&Xy.y.y.y.&X&X&X&Xy.y.y.y.y.y.y.&X&X&X&X&X&X&X&Xy.y.y.y.y.y.y.&X&X&X&Xy.y.y.y.*X=Xz -X= ! v ;Xv :XQ @.@.",
"-.i y.y.y.y.>X>X>X>X>X>X>Xy.y.y.y.>X>X>X>Xy.y.y.y.y.y.y.>X>X>X>X>X>X>X>Xy.y.y.y.y.y.y.>X>X>X>Xy.y.y.y.,XI <X1Xb v . . . . . @.@.",
"-.i y.y.y.y.2X2X2X2X2X2X2Xy.y.y.y.2X2X2X2Xy.y.y.y.y.y.y.2X2X2X2X2X2X2X2Xy.y.y.y.y.y.y.2X2X2X2Xy.y.y.y.3X*X4X5X- v . . . . . @.@.",
"6Xi y.y.y.y.7X7X7X7X7X7X7Xy.y.y.y.7X7X7X7Xy.y.y.y.y.y.y.7X7X7X7X7X7X7X7Xy.y.y.y.y.y.y.7X7X7X7Xy.y.y.y.-.X.8X4 = ;X. . . . . @.@.",
",Xi y.y.y.y.y.y.y.y.y.y.y.y.y.y.y.y.y.y.y.y.y.y.i G G i y.y.y.y.y.y.y.y.f.2.2.y.y.y.y.y.y.y.y.y.y.y.y.-.&.9X0XqX;X. . . . . @.@.",
"wXi y.y.y.y.y.y.y.y.y.y.y.y.y.y.y.y.y.y.y.y.y.y.i G G i y.y.y.y.y.y.y.y.f.2.2.y.y.y.y.y.y.y.y.y.y.y.y.-.eXrXtXq %X. . . . . @.@.",
"f i y.y.y.y.y.y.y.y.y.y.y.y.y.y.y.y.y.y.y.y.y.y.i -.-.i y.y.y.y.y.y.y.y.G 2.2.y.y.y.y.y.y.y.y.y.y.y.y.G G U.h @ > @.@.@.@.@.@.@.",
"A i y.y.y.y.y.y.y.y.y.y.y.y.y.y.y.y.y.y.y.y.y.y.i -.-.i y.y.y.y.y.y.y.y.G 2.2.y.y.y.y.y.y.y.y.y.y.y.y.G G B [.; O @.@.@.@.@.@.@.",
"2 h S T ( 2.2.2.2.2.2.2.i y.y.y.y.y.y.y.y.y.y.y.i -.-.-.-.-.;.;.;.G G G G 2.2.y.y.y.y.y.y.y.y.y.y.y.y.G G ( 7.$ 7.X @.@.@.@.@.@.",
"q 2 O E +.k.2.2.2.2.2.2.i y.y.y.y.y.y.y.y.y.y.y.i -.-.yXeXo.' U.U.B j.uXG 2.2.y.y.y.y.y.y.y.y.y.y.y.y.G G J {.E u X @.@.@.@.@.@.",
"- qX1 9 Z / t.2.2.2.2.2.i y.y.y.y.y.y.y.y.y.y.y.i -.-.iXX.U S A A E _ U.J 2.2.y.y.y.y.y.y.y.y.y.y.y.y.G G G Z n : #.r @.@.@.@.@.",
"t v - a 1 9.) 3.{ y.y.y.y.y.y.y.y.y.y.y.y.y.y.y.i -.o.@XpXaX, 2 2 0 [.R _ t.2.y.y.y.y.y.y.y.y.y.y.y.y.y.y.y.i L E o X @.@.@.@.@.",
"@.r #.* @ K t.2.sXy.y.y.y.y.y.y.y.y.y.y.y.y.y.y.i <.O.9 h , 7.& & u % n r.O.<.y.y.y.y.y.y.y.y.y.y.y.y.y.y.y.i w.J C 9.g g g @.@.",
"@.@.4.y W j.,.u.dXy.y.y.y.y.y.y.y.y.y.y.y.y.y.y.i B p.h , q o y y O + % C p.B y.y.y.y.y.y.y.y.y.y.y.y.y.y.y.i k.0.U.9.g g g @.@.",
"@.@.@.r X L ) | w.y.y.y.y.y.y.y.y.y.y.y.y.y.y.y.i S 8 fX= ;Xr @.@.X e O $ 8 S y.y.y.y.y.y.y.y.y.y.y.y.y.y.y.i F ( L d g g g @.@.",
"@.@.@.@.@.d C M / i i i i i i i i i i i i i i i i h 2 b ;Xt @.@.@.@.4.#.7.2 h i i i i i i i i i i i i i i i i r.e.s g g g g @.@."
};
