/* XPM */
static char *result[] = {
/* columns rows colors chars-per-pixel */
"64 64 142 2 ",
"   c black",
".  c #010001",
"X  c #140009",
"o  c #16000B",
"O  c #17000C",
"+  c #18000D",
"@  c #19000E",
"#  c #1B0010",
"$  c #1C0111",
"%  c #1D0212",
"&  c #1E0313",
"*  c #200515",
"=  c #2C1121",
"-  c #58000A",
";  c #5A000C",
":  c #5B010D",
">  c #5C020E",
",  c #5D030F",
"<  c #520A0A",
"1  c #530A0A",
"2  c #540A0A",
"3  c #560A0A",
"4  c #580A0A",
"5  c #580B0B",
"6  c #590B0B",
"7  c #5A0B0B",
"8  c #5B0B0B",
"9  c #5C0B0B",
"0  c #5D0B0B",
"q  c #5E0B0B",
"w  c #5F0B0B",
"e  c #5F0C0C",
"r  c #5F0511",
"t  c #600B0B",
"y  c #610B0B",
"u  c #620B0B",
"i  c #600C0C",
"p  c #610C0C",
"a  c #620C0C",
"s  c #630C0C",
"d  c #640C0C",
"f  c #650C0C",
"g  c #660C0C",
"h  c #670C0C",
"j  c #660D0D",
"k  c #670D0D",
"l  c #680C0C",
"z  c #690C0C",
"x  c #680D0D",
"c  c #690D0D",
"v  c #6A0C0C",
"b  c #6A0D0D",
"n  c #6B0D0D",
"m  c #6C0D0D",
"M  c #6D0D0D",
"N  c #6E0D0D",
"B  c #6F0D0D",
"V  c #6C0E0E",
"C  c #6D0E0E",
"Z  c #6E0E0E",
"A  c #6F0E0E",
"S  c #700D0D",
"D  c #710D0D",
"F  c #720D0D",
"G  c #700E0E",
"H  c #710E0E",
"J  c #720E0E",
"K  c #730E0E",
"L  c #740E0E",
"P  c #750E0E",
"I  c #740F0F",
"U  c #750F0F",
"Y  c #760E0E",
"T  c #770E0E",
"R  c #760F0F",
"E  c #770F0F",
"W  c #780E0E",
"Q  c #790E0E",
"!  c #780F0F",
"~  c #790F0F",
"^  c #7A0F0F",
"/  c #7B0F0F",
"(  c #7C0F0F",
")  c #7D0F0F",
"_  c #7E0F0F",
"`  c #7F0F0F",
"'  c #600612",
"]  c #610713",
"[  c #620814",
"{  c #640A16",
"}  c #6B111D",
"|  c #6C121E",
" . c #7D1010",
".. c #7E1010",
"X. c #7F1010",
"o. c #6E1420",
"O. c #6F1521",
"+. c #701622",
"@. c #800F0F",
"#. c #810F0F",
"$. c #820F0F",
"%. c #840F0F",
"&. c #8E0A16",
"*. c #8F0B17",
"=. c #900C18",
"-. c #910D19",
";. c #930F1B",
":. c #801010",
">. c #811010",
",. c #821010",
"<. c #831010",
"1. c #841010",
"2. c #851010",
"3. c #851111",
"4. c #861111",
"5. c #871111",
"6. c #881010",
"7. c #881111",
"8. c #891111",
"9. c #8A1111",
"0. c #8B1111",
"q. c #8C1111",
"w. c #961212",
"e. c #971212",
"r. c #981212",
"t. c #991212",
"y. c #94101C",
"u. c #95111D",
"i. c #96121E",
"p. c #981420",
"a. c #991521",
"s. c #9A1622",
"d. c #9B1723",
"f. c #9D1925",
"g. c #9E1A26",
"h. c #9F1B27",
"j. c #C42630",
"k. c #FA832D",
"l. c #FB842E",
"z. c #FD8630",
"x. c #FE8731",
"c. c #FF8832",
/* pixels */
"Y Y Y Y Y Y Y Y Y Y Y Y Y Y Y Y Y Y Y Y Y Y Y Y Y Y Y Y Y Y Y Y Y Y Y Y Y Y Y Y Y Y Y Y Y Y Y Y Y Y Y Y Y Y Y Y Y Y Y Y Y Y Y Y ",
"Y Y Y Y Y Y Y Y Y Y Y Y Y Y Y Y Y Y Y Y Y Y Y Y Y Y Y Y Y Y Y Y Y Y Y Y Y Y Y Y Y Y Y Y Y Y Y Y Y Y Y Y Y Y Y Y Y Y Y Y Y Y Y Y ",
"Y Y Y Y Y Y Y Y Y Y Y Y Y Y Y Y Y Y Y Y Y Y Y Y Y Y Y Y Y Y Y Y Y Y Y Y Y Y Y Y Y Y Y Y Y Y Y Y Y Y Y Y Y Y Y Y Y Y Y Y Y Y Y Y ",
"Y Y Y Y Y Y Y Y Y Y Y Y Y Y Y Y Y Y Y Y Y Y Y Y Y Y Y Y Y Y Y Y Y Y Y Y Y Y Y Y Y Y Y Y Y Y Y Y Y Y Y Y Y Y Y Y Y Y Y Y Y Y Y Y ",
"Y Y Y Y Y Y Y Y Y Y Y Y Y Y Y Y Y Y Y Y Y Y Y Y Y Y Y Y Y Y Y Y Y Y Y Y Y Y Y Y Y Y Y Y Y Y Y Y Y Y Y Y Y Y Y Y Y Y Y Y Y Y Y Y ",
"Y Y Y Y Y Y Y Y Y Y Y Y Y Y Y Y Y Y Y Y Y Y Y Y Y Y Y Y Y Y Y Y Y Y Y Y Y Y Y Y Y Y Y Y Y Y Y Y Y Y Y Y Y Y Y Y Y Y Y Y Y Y Y Y ",
"Y Y Y Y Y Y Y Y Y Y P P P L K K J J J J J J J K K L P P P Y Y Y Y Y Y P P P L K K J J J J J J J K K L P P P Y Y Y Y Y Y Y Y Y Y ",
"Y Y Y Y Y Y Y Y Y Y P P L J D S B B B B B B B S D J L P P Y Y Y Y Y Y P P L J D S B B B B B B B S D J L P P Y Y Y Y Y Y Y Y Y Y ",
"Y Y Y Y Y Y Y Y Y P K J G B M m b c c c c c b m B D J L P Y Y P L L L K J G B M n b c c c b b b m M B G J L Y Y Y Y Y Y Y Y Y Y ",
"Y Y Y Y Y Y Y Y Y ) ) ( Q T P J L L L L L L P Y N B D L P Y Y ) _ _ _ ) ( Q T ! T P L L L K B S J P T Q ( ( Y Y Y Y Y Y Y Y Y Y ",
"Y Y Y Y Y Y P P Y 7.9.2.,.X.( ^ $.#.#.#.#.#.%.1.m n B D L L P 4.8.7.7.5.1.,.:.6.2.$.#.#.#.@.T R ~ ( X.,.2.5.Y L P P Y Y Y Y Y Y ",
"Y Y Y Y Y Y P P P 3.2.>. .~ R K               ) h l n N S S S :.,.>.,.>.X.( ^ :._               J R ~  .>.<.:.K P P Y Y Y Y Y Y ",
"Y Y Y Y Y Y P L K <.,. .~ P H Z   +.+.+.+.+.  ! s d h c n n n ^ / ( ) ) ^ E P / ~   +.+.+.+.+.  C H P ~  .:.` <./ P Y Y Y Y Y Y ",
"Y Y Y Y Y Y L J F :.X.~ U G n x   +.+.+.+.+.  J t w s f h h g K P R ! ! R J H T L   +.+.+.+.+.  k n G U ~ ....@.$.L Y Y Y Y Y Y ",
"Y Y Y Y Y Y L D S ..( R H n k p   +.+.+.+.+.  M 8 8 q y s s y C Z G J K G Z m H B   +.+.+.+.+.  p k n H R / X.:.#.T Y Y Y Y Y Y ",
"Y Y Y Y Y Y K S B ^ ! J V j i i   +.+.+.+.+.  x 3 3 7 9 q 0 9 j x b M C n x j n c   +.+.+.+.+.  e i j V J ! ( X.>. .Y Y Y Y Y Y ",
"Y Y Y Y Y Y J B M ) ^             +.+.+.+.+.  x 2 <                         p c c   +.+.+.+.+.            E ~  .:.@.Y Y Y Y Y Y ",
"Y Y Y Y Y Y D M m ,.`   = = = = = +.+.+.+.+.  x 2 <   h.h.h.h.h.h.h.h.h.h.  p c c   +.+.+.+.+.= = = = =   Y E ( :.#.Y Y Y Y Y Y ",
"Y Y Y Y Y Y D m v _ /   = = = = = +.+.+.+.+.  x 2 <   h.h.h.h.h.h.h.h.h.h.  p c c   +.+.+.+.+.= = = = =   G P ~ ..>.Y Y Y Y Y Y ",
"Y Y Y Y Y Y S n z ( W   = = = = = +.+.+.+.+.  x 2 <   h.h.h.h.h.h.h.h.h.h.  p c c   +.+.+.+.+.= = = = =   A J !  .,.Y Y Y Y Y Y ",
"Y Y Y Y Y Y S b h ~ P   = = = = = +.+.+.+.+.  x 2 <   h.h.h.h.h.h.h.h.h.h.  p c c   +.+.+.+.+.= = = = =   M G R / / Y Y Y Y Y Y ",
"Y Y Y Y Y Y B c g Y J   = = = = = +.+.+.+.+.          h.h.h.h.h.h.h.h.h.h.          +.+.+.+.+.= = = = =   V Z L ^ D Y Y Y Y Y Y ",
"Y Y Y Y Y Y B c g Y J . = = = = = = = = = = j.j.j.j.j.j.j.j.j.j.h.h.h.h.h.h.h.h.h.h.= = = = = = = = = =   C Z L ^ B Y Y Y Y Y Y ",
"Y Y Y Y Y Y S b h / T   = = = = = = = = = = j.j.j.j.j.j.j.j.j.j.h.h.h.h.h.h.h.h.h.h.= = = = = = = = = =   J G I ( S Y Y Y Y Y Y ",
"Y Y Y Y Y Y S n l F N   = = = = = = = = = = j.j.j.j.j.j.j.j.j.j.h.h.h.h.h.h.h.h.h.h.= = = = = = = = = =   A J !  .S Y Y Y Y Y Y ",
"Y Y Y Y Y Y D M z s q   = = = = = = = = = = j.j.j.j.j.j.j.j.j.j.h.h.h.h.h.h.h.h.h.h.= = = = = = = = = =   Z P ~  .D Y Y Y Y Y Y ",
"Y Y Y Y Y Y D N b h s   = = = = = = = = = = j.j.j.j.j.j.j.j.j.j.h.h.h.h.h.h.h.h.h.h.= = = = = = = = = =   J R ( X.D Y Y Y Y Y Y ",
"Y Y Y Y Y Y J B m z f             h.h.h.h.h.h.h.h.h.h.h.h.h.h.h.h.h.h.h.h.h.h.h.h.h.h.h.h.h.h.            U ~  .:.J Y Y Y Y Y Y ",
"Y Y Y Y Y Y K S N n h a 9 3 1 1   h.h.h.h.h.h.h.h.h.h.h.h.h.h.h.h.h.h.h.h.h.h.h.h.h.h.h.h.h.h.  i i d n H E /  .:.K Y Y Y Y Y Y ",
"Y Y Y Y Y Y L D B M c d q 4 1 1   h.h.h.h.h.h.h.h.h.h.h.h.h.h.h.h.h.h.h.h.h.h.h.h.h.h.h.h.h.h.  i i k Z L ^ N N D L Y Y Y Y Y Y ",
"Y Y Y Y Y Y L J S M c f w 6 1 <   h.h.h.h.h.h.h.h.h.h.h.h.h.h.h.h.h.h.h.h.h.h.h.h.h.h.h.h.h.h.  p a b G E ( B B J L Y Y Y Y Y Y ",
"Y Y Y Y Y Y L J S P J m f t 6 5   h.h.h.h.h.h.h.h.h.h.h.h.h.h.h.h.h.h.h.h.h.h.h.h.h.h.h.h.h.h.  8 0 s b G U S B J L Y Y Y Y Y Y ",
"Y Y Y Y Y Y L J D :._ E G b a p   h.h.h.h.h.+.+.+.+.+.c.c.c.c.c.          +.+.+.+.+.h.h.h.h.h.  < 1 6 w f b B S J L Y Y Y Y Y Y ",
"Y Y Y Y Y Y L J D X.) R A c a i   g.g.g.g.g.O.O.O.O.O.x.x.x.x.x.          O.O.O.O.O.g.g.g.g.g.  1 2 7 t g n N S J L Y Y Y Y Y Y ",
"Y Y Y Y Y Y L D S ../ L Z k i i   f.f.f.f.f.o.o.o.o.o.z.z.z.z.z.          o.o.o.o.o.f.f.f.f.f.  1 1 4 q d c M B D L Y Y Y Y Y Y ",
"Y Y Y Y Y Y K S B / ~ H n d i i   d.d.d.d.d.| | | | | l.l.l.l.l.          | | | | | d.d.d.d.d.  1 1 3 9 a h n N S K Y Y Y Y Y Y ",
"Y Y Y Y Y Y J B M ~ R             s.s.s.s.s.} } } } } k.k.k.k.k.          } } } } } s.s.s.s.s.            f z m B J Y Y Y Y Y Y ",
"Y Y Y Y Y Y D N n R K   a.a.a.a.a.a.a.a.a.a.                                        a.a.a.a.a.a.a.a.a.a.  s h b N D Y Y Y Y Y Y ",
"Y Y Y Y Y Y D M z K A   p.p.p.p.p.p.p.p.p.p.                                        p.p.p.p.p.p.p.p.p.p.  q d z M D Y Y Y Y Y Y ",
"Y Y Y Y Y Y S m l P J   i.i.i.i.i.i.i.i.i.i.                                        i.i.i.i.i.i.i.i.i.i.  h s h m S Y Y Y Y Y Y ",
"Y Y Y Y Y Y S b h ^ P   u.u.u.u.u.u.u.u.u.u.                                        u.u.u.u.u.u.u.u.u.u.  L u d n S Y Y Y Y Y Y ",
"Y Y Y Y Y Y B c g Y J   y.y.y.y.y.y.y.y.y.y.                                        y.y.y.y.y.y.y.y.y.y.  c x j c B Y Y Y Y Y Y ",
"Y Y Y Y Y Y B l f P S   ;.;.;.;.;.{ { { { {           * * * * * * * * * *           { { { { { ;.;.;.;.;.  j n H z B Y Y Y Y Y Y ",
"Y Y Y Y Y Y B l d P B   -.-.-.-.-.[ [ [ [ [           & & & & & & & & & &           [ [ [ [ [ -.-.-.-.-.  j m G z B Y Y Y Y Y Y ",
"Y Y Y Y Y Y B l d P B   =.=.=.=.=.] ] ] ] ]           % % % % % % % % % %           ] ] ] ] ] =.=.=.=.=.  j m H z B Y Y Y Y Y Y ",
"Y Y Y Y Y Y B l d P S   *.*.*.*.*.' ' ' ' '           $ $ $ $ $ $ $ $ $ $           ' ' ' ' ' *.*.*.*.*.  j m J z B Y Y Y Y Y Y ",
"Y Y Y Y Y Y B l f H m   &.&.&.&.&.r r r r r           # # # # # # # # # #           r r r r r &.&.&.&.&.  j m J z B Y Y Y Y Y Y ",
"Y Y Y Y Y Y B c f V k   , , , , , , , , , , @ @ @ @ @ @ @ @ @ @ @ @ @ @ @ @ @ @ @ @ , , , , , , , , , ,   j Z K c B Y Y Y Y Y Y ",
"Y Y Y Y Y Y S n g A n   > > > > > > > > > > + + + + + + + + + + + + + + + + + + + + > > > > > > > > > >   b G U n S Y Y Y Y Y Y ",
"Y Y Y Y Y Y S m l J Z   : : : : : : : : : : O O O O O O O O O O O O O O O O O O O O : : : : : : : : : :   C J U m S Y Y Y Y Y Y ",
"Y Y Y Y Y Y D M z L H   ; ; ; ; ; ; ; ; ; ; o o o o o o o o o o o o o o o o o o o o ; ; ; ; ; ; ; ; ; ;   G P K M D Y Y Y Y Y Y ",
"Y Y Y Y Y Y D N n R L   - - - - - - - - - - X X X X X X X X X X X X X X X X X X X X - - - - - - - - - -   J R V N D Y Y Y Y Y Y ",
"Y Y Y Y Y Y J B M ~ E                                                                                     U z n B J Y Y Y Y Y Y ",
"Y Y Y Y Y Y Y Y T 8.0.9.9.9.9.0.e.r.r.r.r.r.r.e.0.9.9.9.9.9.8.T P Y Y Y Y P W w.t.r.r.r.r.w.0.9.8.8.9.9.9.8.T P Y Y Y Y Y Y Y Y ",
"Y Y Y Y Y Y Y Y T ,.<.,.,.,.,.<.9.0.0.0.0.0.0.9.<.,.,.,.,.,.,.T P Y Y Y Y P T 9.q.0.0.9.9.8.7.7.8.8.7.7.7.4.T P Y Y Y Y Y Y Y Y ",
"Y Y Y Y Y Y Y Y Y P P P P P P P L L L L L L L L P P P P P P P Y Y Y Y Y Y Y Y L L L L 5.8.7.8.8.8.7.P P P P Y Y Y Y Y Y Y Y Y Y ",
"Y Y Y Y Y Y Y Y Y Y Y Y Y Y Y Y Y Y Y Y Y Y Y Y Y Y Y Y Y Y Y Y Y Y Y Y Y Y Y Y Y Y Y / 8.7.8.8.8.2.Y Y Y Y Y Y Y Y Y Y Y Y Y Y ",
"Y Y Y Y Y Y Y Y Y Y Y Y Y Y Y Y Y Y Y Y Y Y Y Y Y Y Y Y Y Y Y Y Y Y Y Y Y Y Y Y Y Y Y Y 7.8.8.8.8.1.Y Y Y Y Y Y Y Y Y Y Y Y Y Y ",
"Y Y Y Y Y Y Y Y Y Y Y Y Y Y Y Y Y Y Y Y Y Y Y Y Y Y Y Y Y Y Y Y Y Y Y Y Y Y Y Y Y Y Y Y Y Y ^ ) :.W Y Y Y Y Y Y Y Y Y Y Y Y Y Y ",
"Y Y Y Y Y Y Y Y Y Y Y Y Y Y Y Y Y Y Y Y Y Y Y Y Y Y Y Y Y Y Y Y Y Y Y Y Y Y Y Y Y Y Y Y Y Y Y Y Y Y Y Y Y Y Y Y Y Y Y Y Y Y Y Y ",
"Y Y Y Y Y Y Y Y Y Y Y Y Y Y Y Y Y Y Y Y Y Y Y Y Y Y Y Y Y Y Y Y Y Y Y Y Y Y Y Y Y Y Y Y Y Y Y Y Y Y Y Y Y Y Y Y Y Y Y Y Y Y Y Y ",
"Y Y Y Y Y Y Y Y Y Y Y Y Y Y Y Y Y Y Y Y Y Y Y Y Y Y Y Y Y Y Y Y Y Y Y Y Y Y Y Y Y Y Y Y Y Y Y Y Y Y Y Y Y Y Y Y Y Y Y Y Y Y Y Y ",
"Y Y Y Y Y Y Y Y Y Y Y Y Y Y Y Y Y Y Y Y Y Y Y Y Y Y Y Y Y Y Y Y Y Y Y Y Y Y Y Y Y Y Y Y Y Y Y Y Y Y Y Y Y Y Y Y Y Y Y Y Y Y Y Y ",
"Y Y Y Y Y Y Y Y Y Y Y Y Y Y Y Y Y Y Y Y Y Y Y Y Y Y Y Y Y Y Y Y Y Y Y Y Y Y Y Y Y Y Y Y Y Y Y Y Y Y Y Y Y Y Y Y Y Y Y Y Y Y Y Y "
};
