/* XPM */
static char *result[] = {
/* columns rows colors chars-per-pixel */
"64 64 156 2 ",
"   c black",
".  c #010001",
"X  c #020001",
"o  c #050203",
"O  c #060204",
"+  c #090306",
"@  c #0B0408",
"#  c #0C0409",
"$  c #0F050B",
"%  c #140009",
"&  c #16000B",
"*  c #17000C",
"=  c #10060C",
"-  c #13070E",
";  c #18000D",
":  c #19000E",
">  c #1B0010",
",  c #1C0111",
"<  c #1D0212",
"1  c #1E0313",
"2  c #200515",
"3  c #2C1121",
"4  c #58000A",
"5  c #5A000C",
"6  c #5B010D",
"7  c #5C020E",
"8  c #5D030F",
"9  c #520A0A",
"0  c #530A0A",
"q  c #540A0A",
"w  c #560A0A",
"e  c #580A0A",
"r  c #580B0B",
"t  c #590B0B",
"y  c #5A0B0B",
"u  c #5B0B0B",
"i  c #5C0B0B",
"p  c #5D0B0B",
"a  c #5E0B0B",
"s  c #5F0B0B",
"d  c #5F0C0C",
"f  c #5F0511",
"g  c #600B0B",
"h  c #610B0B",
"j  c #620B0B",
"k  c #600C0C",
"l  c #610C0C",
"z  c #620C0C",
"x  c #630C0C",
"c  c #640C0C",
"v  c #650C0C",
"b  c #660C0C",
"n  c #670C0C",
"m  c #660D0D",
"M  c #670D0D",
"N  c #680C0C",
"B  c #690C0C",
"V  c #680D0D",
"C  c #690D0D",
"Z  c #6A0C0C",
"A  c #6A0D0D",
"S  c #6B0D0D",
"D  c #6C0D0D",
"F  c #6D0D0D",
"G  c #6E0D0D",
"H  c #6F0D0D",
"J  c #6C0E0E",
"K  c #6D0E0E",
"L  c #6E0E0E",
"P  c #6F0E0E",
"I  c #700D0D",
"U  c #710D0D",
"Y  c #720D0D",
"T  c #700E0E",
"R  c #710E0E",
"E  c #720E0E",
"W  c #730E0E",
"Q  c #740E0E",
"!  c #750E0E",
"~  c #740F0F",
"^  c #750F0F",
"/  c #760E0E",
"(  c #770E0E",
")  c #760F0F",
"_  c #770F0F",
"`  c #780E0E",
"'  c #790E0E",
"]  c #780F0F",
"[  c #790F0F",
"{  c #7A0F0F",
"}  c #7B0F0F",
"|  c #7C0F0F",
" . c #7D0F0F",
".. c #7E0F0F",
"X. c #7F0F0F",
"o. c #600612",
"O. c #610713",
"+. c #620814",
"@. c #640A16",
"#. c #650B17",
"$. c #660C18",
"%. c #670D19",
"&. c #690F1B",
"*. c #6A101C",
"=. c #6B111D",
"-. c #6C121E",
";. c #7D1010",
":. c #7E1010",
">. c #7F1010",
",. c #6E1420",
"<. c #6F1521",
"1. c #701622",
"2. c #87030F",
"3. c #800F0F",
"4. c #810F0F",
"5. c #820F0F",
"6. c #840F0F",
"7. c #890511",
"8. c #8A0612",
"9. c #8B0713",
"0. c #8C0814",
"q. c #8E0A16",
"w. c #8F0B17",
"e. c #900C18",
"r. c #910D19",
"t. c #930F1B",
"y. c #801010",
"u. c #811010",
"i. c #821010",
"p. c #831010",
"a. c #841010",
"s. c #851010",
"d. c #851111",
"f. c #861111",
"g. c #871111",
"h. c #881010",
"j. c #881111",
"k. c #891111",
"l. c #8A1111",
"z. c #8B1111",
"x. c #8C1111",
"c. c #961212",
"v. c #971212",
"b. c #981212",
"n. c #991212",
"m. c #94101C",
"M. c #95111D",
"N. c #96121E",
"B. c #981420",
"V. c #991521",
"C. c #9A1622",
"Z. c #9B1723",
"A. c #9D1925",
"S. c #9E1A26",
"D. c #9F1B27",
"F. c #C42630",
/* pixels */
"/ / / / / / / / / / / / / / / / / / / / / / / / / / / / / / / / / / / / / / / / / / / / / / / / / / / / / / / / / / / / / / / / ",
"/ / / / / / / / / / / / / / / / / / / / / / / / / / / / / / / / / / / / / / / / / / / / / / / / / / / / / / / / / / / / / / / / ",
"/ / / / / / / / / / / / / / / / / / / / / / / / / / / / / / / / / / / / / / / / / / / / / / / / / / / / / / / / / / / / / / / / ",
"/ / / / / / / / / / / / / / / / / / / / / / / / / / / / / / / / / / / / / / / / / / / / / / / / / / / / / / / / / / / / / / / / ",
"/ / / / / / / / / / / / / / / / / / / / / / / / / / / / / / / / / / / / / / / / / / / / / / / / / / / / / / / / / / / / / / / / ",
"/ / / / / / / / / / / / / / / / / / / / / / / / / / / / / / / / / / / / / / / / / / / / / / / / / / / / / / / / / / / / / / / / ",
"/ / / / / / / / / / ! ! ! Q W W E E E E E E E W W Q ! ! ! / / / / / / ! ! ! Q W W E E E E E E E W W Q ! ! ! / / / / / / / / / / ",
"/ / / / / / / / / / ! ! Q E U I H H H H H H H I U E Q ! ! / / / / / / ! ! Q E U I H H H H H H H I U E Q ! ! / / / / / / / / / / ",
"/ / / / / / / / / ! W E T H F D A C C C C C A D H U E Q ! / / ! Q Q Q W E T H F S A C C C A A A D F H T E Q / / / / / / / / / / ",
"/ / / / / / / / /  . .| ' ( ! E Q Q Q Q Q Q ! / G H U Q ! / /  ....... .| ' ( ] ( ! Q Q Q W H I E ! ( ' | | / / / / / / / / / / ",
"/ / / / / / ! ! / j.l.s.i.>.| { 5.4.4.4.4.4.6.a.D S H U Q Q ! f.k.j.j.g.a.i.y.h.s.5.4.4.4.3.( ) [ | >.i.s.g./ Q ! ! / / / / / / ",
"/ / / / / / ! ! ! d.s.u.;.[ ) W                .n N S G I I I y.i.u.i.u.>.| { y...              E ) [ ;.u.p.y.W ! ! / / / / / / ",
"/ / / / / / ! Q W p.i.;.[ ! R L   1.1.1.1.1.  ] x c n C S S S { } |  . .{ _ ! } [   1.1.1.1.1.  K R ! [ ;.y.X.p.} ! / / / / / / ",
"/ / / / / / Q E Y y.>.[ ^ T S V   1.1.1.1.1.  E g s x v n n b W ! ) ] ] ) E R ( Q   1.1.1.1.1.  M S T ^ [ :.:.3.5.Q / / / / / / ",
"/ / / / / / Q U I :.| ) R S M l   1.1.1.1.1.  F u u a h x x h K L T E W T L D R H   1.1.1.1.1.  l M S R ) } >.y.4.( / / / / / / ",
"/ / / / / / W I H { ] E J m k k   1.1.1.1.1.  V w w y i a p i m V A F K S V m S C   1.1.1.1.1.  d k m J E ] | >.u.;./ / / / / / ",
"/ / / / / / E H F  .{             1.1.1.1.1.  V q 9                         l C C   1.1.1.1.1.            _ [ ;.y.3./ / / / / / ",
"/ / / / / / U F D i.X.  3 3 3 3 3 1.1.1.1.1.  V q 9   D.D.D.D.D.D.D.D.D.D.  l C C   1.1.1.1.1.3 3 3 3 3   / _ | y.4./ / / / / / ",
"/ / / / / / U D Z ..}   3 3 3 3 3 1.1.1.1.1.  V q 9   D.D.D.D.D.D.D.D.D.D.  l C C   1.1.1.1.1.3 3 3 3 3   T ! [ :.u./ / / / / / ",
"/ / / / / / I S B | `   3 3 3 3 3 1.1.1.1.1.  V q 9   D.D.D.D.D.D.D.D.D.D.  l C C   1.1.1.1.1.3 3 3 3 3   P E ] ;.i./ / / / / / ",
"/ / / / / / I A n [ !   3 3 3 3 3 1.1.1.1.1.  V q 9   D.D.D.D.D.D.D.D.D.D.  l C C   1.1.1.1.1.3 3 3 3 3   F T ) } } / / / / / / ",
"/ / / / / / H C b / E   3 3 3 3 3 1.1.1.1.1.          D.D.D.D.D.D.D.D.D.D.          1.1.1.1.1.3 3 3 3 3   J L Q { U / / / / / / ",
"/ / / / / / H C b / E . 3 3 3 3 3 3 3 3 3 3 F.F.F.F.F.F.F.F.F.F.D.D.D.D.D.D.D.D.D.D.3 3 3 3 3 3 3 3 3 3   K L Q { H / / / / / / ",
"/ / / / / / I A n } ( o 3 3 3 3 3 3 3 3 3 3 F.F.F.F.F.F.F.F.F.F.D.D.D.D.D.D.D.D.D.D.3 3 3 3 3 3 3 3 3 3   E T ~ | I / / / / / / ",
"/ / / / / / I S N Y G + 3 3 3 3 3 3 3 3 3 3 F.F.F.F.F.F.F.F.F.F.D.D.D.D.D.D.D.D.D.D.3 3 3 3 3 3 3 3 3 3   P E ] ;.I / / / / / / ",
"/ / / / / / U F B x a # 3 3 3 3 3 3 3 3 3 3 F.F.F.F.F.F.F.F.F.F.D.D.D.D.D.D.D.D.D.D.3 3 3 3 3 3 3 3 3 3   L ! [ ;.U / / / / / / ",
"/ / / / / / U G A n x = 3 3 3 3 3 3 3 3 3 3 F.F.F.F.F.F.F.F.F.F.D.D.D.D.D.D.D.D.D.D.3 3 3 3 3 3 3 3 3 3   E ) | >.U / / / / / / ",
"/ / / / / / E H D B v           - D.D.D.D.D.D.D.D.D.D.1.1.1.1.1.1.1.1.1.1.D.D.D.D.D.D.D.D.D.D.            ^ [ ;.y.E / / / / / / ",
"/ / / / / / W I G S n z i w 0 0 $ D.D.D.D.D.D.D.D.D.D.1.1.1.1.1.1.1.1.1.1.D.D.D.D.D.D.D.D.D.D.  k k c A R _ } ;.y.W / / / / / / ",
"/ / / / / / Q U H F C c a e 0 0 @ D.D.D.D.D.D.D.D.D.D.1.1.1.1.1.1.1.1.1.1.D.D.D.D.D.D.D.D.D.D.  k k M L Q { G G U Q / / / / / / ",
"/ / / / / / Q E I F C v s t 0 9 O D.D.D.D.D.D.D.D.D.D.1.1.1.1.1.1.1.1.1.1.D.D.D.D.D.D.D.D.D.D.  l z C T _ | H H E Q / / / / / / ",
"/ / / / / / Q E I ! E D v g t r X D.D.D.D.D.D.D.D.D.D.1.1.1.1.1.1.1.1.1.1.D.D.D.D.D.D.D.D.D.D.  u p x A T ^ I H E Q / / / / / / ",
"/ / / / / / Q E U y..._ T A z l   D.D.D.D.D.1.1.1.1.1.                    1.1.1.1.1.D.D.D.D.D.  9 0 t s v A H I E Q / / / / / / ",
"/ / / / / / Q E U >. .) P V z k   S.S.S.S.S.<.<.<.<.<.                    <.<.<.<.<.S.S.S.S.S.  0 q y g b S G I E Q / / / / / / ",
"/ / / / / / Q U I :.} Q L M k k   A.A.A.A.A.,.,.,.,.,.                    ,.,.,.,.,.A.A.A.A.A.  0 0 e a c C F H U Q / / / / / / ",
"/ / / / / / W I H } [ R A c k k   Z.Z.Z.Z.Z.-.-.-.-.-.                    -.-.-.-.-.Z.Z.Z.Z.Z.  0 0 w i z n S G I W / / / / / / ",
"/ / / / / / E H F [ )           - C.C.C.C.C.=.=.=.=.=.                    =.=.=.=.=.C.C.C.C.C.            v B D H E / / / / / / ",
"/ / / / / / U G S ) W   V.V.V.V.V.*.*.*.*.*.                                        *.*.*.*.*.V.V.V.V.V.  x n A G U / / / / / / ",
"/ / / / / / U F B W P   B.B.B.B.B.&.&.&.&.&.                                        &.&.&.&.&.B.B.B.B.B.  a c B F U / / / / / / ",
"/ / / / / / I D N ! E   N.N.N.N.N.%.%.%.%.%.                                        %.%.%.%.%.N.N.N.N.N.  n x n D I / / / / / / ",
"/ / / / / / I A n { !   M.M.M.M.M.$.$.$.$.$.                                        $.$.$.$.$.M.M.M.M.M.  Q j c S I / / / / / / ",
"/ / / / / / H C b / E   m.m.m.m.m.#.#.#.#.#.                                        #.#.#.#.#.m.m.m.m.m.  C V m C H / / / / / / ",
"/ / / / / / H N v ! I   t.t.t.t.t.@.@.@.@.@.          2 2 2 2 2 2 2 2 2 2           @.@.@.@.@.t.t.t.t.t.  m S R B H / / / / / / ",
"/ / / / / / H N c ! H   r.r.r.r.r.+.+.+.+.+.          1 1 1 1 1 1 1 1 1 1           +.+.+.+.+.r.r.r.r.r.  m D T B H / / / / / / ",
"/ / / / / / H N c ! H   e.e.e.e.e.O.O.O.O.O.          < < < < < < < < < <           O.O.O.O.O.e.e.e.e.e.  m D R B H / / / / / / ",
"/ / / / / / H N c ! I   w.w.w.w.w.o.o.o.o.o.          , , , , , , , , , ,           o.o.o.o.o.w.w.w.w.w.  m D E B H / / / / / / ",
"/ / / / / / H N v R D   q.q.q.q.q.f f f f f           > > > > > > > > > >           f f f f f q.q.q.q.q.  m D E B H / / / / / / ",
"/ / / / / / H C v J M   0.0.0.0.0.8 8 8 8 8 : : : : : : : : : : : : : : : : : : : : 8 8 8 8 8 0.0.0.0.0.  m L W C H / / / / / / ",
"/ / / / / / I S b P S   9.9.9.9.9.7 7 7 7 7 ; ; ; ; ; ; ; ; ; ; ; ; ; ; ; ; ; ; ; ; 7 7 7 7 7 9.9.9.9.9.  A T ^ S I / / / / / / ",
"/ / / / / / I D N E L   8.8.8.8.8.6 6 6 6 6 * * * * * * * * * * * * * * * * * * * * 6 6 6 6 6 8.8.8.8.8.  K E ^ D I / / / / / / ",
"/ / / / / / U F B Q R   7.7.7.7.7.5 5 5 5 5 & & & & & & & & & & & & & & & & & & & & 5 5 5 5 5 7.7.7.7.7.  T ! W F U / / / / / / ",
"/ / / / / / U G S ) Q   2.2.2.2.2.4 4 4 4 4 % % % % % % % % % % % % % % % % % % % % 4 4 4 4 4 2.2.2.2.2.  E ) J G U / / / / / / ",
"/ / / / / / E H F [ _                                                                                     ^ B S H E / / / / / / ",
"/ / / / / / / / ( k.z.l.l.l.l.z.v.b.b.b.b.b.b.v.z.l.l.l.l.l.k.( ! / / / / ! ` c.n.b.b.b.b.c.z.l.k.k.l.l.l.k.( ! / / / / / / / / ",
"/ / / / / / / / ( i.p.i.i.i.i.p.l.z.z.z.z.z.z.l.p.i.i.i.i.i.i.( ! / / / / ! ( l.x.z.z.l.l.k.j.j.k.k.j.j.j.f.( ! / / / / / / / / ",
"/ / / / / / / / / ! ! ! ! ! ! ! Q Q Q Q Q Q Q Q ! ! ! ! ! ! ! / / / / / / / / Q Q Q Q g.k.j.k.k.k.j.! ! ! ! / / / / / / / / / / ",
"/ / / / / / / / / / / / / / / / / / / / / / / / / / / / / / / / / / / / / / / / / / / } k.j.k.k.k.s./ / / / / / / / / / / / / / ",
"/ / / / / / / / / / / / / / / / / / / / / / / / / / / / / / / / / / / / / / / / / / / / j.k.k.k.k.a./ / / / / / / / / / / / / / ",
"/ / / / / / / / / / / / / / / / / / / / / / / / / / / / / / / / / / / / / / / / / / / / / / {  .y.` / / / / / / / / / / / / / / ",
"/ / / / / / / / / / / / / / / / / / / / / / / / / / / / / / / / / / / / / / / / / / / / / / / / / / / / / / / / / / / / / / / / ",
"/ / / / / / / / / / / / / / / / / / / / / / / / / / / / / / / / / / / / / / / / / / / / / / / / / / / / / / / / / / / / / / / / ",
"/ / / / / / / / / / / / / / / / / / / / / / / / / / / / / / / / / / / / / / / / / / / / / / / / / / / / / / / / / / / / / / / / ",
"/ / / / / / / / / / / / / / / / / / / / / / / / / / / / / / / / / / / / / / / / / / / / / / / / / / / / / / / / / / / / / / / / ",
"/ / / / / / / / / / / / / / / / / / / / / / / / / / / / / / / / / / / / / / / / / / / / / / / / / / / / / / / / / / / / / / / / "
};
