/* XPM */
static char *result[] = {
/* columns rows colors chars-per-pixel */
"64 64 157 2 ",
"   c black",
".  c #010001",
"X  c #050203",
"o  c #090306",
"O  c #0C0409",
"+  c #10060C",
"@  c #1B0010",
"#  c #1C0111",
"$  c #1D0212",
"%  c #1E0313",
"&  c #200515",
"*  c #2C1121",
"=  c #520A0A",
"-  c #530A0A",
";  c #540A0A",
":  c #560A0A",
">  c #580A0A",
",  c #580B0B",
"<  c #590B0B",
"1  c #5A0B0B",
"2  c #5B0B0B",
"3  c #5C0B0B",
"4  c #5D0B0B",
"5  c #5E0B0B",
"6  c #5F0B0B",
"7  c #5F0C0C",
"8  c #600B0B",
"9  c #610B0B",
"0  c #620B0B",
"q  c #600C0C",
"w  c #610C0C",
"e  c #620C0C",
"r  c #630C0C",
"t  c #640C0C",
"y  c #650C0C",
"u  c #660C0C",
"i  c #670C0C",
"p  c #660D0D",
"a  c #670D0D",
"s  c #680C0C",
"d  c #690C0C",
"f  c #680D0D",
"g  c #690D0D",
"h  c #6A0C0C",
"j  c #6A0D0D",
"k  c #6B0D0D",
"l  c #6C0D0D",
"z  c #6D0D0D",
"x  c #6E0D0D",
"c  c #6F0D0D",
"v  c #6C0E0E",
"b  c #6D0E0E",
"n  c #6E0E0E",
"m  c #6F0E0E",
"M  c #700D0D",
"N  c #710D0D",
"B  c #720D0D",
"V  c #700E0E",
"C  c #710E0E",
"Z  c #720E0E",
"A  c #730E0E",
"S  c #740E0E",
"D  c #750E0E",
"F  c #740F0F",
"G  c #750F0F",
"H  c #760E0E",
"J  c #770E0E",
"K  c #760F0F",
"L  c #770F0F",
"P  c #780E0E",
"I  c #790E0E",
"U  c #780F0F",
"Y  c #790F0F",
"T  c #7A0F0F",
"R  c #7B0F0F",
"E  c #7C0F0F",
"W  c #7D0F0F",
"Q  c #7E0F0F",
"!  c #7F0F0F",
"~  c #7D1010",
"^  c #7E1010",
"/  c #7F1010",
"(  c #701622",
")  c #800F0F",
"_  c #810F0F",
"`  c #820F0F",
"'  c #840F0F",
"]  c #8E0A16",
"[  c #8F0B17",
"{  c #900C18",
"}  c #910D19",
"|  c #930F1B",
" . c #801010",
".. c #811010",
"X. c #821010",
"o. c #831010",
"O. c #841010",
"+. c #851010",
"@. c #851111",
"#. c #861111",
"$. c #871111",
"%. c #881010",
"&. c #881111",
"*. c #891111",
"=. c #8A1111",
"-. c #8B1111",
";. c #8C1111",
":. c #961212",
">. c #971212",
",. c #981212",
"<. c #991212",
"1. c #94101C",
"2. c #95111D",
"3. c #96121E",
"4. c #AC0E18",
"5. c #AE101A",
"6. c #AF111B",
"7. c #B0121C",
"8. c #B1131D",
"9. c #981420",
"0. c #991521",
"q. c #9A1622",
"w. c #9B1723",
"e. c #9D1925",
"r. c #9E1A26",
"t. c #9F1B27",
"y. c #B91B25",
"u. c #BA1C26",
"i. c #BB1D27",
"p. c #BD1F29",
"a. c #BE202A",
"s. c #BF212B",
"d. c #D32814",
"f. c #D52A16",
"g. c #D62B17",
"h. c #D72C18",
"j. c #D82D19",
"k. c #DA2F1B",
"l. c #DB301C",
"z. c #DC311D",
"x. c #DD321E",
"c. c #C0222C",
"v. c #C2242E",
"b. c #C3252F",
"n. c #DF3420",
"m. c #C42630",
"M. c #E7701A",
"N. c #E9721C",
"B. c #EA731D",
"V. c #EB741E",
"C. c #EC751F",
"Z. c #EB402C",
"A. c #E7CB41",
"S. c #E9CD43",
"D. c #EACE44",
"F. c #EBCF45",
"G. c #ECD046",
/* pixels */
"H H H H H H H H H H H H H H H H H H H H H H H H H H H H H H H H H H H H H H H H H H H H H H H H H H H H H H H H H H H H H H H H ",
"H H H H H H H H H H H H H H H H H H H H H H H H H H H H H H H H H H H H H H H H H H H H H H H H H H H H H H H H H H H H H H H H ",
"H H H H H H H H H H H H H H H H H H H H H H H H H H H H H H H H H H H H H H H H H H H H H H H H H H H H H H H H H H H H H H H H ",
"H H H H H H H H H H H H H H H H H H H H H H H H H H H H H H H H H H H H H H H H H H H H H H H H H H H H H H H H H H H H H H H H ",
"H H H H H H H H H H H H H H H H H H H H H H H H H H H H H H H H H H H H H H H H H H H H H H H H H H H H H H H H H H H H H H H H ",
"H H H H H H H H H H H H H H H H H H H H H H H H H H H H H H H H H H H H H H H H H H H H H H H H H H H H H H H H H H H H H H H H ",
"H H H H H H H H H H D D D S A A Z Z Z Z Z Z Z A A S D D D H H H H H H D D D S A A Z Z Z Z Z Z Z A A S D D D H H H H H H H H H H ",
"H H H H H H H H H H D D S Z N M c c c c c c c M N Z S D D H H H H H H D D S Z N M c c c c c c c M N Z S D D H H H H H H H H H H ",
"H H H H H H H H H D A Z V c z l j g g g g g j l c N Z S D H H D S S S A Z V c z k j g g g j j j l z c V Z S H H H H H H H H H H ",
"H H H H H H H H H W W E I J D Z S S S S S S D H x c N S D H H W Q Q Q W E I J U J D S S S A c M Z D J I E E H H H H H H H H H H ",
"H H H H H H D D H &.=.+.X./ E T ` _ _ _ _ _ ' O.l k c N S S D #.*.&.&.$.O.X. .%.+.` _ _ _ ) J K Y E / X.+.$.H S D D H H H H H H ",
"H H H H H H D D D @.+...~ Y K A               W i s k x M M M  .X...X.../ E T  .Q               Z K Y ~ ..o. .A D D H H H H H H ",
"H H H H H H D S A o.X.~ Y D C n   ( ( ( ( (   U r t i g k k k T R E W W T L D R Y   ( ( ( ( (   b C D Y ~  .! o.R D H H H H H H ",
"H H H H H H S Z B  ./ Y G V k f   ( ( ( ( (   Z 8 6 r y i i u A D K U U K Z C J S   ( ( ( ( (   a k V G Y ^ ^ ) ` S H H H H H H ",
"H H H H H H S N M ^ E K C k a w   ( ( ( ( (   z 2 2 5 9 r r 9 b n V Z A V n l C c   ( ( ( ( (   w a k C K R /  ._ J H H H H H H ",
"H H H H H H A M c T U Z v p q q   ( ( ( ( (   f : : 1 3 5 4 3 p f j z b k f p k g   ( ( ( ( (   7 q p v Z U E / ..~ H H H H H H ",
"H H H H H H Z c z W T             ( ( ( ( (   f ; =                         w g g   ( ( ( ( (             L Y ~  .) H H H H H H ",
"H H H H H H N z l X.!   * * * * * ( ( ( ( (   f ; =   m.m.m.m.m.m.m.m.m.m.  w g g   ( ( ( ( ( * * * * *   H L E  ._ H H H H H H ",
"H H H H H H N l h Q R   * * * * * ( ( ( ( (   f ; =   m.m.m.m.m.m.m.m.m.m.  w g g   ( ( ( ( ( * * * * *   V D Y ^ ..H H H H H H ",
"H H H H H H M k d E P   * * * * * ( ( ( ( (   f ; =   m.m.m.m.m.m.m.m.m.m.  w g g   ( ( ( ( ( * * * * *   m Z U ~ X.H H H H H H ",
"H H H H H H M j i Y D   * * * * * ( ( ( ( (   f ; =   m.m.m.m.m.m.m.m.m.m.  w g g   ( ( ( ( ( * * * * *   z V K R R H H H H H H ",
"H H H H H H c g u H Z   * * * * * ( ( ( ( (           m.m.m.m.m.m.m.m.m.m.          ( ( ( ( ( * * * * *   v n S T N H H H H H H ",
"H H H H H H c g u H Z . * * * * * * * * * * Z.Z.Z.Z.Z.Z.Z.Z.Z.Z.m.m.m.m.m.m.m.m.m.m.* * * * * * * * * *   b n S T c H H H H H H ",
"H H H H H H M j i R J X * * * * * * * * * * Z.Z.Z.Z.Z.Z.Z.Z.Z.Z.m.m.m.m.m.m.m.m.m.m.* * * * * * * * * *   Z V F E M H H H H H H ",
"H H H H H H M k s B x o * * * * * * * * * * Z.Z.Z.Z.Z.Z.Z.Z.Z.Z.m.m.m.m.m.m.m.m.m.m.* * * * * * * * * *   m Z U ~ M H H H H H H ",
"H H H H H H N z d r 5 O * * * * * * * * * * Z.Z.Z.Z.Z.Z.Z.Z.Z.Z.m.m.m.m.m.m.m.m.m.m.* * * * * * * * * *   n D Y ~ N H H H H H H ",
"H H H H H H N x j i r + * * * * * * * * * * Z.Z.Z.Z.Z.Z.Z.Z.Z.Z.m.m.m.m.m.m.m.m.m.m.* * * * * * * * * *   Z K E / N H H H H H H ",
"H H H H H H Z c l d y             m.m.m.m.m.m.m.m.m.m.t.t.t.t.t.t.t.t.t.t.m.m.m.m.m.m.m.m.m.m.            G Y ~  .Z H H H H H H ",
"H H H H H H A M x k i e 3 : - -   m.m.m.m.m.m.m.m.m.m.t.t.t.t.t.t.t.t.t.t.m.m.m.m.m.m.m.m.m.m.  q q t k C L R ~  .A H H H H H H ",
"H H H H H H S N c z g t 5 > - -   m.m.m.m.m.m.m.m.m.m.t.t.t.t.t.t.t.t.t.t.m.m.m.m.m.m.m.m.m.m.  q q a n S T x x N S H H H H H H ",
"H H H H H H S Z M z g y 6 < - =   m.m.m.m.m.m.m.m.m.m.t.t.t.t.t.t.t.t.t.t.m.m.m.m.m.m.m.m.m.m.  w e j V L E c c Z S H H H H H H ",
"H H H H H H S Z M D Z l y 8 < ,   m.m.m.m.m.m.m.m.m.m.t.t.t.t.t.t.t.t.t.t.m.m.m.m.m.m.m.m.m.m.  2 4 r j V G M c Z S H H H H H H ",
"H H H H H H S Z N  .Q L V j e w   m.m.m.m.m.t.t.t.t.t.                    t.t.t.t.t.m.m.m.m.m.  = - < 6 y j c M Z S H H H H H H ",
"H H H H H H S Z N / W K m g e q   b.b.b.b.b.r.r.r.r.r.                    r.r.r.r.r.b.b.b.b.b.  - ; 1 8 u k x M Z S H H H H H H ",
"H H H H H H S N M ^ R S n a q q   v.v.v.v.v.e.e.e.e.e.                    e.e.e.e.e.v.v.v.v.v.  - - > 5 t g z c N S H H H H H H ",
"H H H H H H A M c R Y C k t q q   c.c.c.c.c.w.w.w.w.w.                    w.w.w.w.w.c.c.c.c.c.  - - : 3 e i k x M A H H H H H H ",
"H H H H H H Z c z Y K             s.s.s.s.s.q.q.q.q.q.                    q.q.q.q.q.s.s.s.s.s.            y d l c Z H H H H H H ",
"H H H H H H N x k K A   0.0.0.0.0.a.a.a.a.a.                                        a.a.a.a.a.0.0.0.0.0.  r i j x N H H H H H H ",
"H H H H H H N z d A m   9.9.9.9.9.p.p.p.p.p.                                        p.p.p.p.p.9.9.9.9.9.  5 t d z N H H H H H H ",
"H H H H H H M l s D Z   3.3.3.3.3.i.i.i.i.i.                                        i.i.i.i.i.3.3.3.3.3.  i r i l M H H H H H H ",
"H H H H H H M j i T D   2.2.2.2.2.u.u.u.u.u.                                        u.u.u.u.u.2.2.2.2.2.  S 0 t k M H H H H H H ",
"H H H H H H c g u H Z   1.1.1.1.1.y.y.y.y.y.                                        y.y.y.y.y.1.1.1.1.1.  g f p g c H H H H H H ",
"H H H H H H c s y D M   | | | | | n.n.n.n.n.          & & & & & & & & & &           n.n.n.n.n.| | | | |   p k C d c H H H H H H ",
"H H H H H H c s t D c   } } } } } x.x.x.x.x.          % % % % % % % % % %           x.x.x.x.x.} } } } }   p l V d c H H H H H H ",
"H H H H H H c s t D c   { { { { { z.z.z.z.z.          $ $ $ $ $ $ $ $ $ $           z.z.z.z.z.{ { { { {   p l C d c H H H H H H ",
"H H H H H H c s t D M   [ [ [ [ [ l.l.l.l.l.          # # # # # # # # # #           l.l.l.l.l.[ [ [ [ [   p l Z d c H H H H H H ",
"H H H H H H c s y C l   ] ] ] ] ] k.k.k.k.k.          @ @ @ @ @ @ @ @ @ @           k.k.k.k.k.] ] ] ] ]   p l Z d c H H H H H H ",
"H H H H H H c g y v a   8.8.8.8.8.j.j.j.j.j.C.C.C.C.C.G.G.G.G.G.G.G.G.G.G.C.C.C.C.C.j.j.j.j.j.8.8.8.8.8.  p n A g c H H H H H H ",
"H H H H H H M k u m k   7.7.7.7.7.h.h.h.h.h.V.V.V.V.V.F.F.F.F.F.F.F.F.F.F.V.V.V.V.V.h.h.h.h.h.7.7.7.7.7.  j V G k M H H H H H H ",
"H H H H H H M l s Z n   6.6.6.6.6.g.g.g.g.g.B.B.B.B.B.D.D.D.D.D.D.D.D.D.D.B.B.B.B.B.g.g.g.g.g.6.6.6.6.6.  b Z G l M H H H H H H ",
"H H H H H H N z d S C   5.5.5.5.5.f.f.f.f.f.N.N.N.N.N.S.S.S.S.S.S.S.S.S.S.N.N.N.N.N.f.f.f.f.f.5.5.5.5.5.  V D A z N H H H H H H ",
"H H H H H H N x k K S   4.4.4.4.4.d.d.d.d.d.M.M.M.M.M.A.A.A.A.A.A.A.A.A.A.M.M.M.M.M.d.d.d.d.d.4.4.4.4.4.  Z K v x N H H H H H H ",
"H H H H H H Z c z Y L                                                                                     G d k c Z H H H H H H ",
"H H H H H H H H J *.-.=.=.=.=.-.>.,.,.,.,.,.,.>.-.=.=.=.=.=.*.J D H H H H D P :.<.,.,.,.,.:.-.=.*.*.=.=.=.*.J D H H H H H H H H ",
"H H H H H H H H J X.o.X.X.X.X.o.=.-.-.-.-.-.-.=.o.X.X.X.X.X.X.J D H H H H D J =.;.-.-.=.=.*.&.&.*.*.&.&.&.#.J D H H H H H H H H ",
"H H H H H H H H H D D D D D D D S S S S S S S S D D D D D D D H H H H H H H H S S S S $.*.&.*.*.*.&.D D D D H H H H H H H H H H ",
"H H H H H H H H H H H H H H H H H H H H H H H H H H H H H H H H H H H H H H H H H H H R *.&.*.*.*.+.H H H H H H H H H H H H H H ",
"H H H H H H H H H H H H H H H H H H H H H H H H H H H H H H H H H H H H H H H H H H H H &.*.*.*.*.O.H H H H H H H H H H H H H H ",
"H H H H H H H H H H H H H H H H H H H H H H H H H H H H H H H H H H H H H H H H H H H H H H T W  .P H H H H H H H H H H H H H H ",
"H H H H H H H H H H H H H H H H H H H H H H H H H H H H H H H H H H H H H H H H H H H H H H H H H H H H H H H H H H H H H H H H ",
"H H H H H H H H H H H H H H H H H H H H H H H H H H H H H H H H H H H H H H H H H H H H H H H H H H H H H H H H H H H H H H H H ",
"H H H H H H H H H H H H H H H H H H H H H H H H H H H H H H H H H H H H H H H H H H H H H H H H H H H H H H H H H H H H H H H H ",
"H H H H H H H H H H H H H H H H H H H H H H H H H H H H H H H H H H H H H H H H H H H H H H H H H H H H H H H H H H H H H H H H ",
"H H H H H H H H H H H H H H H H H H H H H H H H H H H H H H H H H H H H H H H H H H H H H H H H H H H H H H H H H H H H H H H H "
};
