/* XPM */
static char *result[] = {
/* columns rows colors chars-per-pixel */
"64 64 151 2 ",
"   c black",
".  c #140009",
"X  c #16000B",
"o  c #17000C",
"O  c #18000D",
"+  c #19000E",
"@  c #1B0010",
"#  c #1C0111",
"$  c #1D0212",
"%  c #1E0313",
"&  c #200515",
"*  c #2C1121",
"=  c #520A0A",
"-  c #530A0A",
";  c #540A0A",
":  c #560A0A",
">  c #580A0A",
",  c #580B0B",
"<  c #590B0B",
"1  c #5A0B0B",
"2  c #5B0B0B",
"3  c #5C0B0B",
"4  c #5D0B0B",
"5  c #5E0B0B",
"6  c #5F0B0B",
"7  c #5F0C0C",
"8  c #600B0B",
"9  c #610B0B",
"0  c #620B0B",
"q  c #600C0C",
"w  c #610C0C",
"e  c #620C0C",
"r  c #630C0C",
"t  c #640C0C",
"y  c #650C0C",
"u  c #660C0C",
"i  c #670C0C",
"p  c #660D0D",
"a  c #670D0D",
"s  c #680C0C",
"d  c #690C0C",
"f  c #680D0D",
"g  c #690D0D",
"h  c #6A0C0C",
"j  c #6A0D0D",
"k  c #6B0D0D",
"l  c #6C0D0D",
"z  c #6D0D0D",
"x  c #6E0D0D",
"c  c #6F0D0D",
"v  c #6C0E0E",
"b  c #6D0E0E",
"n  c #6E0E0E",
"m  c #6F0E0E",
"M  c #700D0D",
"N  c #710D0D",
"B  c #720D0D",
"V  c #700E0E",
"C  c #710E0E",
"Z  c #720E0E",
"A  c #730E0E",
"S  c #740E0E",
"D  c #750E0E",
"F  c #740F0F",
"G  c #750F0F",
"H  c #760E0E",
"J  c #770E0E",
"K  c #760F0F",
"L  c #770F0F",
"P  c #780E0E",
"I  c #790E0E",
"U  c #780F0F",
"Y  c #790F0F",
"T  c #7A0F0F",
"R  c #7B0F0F",
"E  c #7C0F0F",
"W  c #7D0F0F",
"Q  c #7E0F0F",
"!  c #7F0F0F",
"~  c #7D1010",
"^  c #7E1010",
"/  c #7F1010",
"(  c #701622",
")  c #87030F",
"_  c #800F0F",
"`  c #810F0F",
"'  c #820F0F",
"]  c #840F0F",
"[  c #890511",
"{  c #8A0612",
"}  c #8B0713",
"|  c #8C0814",
" . c #8E0A16",
".. c #8F0B17",
"X. c #900C18",
"o. c #910D19",
"O. c #930F1B",
"+. c #801010",
"@. c #811010",
"#. c #821010",
"$. c #831010",
"%. c #841010",
"&. c #851010",
"*. c #851111",
"=. c #861111",
"-. c #871111",
";. c #881010",
":. c #881111",
">. c #891111",
",. c #8A1111",
"<. c #8B1111",
"1. c #8C1111",
"2. c #961212",
"3. c #971212",
"4. c #981212",
"5. c #991212",
"6. c #B3151F",
"7. c #B41620",
"8. c #B51721",
"9. c #B61822",
"0. c #B81A24",
"q. c #B91B25",
"w. c #BA1C26",
"e. c #BB1D27",
"r. c #BD1F29",
"t. c #BE202A",
"y. c #BF212B",
"u. c #C0222C",
"i. c #C2242E",
"p. c #C3252F",
"a. c #C42630",
"s. c #E03521",
"d. c #E13622",
"f. c #E23723",
"g. c #E43925",
"h. c #E53A26",
"j. c #E63B27",
"k. c #E73C28",
"l. c #E93E2A",
"z. c #EA3F2B",
"x. c #EB402C",
"c. c #FA832D",
"v. c #FB842E",
"b. c #FD8630",
"n. c #FE8731",
"m. c #FF8832",
"M. c #F4D84E",
"N. c #F5D94F",
"B. c #F6DA50",
"V. c #F8DC52",
"C. c #F9DD53",
/* pixels */
"H H H H H H H H H H H H H H H H H H H H H H H H H H H H H H H H H H H H H H H H H H H H H H H H H H H H H H H H H H H H H H H H ",
"H H H H H H H H H H H H H H H H H H H H H H H H H H H H H H H H H H H H H H H H H H H H H H H H H H H H H H H H H H H H H H H H ",
"H H H H H H H H H H H H H H H H H H H H H H H H H H H H H H H H H H H H H H H H H H H H H H H H H H H H H H H H H H H H H H H H ",
"H H H H H H H H H H H H H H H H H H H H H H H H H H H H H H H H H H H H H H H H H H H H H H H H H H H H H H H H H H H H H H H H ",
"H H H H H H H H H H H H H H H H H H H H H H H H H H H H H H H H H H H H H H H H H H H H H H H H H H H H H H H H H H H H H H H H ",
"H H H H H H H H H H H H H H H H H H H H H H H H H H H H H H H H H H H H H H H H H H H H H H H H H H H H H H H H H H H H H H H H ",
"H H H H H H H H H H D D D S A A Z Z Z Z Z Z Z A A S D D D H H H H H H D D D S A A Z Z Z Z Z Z Z A A S D D D H H H H H H H H H H ",
"H H H H H H H H H H D D S Z N M c c c c c c c M N Z S D D H H H H H H D D S Z N M c c c c c c c M N Z S D D H H H H H H H H H H ",
"H H H H H H H H H D A Z V c z l j g g g g g j l c N Z S D H H D S S S A Z V c z k j g g g j j j l z c V Z S H H H H H H H H H H ",
"H H H H H H H H H W W E I J D Z S S S S S S D H x c N S D H H W Q Q Q W E I J U J D S S S A c M Z D J I E E H H H H H H H H H H ",
"H H H H H H D D H :.,.&.#./ E T ' ` ` ` ` ` ] %.l k c N S S D =.>.:.:.-.%.#.+.;.&.' ` ` ` _ J K Y E / #.&.-.H S D D H H H H H H ",
"H H H H H H D D D *.&.@.~ Y K A               W i s k x M M M +.#.@.#.@./ E T +.Q               Z K Y ~ @.$.+.A D D H H H H H H ",
"H H H H H H D S A $.#.~ Y D C n   ( ( ( ( (   U r t i g k k k T R E W W T L D R Y   ( ( ( ( (   b C D Y ~ +.! $.R D H H H H H H ",
"H H H H H H S Z B +./ Y G V k f   ( ( ( ( (   Z 8 6 r y i i u A D K U U K Z C J S   ( ( ( ( (   a k V G Y ^ ^ _ ' S H H H H H H ",
"H H H H H H S N M ^ E K C k a w   ( ( ( ( (   z 2 2 5 9 r r 9 b n V Z A V n l C c   ( ( ( ( (   w a k C K R / +.` J H H H H H H ",
"H H H H H H A M c T U Z v p q q   ( ( ( ( (   f : : 1 3 5 4 3 p f j z b k f p k g   ( ( ( ( (   7 q p v Z U E / @.~ H H H H H H ",
"H H H H H H Z c z W T             ( ( ( ( (   f ; =                         w g g   ( ( ( ( (             L Y ~ +._ H H H H H H ",
"H H H H H H N z l #.!   * * * * * ( ( ( ( (   f ; =   a.a.a.a.a.a.a.a.a.a.  w g g   ( ( ( ( ( * * * * *   H L E +.` H H H H H H ",
"H H H H H H N l h Q R   * * * * * ( ( ( ( (   f ; =   a.a.a.a.a.a.a.a.a.a.  w g g   ( ( ( ( ( * * * * *   V D Y ^ @.H H H H H H ",
"H H H H H H M k d E P   * * * * * ( ( ( ( (   f ; =   a.a.a.a.a.a.a.a.a.a.  w g g   ( ( ( ( ( * * * * *   m Z U ~ #.H H H H H H ",
"H H H H H H M j i Y D   * * * * * ( ( ( ( (   f ; =   a.a.a.a.a.a.a.a.a.a.  w g g   ( ( ( ( ( * * * * *   z V K R R H H H H H H ",
"H H H H H H c g u H Z   * * * * * ( ( ( ( (           a.a.a.a.a.a.a.a.a.a.          ( ( ( ( ( * * * * *   v n S T N H H H H H H ",
"H H H H H H c g u H Z   * * * * * * * * * * x.x.x.x.x.x.x.x.x.x.a.a.a.a.a.a.a.a.a.a.* * * * * * * * * *   b n S T c H H H H H H ",
"H H H H H H M j i R J   * * * * * * * * * * x.x.x.x.x.x.x.x.x.x.a.a.a.a.a.a.a.a.a.a.* * * * * * * * * *   Z V F E M H H H H H H ",
"H H H H H H M k s B x   * * * * * * * * * * x.x.x.x.x.x.x.x.x.x.a.a.a.a.a.a.a.a.a.a.* * * * * * * * * *   m Z U ~ M H H H H H H ",
"H H H H H H N z d r 5   * * * * * * * * * * x.x.x.x.x.x.x.x.x.x.a.a.a.a.a.a.a.a.a.a.* * * * * * * * * *   n D Y ~ N H H H H H H ",
"H H H H H H N x j i r   * * * * * * * * * * x.x.x.x.x.x.x.x.x.x.a.a.a.a.a.a.a.a.a.a.* * * * * * * * * *   Z K E / N H H H H H H ",
"H H H H H H Z c l d y             a.a.a.a.a.a.a.a.a.a.x.x.x.x.x.x.x.x.x.x.a.a.a.a.a.a.a.a.a.a.            G Y ~ +.Z H H H H H H ",
"H H H H H H A M x k i e 3 : - -   a.a.a.a.a.a.a.a.a.a.x.x.x.x.x.x.x.x.x.x.a.a.a.a.a.a.a.a.a.a.  q q t k C L R ~ +.A H H H H H H ",
"H H H H H H S N c z g t 5 > - -   a.a.a.a.a.a.a.a.a.a.x.x.x.x.x.x.x.x.x.x.a.a.a.a.a.a.a.a.a.a.  q q a n S T x x N S H H H H H H ",
"H H H H H H S Z M z g y 6 < - =   a.a.a.a.a.a.a.a.a.a.x.x.x.x.x.x.x.x.x.x.a.a.a.a.a.a.a.a.a.a.  w e j V L E c c Z S H H H H H H ",
"H H H H H H S Z M D Z l y 8 < ,   a.a.a.a.a.a.a.a.a.a.x.x.x.x.x.x.x.x.x.x.a.a.a.a.a.a.a.a.a.a.  2 4 r j V G M c Z S H H H H H H ",
"H H H H H H S Z N +.Q L V j e w   a.a.a.a.a.x.x.x.x.x.m.m.m.m.m.          x.x.x.x.x.a.a.a.a.a.  = - < 6 y j c M Z S H H H H H H ",
"H H H H H H S Z N / W K m g e q   p.p.p.p.p.z.z.z.z.z.n.n.n.n.n.          z.z.z.z.z.p.p.p.p.p.  - ; 1 8 u k x M Z S H H H H H H ",
"H H H H H H S N M ^ R S n a q q   i.i.i.i.i.l.l.l.l.l.b.b.b.b.b.          l.l.l.l.l.i.i.i.i.i.  - - > 5 t g z c N S H H H H H H ",
"H H H H H H A M c R Y C k t q q   u.u.u.u.u.k.k.k.k.k.v.v.v.v.v.          k.k.k.k.k.u.u.u.u.u.  - - : 3 e i k x M A H H H H H H ",
"H H H H H H Z c z Y K             y.y.y.y.y.j.j.j.j.j.c.c.c.c.c.          j.j.j.j.j.y.y.y.y.y.            y d l c Z H H H H H H ",
"H H H H H H N x k K A   t.t.t.t.t.h.h.h.h.h.          C.C.C.C.C.                    h.h.h.h.h.t.t.t.t.t.  r i j x N H H H H H H ",
"H H H H H H N z d A m   r.r.r.r.r.g.g.g.g.g.          V.V.V.V.V.                    g.g.g.g.g.r.r.r.r.r.  5 t d z N H H H H H H ",
"H H H H H H M l s D Z   e.e.e.e.e.f.f.f.f.f.          B.B.B.B.B.                    f.f.f.f.f.e.e.e.e.e.  i r i l M H H H H H H ",
"H H H H H H M j i T D   w.w.w.w.w.d.d.d.d.d.          N.N.N.N.N.                    d.d.d.d.d.w.w.w.w.w.  S 0 t k M H H H H H H ",
"H H H H H H c g u H Z   q.q.q.q.q.s.s.s.s.s.          M.M.M.M.M.                    s.s.s.s.s.q.q.q.q.q.  g f p g c H H H H H H ",
"H H H H H H c s y D M   O.O.O.O.O.0.0.0.0.0.          & & & & & & & & & &           0.0.0.0.0.O.O.O.O.O.  p k C d c H H H H H H ",
"H H H H H H c s t D c   o.o.o.o.o.9.9.9.9.9.          % % % % % % % % % %           9.9.9.9.9.o.o.o.o.o.  p l V d c H H H H H H ",
"H H H H H H c s t D c   X.X.X.X.X.8.8.8.8.8.          $ $ $ $ $ $ $ $ $ $           8.8.8.8.8.X.X.X.X.X.  p l C d c H H H H H H ",
"H H H H H H c s t D M   ..........7.7.7.7.7.          # # # # # # # # # #           7.7.7.7.7...........  p l Z d c H H H H H H ",
"H H H H H H c s y C l    . . . . .6.6.6.6.6.          @ @ @ @ @ @ @ @ @ @           6.6.6.6.6. . . . . .  p l Z d c H H H H H H ",
"H H H H H H c g y v a   | | | | | | | | | | + + + + + + + + + + + + + + + + + + + + | | | | | | | | | |   p n A g c H H H H H H ",
"H H H H H H M k u m k   } } } } } } } } } } O O O O O O O O O O O O O O O O O O O O } } } } } } } } } }   j V G k M H H H H H H ",
"H H H H H H M l s Z n   { { { { { { { { { { o o o o o o o o o o o o o o o o o o o o { { { { { { { { { {   b Z G l M H H H H H H ",
"H H H H H H N z d S C   [ [ [ [ [ [ [ [ [ [ X X X X X X X X X X X X X X X X X X X X [ [ [ [ [ [ [ [ [ [   V D A z N H H H H H H ",
"H H H H H H N x k K S   ) ) ) ) ) ) ) ) ) ) . . . . . . . . . . . . . . . . . . . . ) ) ) ) ) ) ) ) ) )   Z K v x N H H H H H H ",
"H H H H H H Z c z Y L                                                                                     G d k c Z H H H H H H ",
"H H H H H H H H J >.<.,.,.,.,.<.3.4.4.4.4.4.4.3.<.,.,.,.,.,.>.J D H H H H D P 2.5.4.4.4.4.2.<.,.>.>.,.,.,.>.J D H H H H H H H H ",
"H H H H H H H H J #.$.#.#.#.#.$.,.<.<.<.<.<.<.,.$.#.#.#.#.#.#.J D H H H H D J ,.1.<.<.,.,.>.:.:.>.>.:.:.:.=.J D H H H H H H H H ",
"H H H H H H H H H D D D D D D D S S S S S S S S D D D D D D D H H H H H H H H S S S S -.>.:.>.>.>.:.D D D D H H H H H H H H H H ",
"H H H H H H H H H H H H H H H H H H H H H H H H H H H H H H H H H H H H H H H H H H H R >.:.>.>.>.&.H H H H H H H H H H H H H H ",
"H H H H H H H H H H H H H H H H H H H H H H H H H H H H H H H H H H H H H H H H H H H H :.>.>.>.>.%.H H H H H H H H H H H H H H ",
"H H H H H H H H H H H H H H H H H H H H H H H H H H H H H H H H H H H H H H H H H H H H H H T W +.P H H H H H H H H H H H H H H ",
"H H H H H H H H H H H H H H H H H H H H H H H H H H H H H H H H H H H H H H H H H H H H H H H H H H H H H H H H H H H H H H H H ",
"H H H H H H H H H H H H H H H H H H H H H H H H H H H H H H H H H H H H H H H H H H H H H H H H H H H H H H H H H H H H H H H H ",
"H H H H H H H H H H H H H H H H H H H H H H H H H H H H H H H H H H H H H H H H H H H H H H H H H H H H H H H H H H H H H H H H ",
"H H H H H H H H H H H H H H H H H H H H H H H H H H H H H H H H H H H H H H H H H H H H H H H H H H H H H H H H H H H H H H H H ",
"H H H H H H H H H H H H H H H H H H H H H H H H H H H H H H H H H H H H H H H H H H H H H H H H H H H H H H H H H H H H H H H H "
};
