/* XPM */
static char *_66029c2ba204f1f96a4185343fb2c1bbVN5Mxy8IB9MuYEH[] = {
/* columns rows colors chars-per-pixel */
"64 64 73 1 ",
"  c #0C0C0C",
". c #530A0A",
"X c #540A0A",
"o c #590B0B",
"O c #5B0B0B",
"+ c #5F0B0B",
"@ c #5E0C0C",
"# c #630B0B",
"$ c #630C0C",
"% c #640C0C",
"& c #670C0C",
"* c #680D0D",
"= c #6A0C0C",
"- c #6C0D0D",
"; c #6D0D0D",
": c #6D0E0E",
"> c #700D0D",
", c #720E0E",
"< c #740F0F",
"1 c #760E0E",
"2 c #770F0F",
"3 c #7B0F0F",
"4 c #7C0F0F",
"5 c #7D1010",
"6 c #7E1010",
"7 c #800F0F",
"8 c #820F0F",
"9 c #811010",
"0 c #851010",
"q c #891111",
"w c #8A1010",
"e c #8C1111",
"r c #8E1111",
"t c #921212",
"y c #961212",
"u c #991212",
"i c gray51",
"p c #838383",
"a c gray53",
"s c #888888",
"d c #8B8B8B",
"f c gray55",
"g c gray56",
"h c #909090",
"j c #929292",
"k c gray59",
"l c #979797",
"z c #9A9A9A",
"x c gray61",
"c c #9D9D9D",
"v c #A0A0A0",
"b c gray63",
"n c #A4A4A4",
"m c gray65",
"M c #AFAFAF",
"N c #B2B2B2",
"B c gray70",
"V c #B4B4B4",
"C c #B7B7B7",
"Z c gray72",
"A c gray73",
"S c gray",
"D c #C0C0C0",
"F c gray76",
"G c #C3C3C3",
"H c #C5C5C5",
"J c gray78",
"K c gray79",
"L c gray80",
"P c #CDCDCD",
"I c gray81",
"U c #D2D2D2",
"Y c LightGray",
/* pixels */
"1111111111111111111111111111111111111111111111111111111111111111",
"1111111111111111111111111111111111131111111111111111111111111111",
"11111111111111111111111411,11,,1,1,11111111111111111111111111111",
"1111111111111111111111,*,--=--*%----,-,1111111111111111111111111",
"111111111111111111131,,%===&&&=&****=%1,111111111111111111111111",
"111111111111111111,*-**$#OO+X.OOOoo$##=*-,,111111111111111111111",
"11111111111111113,1%*%#O.XO.XOXXXXXXO+&&%--111111111111111111111",
"111111111111111,**%#$X YYYYYYYYYnnmnnn O$%**-,111111111111111111",
"111111111111,,,-=#+O.. YYYYYYYYYmmmmmm XXo@%--,,,1,1,11111111111",
"11111111134441,-*-+@$@ YYYYYYYYYmmmmmm $$@@%-,113846661111111111",
"111111111qeq0611       YYYYYYYYYmmmmmm       6660qqqqq1111111111",
"111111111qq96,*#YYYYYYYYYYmmmYYYYYYYYYmmmmmn --2600qqq9111111111",
"111111111q063-$%YYYYYYYYYYmmmYYYYYYYYYmmmmmm -*-600qqq0q61111111",
"1111111110961   YYYYYYYYYYmmmYYYYYYYYYmmmmmm    ,69qqq0091111111",
"11111111196,-YYYYYYmmmmYYYmmmYYYmmmYYYYYYmmmmmmm%660qqq0q3111111",
"11111111166-%YYYYYYmmmmYYYmmmYYYmmmYYYYYYmmmmmmm%,690qqqq8111111",
"11111111183--YYYYYYmmmmYYYmmmYYYmmmYYYYYYmmmmmmm*,30qeqqq0111111",
"11111111184-=YYYYYYmmmmYYYmmmYYYmmmYYYYYYmmmmmmm-68qteqqq0111111",
"1111111,136--YYYnmmmmmmYYYmmmYYYmmmmmmYYYmmmmmmm--10eqqqqq311111",
"1111111,*3,--YYYmmmmmmmYYYmmmYYYmmmmmmYYYmmmmmmm--,0q0qqqq111111",
"111111,**    YYYmmmmmmmYYYmmmYYYmmmmmmYYYmmmmmmm   69qqq08111111",
"1111111-% YYYYYYYYYYYYYYYYmmmYYYYYYYYYYYYYYYmmmmnnn160qqq1111111",
"111111,%% YYYYYYYYYYYYYYYYmmmYYYYYYYYYYYYYYYmmmmmmm2600qq1111111",
"1111111*% YYYYYYYYYYYYYYYYmmmYYYYYYYYYYYYYYYmmmmmmm23400q1111111",
"11111,*=# YYYmmmmmmmmmmmmmmmmmmmmmmmmmmmmYYYmmmmmmm*,600q1111111",
"111111-=+ YYYmmmmmmmmmmmmmmmmmmmmmmmmmmmmYYYmmmmmmm%*69qq1111111",
"11111,-=O YYYmnnmmmmmmmmmmmmmmmmmmmmmmmmmYYYmmmmmmm%-69q01111111",
"111113-*+ YYYmmnmmmmmmmmmmmmmmmmmmmmmmmmmYYYmmmmmmn%%39qq1111111",
"111111--+ YYYYYYYYYYYYYYYYmmmYYYYYYYYYYYYYYYmmmmmmm%*690q1111111",
"11111,,*+ YYYYYYYYYYYYYYYYmmmYYYYYYYYYYYYYYYmmmmmmm*,51,11111111",
"111111,-# YYYYYYYYYYYYYYYYmmmYYYYYYYYYYYYYYYmmmmmmm-16,111111111",
"111111,,&    YYYmmmmmmmYYYmmmYYYmmmmmmYYYmmmmmmm   -,61111111111",
"1111111,*,%$&IYInmmnnnnYYYmnbYIYmmnmnmYYYnnmnmmmXX$%-11111111111",
"1111111,-5-##YYYnmbnnnbYYYbnbYYYnmnnnnYIYnnnmbnnXX$*-,1111111111",
"11111111,6,&#LYLIIYbbbbIIIbbbYYLbbnIIIIIIbbbbbbn.O#*-11111111111",
"11111111,54&#IILIIIbbbbLILbbbLLIbbbIIILIIbbbbbbbX&*-,11111111111",
"11111111193,%ILLILIxbbvIILxbbIILvbxLLILLIbvbvvvvO&*,111111111111",
"11111111196,=IILLLLbxvvLLLxbxLLLxbbILLLLIxvxvxvx+=*1111111111111",
"1111111110033###LLLJJLLLLLxxxLJLLLJJLJxxxxxx X..#--1,11111111111",
"111111114eq93,&=JJJLJLJJJLxxzLJJLJLJLLxxxxxz #+#,148883111111111",
"111111113turw4,-JLJJLJJJJLzzzJJLJJJJJJxxxzxz -,38tttut1,11111111",
"111111114ttrw81,       JJJJJJJJJzzzzxx       -318etuuq9611111111",
"1111111,1ttte83,=-1-*1 JJFJJJGJFlzllll *----,=>18qett0q011111111",
"111111114ttqw81,=**--- FJFFGFJFJllllll *--,-=>=>88qeeqq011111111",
"111111111wq881,-FFFFFFFJFFGGGGFFGGFFFGkkljljllll-138880011111111",
"1111111,,q883,-=FFFFFFFFFFFFFFFFFFFFFFkkjlllljjl,-,38399,1111111",
"111111,-*43%=&==FDDDDDDDSFSFFSDDFSFFFFjjjljjjjjl&&%**-13-,111111",
"11111,,-&       DDDSDSDDSFSSSFDSSFSSSSjjjjjjjjjj      ,1-,111111",
"11111,-%# SSSSSSSSSjjgjjjjjgjjjjgjjSSSSSSSSSjjjjhjhjhh&-$-111111",
"1111,-%$X SSSZSSSDSgjggjggjggggggjgDSDZSSDZSgggghhhghh#$$%*11111",
"1111,*$@X SFSSZSDZAjgjgjjjggjjggggjAZDDSZDDSggjggggghh#+o#%11111",
"111,*% ZZZZZZSZZAAAAZZZZCZZCAZZSZZAZZZAAZZAZZZZDgffgfffgj %-,111",
"111-*& ZSZZZZZZZZZZZZZZZZZZZZZZZZAZAZZZZZZZAZZZZdddfffdfd *-*111",
"111,&+ ZVZZZZZZZZZZZZZZZZZZZZZZZZZZZZZZZZZZZZZZZddddddddd +*1111",
"11,-#+ CZZZZVVZZVZZVZZVZZCCVZVZVZVZZVZZVZZZZZZCZddddddddd +%*111",
"111-#O NVVVVVdadadaaagaadadagadaaaagadaagVVVVVVVasaaasaaa #--,11",
"113-$+ NVVNVVaaaaaaaaaaaaaaaaaaaaaaaaaaaaBBVVVBVaaaaaaaaa +&-,11",
"111-$$ NVVNNVaaaaaaaapaaaaaaaaaaaaaaaaapaBBBBBBNaaaaaaaaa #=-111",
"111*$+ NVNNNNNNNNNNNNNNNNNNNNNNNNNNNNNNNNNNNNNNNiaapiaaia +*-111",
"111,$$ MNNNMNMMMMNMMMMMNMMMMMMMMMMNMNMMMMNMMNMMNiipiiiiii #*,111",
"111,*= MMMMMMMMMMMMMMMMMMMMMMMMMMMMMMMMMMMMMMMMMiiiiiiiii =-,111",
"111,,*                                                    =,,111",
"1111111111111111111111111111111111111111111111111111111111111111",
"1111111111111111111111111111111111111111111111111111111111111111"
};
