/* XPM */
static char *result[] = {
/* columns rows colors chars-per-pixel */
"64 64 5 1 ",
"  c #D44A00",
". c #E85000",
"X c #FF5B05",
"o c #BD4200",
"O c #CC4700",
/* pixels */
"    ......XXXXXXX......      oooooo                   ......XXXX",
"    ......XXXXXXX......      oooooo                   ......XXXX",
"    ......XXXXXXX......      oooooo                   ......XXXX",
"    ......XXXXXXX......      oooooo                   ......XXXX",
"    ......XXXXXXX......      oooooo                   ......XXXX",
"oooo      .......            .............      oooooo      ....",
"oooo      .......            .............      oooooo      ....",
"oooo      .......            .............      oooooo      ....",
"oooo      .......            .............      oooooo      ....",
"oooo      .......            .............      oooooo      ....",
"oooo      .......            .............      oooooo      ....",
"oooo      .......            .............      oooooo      ....",
"                       ......XXXXXXXXXXXXX......                ",
"                       ......XXXXXXXXXXXXX......                ",
"                       ......XXXXXXXXXXXXX......                ",
"                       ......XXXXXXXXXXXXX......                ",
"                       ......XXXXXXXXXXXXX......                ",
"                       ......XXXXXXXXXXXXX......                ",
"    ......       oooooo      .............            ......    ",
"    ......       oooooo      .............            ......    ",
"    ......       oooooo      .............            ......    ",
"    ......       oooooo      .............            ......    ",
"    ......       oooooo      .............            ......    ",
"    ......       oooooo      .............            ......    ",
"....XXXXXX.......      OOOOOO                   ......XXXXXX....",
"....XXXXXX.......      OOOOOO                   ......XXXXXX....",
"....XXXXXX.......      OOOOOO                   ......XXXXXX....",
"....XXXXXX.......      OOOOOO                   ......XXXXXX....",
"....XXXXXX.......      OOOOOO                   ......XXXXXX....",
"....XXXXXX.......      OOOOOO                   ......XXXXXX....",
"    ......OOOOOOOOOOOOO......OOOOOOOOOOOOO......      ......OOOO",
"    ......OOOOOOOOOOOOO......OOOOOOOOOOOOO......      ......OOOO",
"    ......OOOOOOOOOOOOO......OOOOOOOOOOOOO......      ......OOOO",
"    ......OOOOOOOOOOOOO......OOOOOOOOOOOOO......      ......OOOO",
"    ......OOOOOOOOOOOOO......OOOOOOOOOOOOO......      ......OOOO",
"    ......OOOOOOOOOOOOO......OOOOOOOOOOOOO......      ......OOOO",
"    ......OOOOOOOOOOOOO......OOOOOOOOOOOOO......      ......OOOO",
"....             ......XXXXXX.............XXXXXX......          ",
"....             ......XXXXXX.............XXXXXX......          ",
"....             ......XXXXXX.............XXXXXX......          ",
"....             ......XXXXXX.............XXXXXX......          ",
"....             ......XXXXXX.............XXXXXX......          ",
"....             ......XXXXXX.............XXXXXX......          ",
"          .......      ......             ......            ....",
"          .......      ......             ......            ....",
"          .......      ......             ......            ....",
"          .......      ......             ......            ....",
"          .......      ......             ......            ....",
"          .......      ......             ......            ....",
"    ......XXXXXXX......      oooooo                   ......XXXX",
"    ......XXXXXXX......      oooooo                   ......XXXX",
"    ......XXXXXXX......      oooooo                   ......XXXX",
"    ......XXXXXXX......      oooooo                   ......XXXX",
"    ......XXXXXXX......      oooooo                   ......XXXX",
"    ......XXXXXXX......      oooooo                   ......XXXX",
"oooo      .......            .............      oooooo      ....",
"oooo      .......            .............      oooooo      ....",
"oooo      .......            .............      oooooo      ....",
"oooo      .......            .............      oooooo      ....",
"oooo      .......            .............      oooooo      ....",
"oooo      .......            .............      oooooo      ....",
"oooo      .......            .............      oooooo      ....",
"                       ......XXXXXXXXXXXXX......                ",
"                       ......XXXXXXXXXXXXX......                "
};
