/* XPM */
static char *result[] = {
/* columns rows colors chars-per-pixel */
"64 64 18 1 ",
"  c #FF5B05",
". c #E85000",
"X c #D44A00",
"o c #CC4700",
"O c #BD4200",
"+ c #CE4800",
"@ c #CF4800",
"# c #D04800",
"$ c #D14800",
"% c #D24900",
"& c #CD4800",
"* c #D14900",
"= c #D34A00",
"- c #E34E00",
"; c #CD4700",
": c #DE4D00",
"> c #DC4C00",
", c #E24E00",
/* pixels */
"     .......XXXXXXXXXXXX......oooooooXXXXXX......      .......XX",
"     .......XXXXXXXXXXXX......oooooooXXXXXX......      .......XX",
"     .......XXXXXXXXXXXX......oooooooXXXXXX......      .......XX",
"     .......XXXXXXXXXXXX......oooooooXXXXXX......      .......XX",
".....XXXXXXXXXXXXX......      .......XXXXXXXXXXXX......XXXXXXXXX",
".....XXXXXXXXXXXXX......      .......XXXXXXXXXXXX......XXXXXXXXX",
".....XXXXXXXXXXXXX......      .......XXXXXXXXXXXX......XXXXXXXXX",
".....XXXXXXXXXXXXX......      .......XXXXXXXXXXXX......XXXXXXXXX",
".....XXXXXXXXXXXXX......      .......XXXXXXXXXXXX......XXXXXXXXX",
".....XXXXXXXXXXXXX......      .......XXXXXXXXXXXX......XXXXXXXXX",
"XXXXXOOOOOOOXXXXXXXXXXXX......XXXXXXX......XXXXXXXXXXXXOOOOOOOXX",
"XXXXXOOOOOOOXXXXXXXXXXXX......XXXXXXX......XXXXXXXXXXXXOOOOOOOXX",
"XXXXXOOOOOOOXXXXXXXXXXXX......XXXXXXX......XXXXXXXXXXXXOOOOOOOXX",
"XXXXXOOOOOOOXXXXXXXXXXXX......XXXXXXX......XXXXXXXXXXXXOOOOOOOXX",
"XXXXXOOOOOOOXXXXXXXXXXXX......XXXXXXX......XXXXXXXXXXXXOOOOOOOXX",
"XXXXXOOOOOOOXXXXXXXXXXXX......XXXXXXXX+@#$%&+&&@%XXXXXXOOOOOOOXX",
"XXXXXXXXXXXX......XXXXXXXXXXXX.......+oooooooooo*=XXXXXXXXXXXX..",
"XXXXXXXXXXXX......XXXXXXXXXXXX......-;oooooooooo;%XXXXXXXXXXXX..",
"XXXXXXXXXXXX......XXXXXXXXXXXX......:oooooooo;;o;%XXXXXXXXXXXX..",
"XXXXXXXXXXXX......XXXXXXXXXXXX......>oooooooooooo*XXXXXXXXXXXX..",
"XXXXXXXXXXXX......XXXXXXXXXXXX......:oooooooooooo*XXXXXXXXXXXX..",
"XXXXXXXXXXXX......XXXXXXXXXXXX......,ooooooooooo;*XXXXXXXXXXXX..",
"XXXXX.......      ......XXXXXXooooooo;oooooooooo&XXXXXX.......  ",
"XXXXX.......      ......XXXXXXooooooo+ooooooooo;%XXXXXX.......  ",
"XXXXX.......      ......XXXXXXooooooo;o;++#;;++*XXXXXXX.......  ",
"XXXXX.......      ......XXXXXXooooooo......XXXXXXXXXXXX.......  ",
"XXXXX.......      ......XXXXXXooooooo......XXXXXXXXXXXX.......  ",
"XXXXX.......      ......XXXXXXooooooo......XXXXXXXXXXXX.......  ",
"XXXXX.......      ......XXXXXXooooooo......XXXXXXXXXXXX.......  ",
"OOOOO.......      ......XXXXXXooooooo......XXXXXXOOOOOO.......  ",
"OOOOO.......      ......XXXXXXooooooo......XXXXXXOOOOOO.......  ",
"OOOOO.......      ......XXXXXXooooooo......XXXXXXOOOOOO.......  ",
"OOOOO.......      ......XXXXXXooooooo......XXXXXXOOOOOO.......  ",
"OOOOO.......      ......XXXXXXooooooo......XXXXXXOOOOOO.......  ",
"OOOOO.......      ......XXXXXXooooooo......XXXXXXOOOOOO.......  ",
"XXXXXXXXXXXX......XXXXXXoooooo.......      ......XXXXXXXXXXXXX..",
"XXXXXXXXXXXX......XXXXXXoooooo.......      ......XXXXXXXXXXXXX..",
"XXXXXXXXXXXX......XXXXXXoooooo.......      ......XXXXXXXXXXXXX..",
"XXXXXXXXXXXX......XXXXXXoooooo.......      ......XXXXXXXXXXXXX..",
"XXXXXXXXXXXX......XXXXXXoooooo.......      ......XXXXXXXXXXXXX..",
"XXXXXXXXXXXX......XXXXXXoooooo.......      ......XXXXXXXXXXXXX..",
".....XXXXXXXXXXXXXOOOOOOXXXXXXooooooo......XXXXXX......XXXXXXXXX",
".....XXXXXXXXXXXXXOOOOOOXXXXXXooooooo......XXXXXX......XXXXXXXXX",
".....XXXXXXXXXXXXXOOOOOOXXXXXXooooooo......XXXXXX......XXXXXXXXX",
".....XXXXXXXXXXXXXOOOOOOXXXXXXooooooo......XXXXXX......XXXXXXXXX",
".....XXXXXXXXXXXXXOOOOOOXXXXXXooooooo......XXXXXX......XXXXXXXXX",
".....XXXXXXXXXXXXXOOOOOOXXXXXXooooooo......XXXXXX......XXXXXXXXX",
"     .......XXXXXXXXXXXX......oooooooXXXXXX......      .......XX",
"     .......XXXXXXXXXXXX......oooooooXXXXXX......      .......XX",
"     .......XXXXXXXXXXXX......oooooooXXXXXX......      .......XX",
"     .......XXXXXXXXXXXX......oooooooXXXXXX......      .......XX",
"     .......XXXXXXXXXXXX......oooooooXXXXXX......      .......XX",
"     .......XXXXXXXXXXXX......oooooooXXXXXX......      .......XX",
"     .......XXXXXXXXXXXX......oooooooXXXXXX......      .......XX",
".....XXXXXXXXXXXXX......      .......XXXXXXXXXXXX......XXXXXXXXX",
".....XXXXXXXXXXXXX......      .......XXXXXXXXXXXX......XXXXXXXXX",
".....XXXXXXXXXXXXX......      .......XXXXXXXXXXXX......XXXXXXXXX",
".....XXXXXXXXXXXXX......      .......XXXXXXXXXXXX......XXXXXXXXX",
".....XXXXXXXXXXXXX......      .......XXXXXXXXXXXX......XXXXXXXXX",
".....XXXXXXXXXXXXX......      .......XXXXXXXXXXXX......XXXXXXXXX",
"XXXXXOOOOOOOXXXXXXXXXXXX......XXXXXXX......XXXXXXXXXXXXOOOOOOOXX",
"XXXXXOOOOOOOXXXXXXXXXXXX......XXXXXXX......XXXXXXXXXXXXOOOOOOOXX",
"XXXXXOOOOOOOXXXXXXXXXXXX......XXXXXXX......XXXXXXXXXXXXOOOOOOOXX",
"XXXXXOOOOOOOXXXXXXXXXXXX......XXXXXXX......XXXXXXXXXXXXOOOOOOOXX"
};
