/* XPM */
static char *result[] = {
/* columns rows colors chars-per-pixel */
"64 64 142 2 ",
"   c black",
".  c gray1",
"X  c #040404",
"o  c #060606",
"O  c #070707",
"+  c #030708",
"@  c #040809",
"#  c #05090A",
"$  c #060A0B",
"%  c #070B0C",
"&  c gray3",
"*  c #090909",
"=  c gray4",
"-  c #0B0B0B",
";  c #080C0D",
":  c #0A0E0F",
">  c #0C0C0C",
",  c gray5",
"<  c #0E0E0E",
"1  c gray6",
"2  c #0B0F10",
"3  c #0C1011",
"4  c #0E1213",
"5  c #0F1314",
"6  c #111111",
"7  c gray7",
"8  c #131313",
"9  c #101415",
"0  c #111516",
"q  c #121617",
"w  c #131718",
"e  c #141819",
"r  c #15191A",
"t  c #161A1B",
"y  c #171B1C",
"u  c #191D1E",
"i  c #1A1E1F",
"p  c #1B1F20",
"a  c #530A0A",
"s  c #540A0A",
"d  c #550A0A",
"f  c #560A0A",
"g  c #570A0A",
"h  c #580A0A",
"j  c #590B0B",
"k  c #5A0B0B",
"l  c #5B0B0B",
"z  c #5C0B0B",
"x  c #5D0B0B",
"c  c #5E0B0B",
"v  c #5F0B0B",
"b  c #5E0C0C",
"n  c #5F0C0C",
"m  c #600B0B",
"M  c #610B0B",
"N  c #600C0C",
"B  c #610C0C",
"V  c #620C0C",
"C  c #630C0C",
"Z  c #640C0C",
"A  c #650C0C",
"S  c #660C0C",
"D  c #670C0C",
"F  c #660D0D",
"G  c #670D0D",
"H  c #680C0C",
"J  c #690C0C",
"K  c #680D0D",
"L  c #690D0D",
"P  c #6A0C0C",
"I  c #6A0D0D",
"U  c #6B0D0D",
"Y  c #6C0D0D",
"T  c #6D0D0D",
"R  c #6E0D0D",
"E  c #6F0D0D",
"W  c #6D0E0E",
"Q  c #6E0E0E",
"!  c #6F0E0E",
"~  c #700D0D",
"^  c #710D0D",
"/  c #720D0D",
"(  c #700E0E",
")  c #710E0E",
"_  c #720E0E",
"`  c #730E0E",
"'  c #740E0E",
"]  c #750E0E",
"[  c #760E0E",
"{  c #770E0E",
"}  c #760F0F",
"|  c #770F0F",
" . c #780E0E",
".. c #790E0E",
"X. c #780F0F",
"o. c #790F0F",
"O. c #7A0F0F",
"+. c #7B0F0F",
"@. c #7C0F0F",
"#. c #7D0F0F",
"$. c #7E0F0F",
"%. c #7D1010",
"&. c #7E1010",
"*. c #7F1010",
"=. c #810F0F",
"-. c #801010",
";. c #811010",
":. c #821010",
">. c #831010",
",. c #841010",
"<. c #851010",
"1. c #841111",
"2. c #851111",
"3. c #861010",
"4. c #871010",
"5. c #861111",
"6. c #871111",
"7. c #881010",
"8. c #891010",
"9. c #881111",
"0. c #891111",
"q. c #8A1010",
"w. c #8B1111",
"e. c #8D1111",
"r. c #8F1111",
"t. c #911111",
"y. c #90121C",
"u. c #AAAAAA",
"i. c gray67",
"p. c gray68",
"a. c #AEAEAE",
"s. c #AFAFAF",
"d. c #B1B1B1",
"f. c #B2B2B2",
"g. c gray70",
"h. c #B4B4B4",
"j. c gray71",
"k. c #B6B6B6",
"l. c #B7B7B7",
"z. c #B9B9B9",
"x. c gray73",
"c. c gray",
/* pixels */
"' ` ~ T U I S S S I U Y T T T Y Y I I U U E ~ ~ ~ ~ ^ ^ ~ ~ ~ ~ ~ ~ ~ ~ ^ ^ ~ ^ ~ E R U U I U T E ~ _ ] [ [ [ [ [ [ [ [ [ [ [ [ ",
"_ ~ T J D > > > > > H J I J J J > > > > > Y T R T T T T T Y Y Y Y Y Y T T T T R R T > > > > > > Y R ~ ' ] [ [ [ [ [ [ [ [ [ [ [ ",
"T I A c z > c.c.c.> x v M v v v > c.c.c.c.C Z A C C C C V V M M M B V V C C C A A Z > c.c.c.c.> Z S J ~ ^ ' [ [ [ [ [ [ [ [ [ [ ",
"I D M k f > c.c.c.> j l x l z l > c.c.c.c.m m M v c x z z l k k k k l z x x c M M m > c.c.c.c.> M C S R ~ _ [ [ [ [ [ [ [ [ [ [ ",
"H Z x f f > c.c.c.> f g k g g g > c.c.c.c.z z z j h g f f f f f f f f f f g h z z z > c.c.c.c.> x m C U R ^ ] [ [ [ [ [ [ [ [ [ ",
"m > c.c.c.c.c.c.c.> f f > c.c.c.c.> > > > f f f 8 8 8 8 8 8 8 8 8 8 8 8 8 8 8 > f f > > > > > c.c.c.c.D I T ` ] [ [ [ [ [ [ [ [ ",
"x > c.c.c.c.c.c.c.> f f > c.c.c.c.> f f f f f f 8 8 8 8 8 8 8 8 8 8 8 8 8 8 8 > f f f f f f > c.c.c.c.A J Y _ ' [ [ [ [ [ [ [ [ ",
"l > c.c.c.c.c.c.c.> f f > c.c.c.c.> f f f f f f 8 8 8 8 8 8 8 8 8 8 8 8 8 8 8 > f f f f f f > c.c.c.c.Z H U ^ ' [ [ [ [ [ [ [ [ ",
"j > c.c.c.c.c.c.c.> s s > c.c.c.c.> a a a a a s 8 8 8 8 8 8 8 8 8 8 8 8 8 8 8 > a a a a a s > c.c.c.c.B A I ^ ' ] [ [ [ [ [ [ [ ",
"d > c.c.c.c.c.c.c.> l l > c.c.c.c.> n n > 8 8 8 p p p p p p p p 8 8 8 8 8 8 8 8 8 8 8 > n b > c.c.c.c.L R ) ^ ` ] [ [ [ [ [ [ [ ",
"d > c.c.c.c.c.c.c.> S Z > c.c.c.c.> R R > 8 8 8 p p p p p p p p 8 8 8 8 8 8 8 8 8 8 8 > R R > c.c.c.c.` X.@./ ` ] [ [ [ [ [ [ [ ",
"f > c.c.c.c.c.c.c.> Z C > c.c.c.c.> T T > 8 8 8 p p p p p p p p 8 8 8 8 8 8 8 8 8 8 8 > T Y > c.c.c.c.` X.@.$.` [ [ [ [ [ [ [ [ ",
"f > c.c.c.c.c.c.c.> Z C > c.c.c.c.> > > > 8 8 8 p p p p p p p p 8 8 8 8 8 8 8 8 8 8 8 > > > > c.c.c.c.} +.&.-.5.#.[ [ [ [ [ [ [ ",
"f > c.c.c.c.c.c.c.> Z C > > > > > c.c.c.c.8 8 8 p p p p p p p p         8 8 8 8 8 8 8 c.c.c.c.> > > > O.&.;.1.3.3.[ [ [ [ [ [ [ ",
"f > c.c.c.c.c.c.c.> Z C C C C Z > c.c.c.c.8 8 8 p p p p p p p p         8 8 8 8 8 8 8 c.c.c.c.> Z I ! @.-.>.9.9.3...[ [ [ [ [ [ ",
"f > c.c.c.c.c.c.c.> C C C C C C > c.c.c.c.8 8 8 p p p p p p p p         8 8 8 8 8 8 8 c.c.c.c.> K W ` &.;.2.0.0.9.;.[ [ [ [ [ [ ",
"f > c.c.c.c.c.c.c.> H D H H D H > c.c.c.c.8 8 8 p p p p p p p p         8 8 8 8 8 8 8 c.c.c.c.> R ' o.,.7.6.0.0.9.,.[ [ [ [ [ [ ",
"d > c.c.c.c.c.c.c.> R R ^ ^ ^ R > > > > > 8 8 8 y.y.y.y.                y.y.y.8 8 8 8 > > > > >  .$.>.e.t.0.9.0.0.3.[ [ [ [ [ [ ",
"d > c.c.c.c.c.c.c.> R T ) ) ) T T T T T > 8 8 8 y.y.y.y.                y.y.y.8 8 8 8 > T T T T { #.:.w.r.,.5.6.9.6.[ [ [ [ [ [ ",
"d > c.c.c.c.c.c.c.> R T ~ ~ ~ T T T T T > 8 8 8 y.y.y.y.                y.y.y.8 8 8 8 > T T T T ` o.$.<.8.-.-.;.:.>.^ _ ' ] [ [ ",
"d > c.c.c.c.c.c.c.> R T T T T T > > > > > 8 8 8 y.y.y.y.                y.y.y.8 8 8 8 > > > > > E ' o.=.,.#.@.#.%.X.R E ^ _ ' [ ",
"d > c.c.c.c.c.c.c.> R T T T T T >         8 8 8 8 8 8 8                 8 8 8 8 8 8 8         > T T _ O.#.X.} | | P L U T E _ ] ",
"d > c.c.c.c.c.c.c.> R T T T T T >         8 8 8 8 8 8 8                 8 8 8 8 8 8 8         > T T T T R I G K I x v M A D Y ^ ",
"d > c.c.c.c.c.c.c.> ~ R R R R R >         8 8 8 8 8 8 8                 8 8 8 8 8 8 8         > R R R R R U C V C f h l m C J E ",
"d > c.c.c.c.c.c.c.> Z Z > > > > >         8 8 8 8 8 8 8                 8 8 8 8 8 8 8         > > > > > > > > > > > > > > > > Y ",
"d >               > s s >         8 8 8 8       8 8 8 8                 8 8 8                                               > A ",
"d >               > f f >         8 8 8 8       8 8 8 8                 8 8 8                                               > V ",
"d >               > f f >         8 8 8 8       8 8 8 8                 8 8 8                                               > M ",
"d >               > > > >         8 8 8 8       8 8 8 8                 8 8 8                                               > v ",
"d > p p p p       8 8 8 8         p p p p 8 8 8         8 8 8 8 8 8 8 8       8 8 8 8         p p p p p p p p p p p         > z ",
"d > i i i i       7 7 7 7         i i i i 7 7 7         7 7 7 7 7 7 7 7         7 7 7         i i i i i i i i i i i         > d ",
"j > u u u u         6 6 6         u u u u 6 6 6 6       6 6 6 6 6 6 6 6         6 6 6         u u u u u u u u u u u         > d ",
"j > y y y y         1 1 1         1 1 1 1 y y y y y y y                 y y y y y y y         y y y y y y y y x.x.x.        > f ",
"j > t t t t         < < <         < < < < t t t t t t t                 t t t t t t t         t t t t t t t t z.z.z.        > f ",
"j > t t t t         < < <         < < < < t t t t t t t                 t t t t t t t         t t t t t t t t z.z.z.        > f ",
"k > r r r r         , , ,         , , , , r r r r r r r                 r r r r r r r         r r r e e e e e l.l.l.        > f ",
"l >                 > > > > > > >                       - - - - - - - -                       w w w w k.k.k.k.k.k.k.        > f ",
"z >                 Z C C C C C >                       = = = = = = = =                       q q q q j.j.j.j.j.j.j.        > f ",
"z >                 C C C C C C >                       * * * * * * * *                       0 0 0 0 h.h.h.h.h.h.h.        > f ",
"v >                 H D D D D D >                       & & & & & & & &                       9 9 9 9 g.g.g.g.g.g.g.        > f ",
"V >         > > > > ^ ` ] ` ~ R > > > > >         O O O O O O O O O O O O O O O               5 5 5 5 5 5 5 5 f.f.f.        > f ",
"Z >         > d g T {  .o.{ ' E T T T T >         o o o o o o o o o o o o o o o               4 4 4 4 4 4 4 4 d.d.d.        > f ",
"H >         > l m o.=.=.=.@.{ _ T T T T >         X X X X X X X X X X X X X X X               3 3 3 3 3 3 3 3 s.s.s.        > f ",
"I >         > N Z $.<.,.:.@.{ ) > > > > >         . . . . . . . . . . . . . . .               2 2 2 2 2 2 2 2 a.a.a.        > d ",
"E > > > > > > S P >.7.<.>.o.` T >         2 2 2 2                               2 2 2         2 2 2 2 2 2 2 2 a.a.a.        > d ",
"^ T J D S S J I T 4.q.4.,. .^ R >         : : : :                               : : :         : : : : : : : : p.p.p.        > f ",
"] _ ~ E R R ~ E ^ 6.<.-.+.U L I >         ; ; ; ;                               ; ; ;         ; ; ; ; ; ; ; ; i.i.i.        > f ",
"[ ' _ _ ^ ^ _ ^ ^ *.@.} _ > > > >         % % % %                               % % %         % % % % % % % % u.u.u.        > f ",
"[ [ ] ' ' ` ' _ ^ *.O.` Q         $ $ $ $               $ $ $ $ $ $ $ $               $ $ $ $         $ $ $ $ $ $ $         > f ",
"[ [ [ [ [ [ [ ' / *.| ( L         # # # #               # # # # # # # #               # # # #         # # # # # # #         > f ",
"[ [ [ [ [ [ [ ' / &.] Q F         @ @ @ @               @ @ @ @ @ @ @ @               @ @ @ @         @ @ @ @ @ @ @         > f ",
"[ [ [ [ [ [ [ ` ^ %.' U C         + + + +               + + + + + + + +               + + + +         + + + + + + +         > f ",
"[ [ [ [ [ [ [ ` ~ +.( G C                         C C C                 > d g >                                             > k ",
"[ [ [ [ [ [ [ _ E +.! F Z                         Z Z Z                 > d g >                                             > x ",
"[ [ [ [ [ [ [ ^ R ' G b b                         b b b                 > d f >                                             > m ",
"[ [ [ [ [ [ [ ~ Y D k d d                         d d d                 > f f >                                             > C ",
"[ [ [ [ [ [ ] E I A h f f                         f f f f f f f f f f f f f f >                       > f f f f f f f h z V J Y ",
"[ [ [ [ [ [ ' R L Z f f f                         f f f g j l x x z j g f f f >                       > f f f f f f l c M D Y E ",
"[ [ [ [ [ ] ` T J C f f f                         f f f x v M C C V v x l f f >                       > f f f f f j m C S I E ^ ",
"[ [ [ [ [ ' ^ I A >                               f j c A H I Y Y U H A C j f >                               h x M D I T ^ ' ] ",
"[ [ [ [ [ ' ^ I A >                               g x V J U R E E E U J S x g >                               z m Z U T ~ ` ] [ ",
"[ [ [ [ [ ' ^ I S >                               l m A U R ~ _ _ ^ R U J m l >                               v C D R ~ _ ] [ [ ",
"[ [ [ [ [ ] _ Y H >                               V S I ~ ` ] [ [ ] ` ~ R S V >                               A J T _ ' ] [ [ [ ",
"[ [ [ [ [ [ ' ~ T > > > > > > > > > > > > > > > > J Y E ` ] [ [ [ [ ] ` ^ Y J > > > > > > > > > > > > > > > > U R ^ ] [ [ [ [ [ "
};
