/* XPM */
static char *result[] = {
/* columns rows colors chars-per-pixel */
"64 64 140 2 ",
"   c black",
".  c gray1",
"X  c #040404",
"o  c #060606",
"O  c #070707",
"+  c #030708",
"@  c #040809",
"#  c #05090A",
"$  c #060A0B",
"%  c #070B0C",
"&  c gray3",
"*  c #090909",
"=  c gray4",
"-  c #0B0B0B",
";  c #080C0D",
":  c #0A0E0F",
">  c #0C0C0C",
",  c #0E0E0E",
"<  c gray6",
"1  c #0B0F10",
"2  c #0C1011",
"3  c #0E1213",
"4  c #0F1314",
"5  c #111111",
"6  c gray7",
"7  c #131313",
"8  c #101415",
"9  c #111516",
"0  c #121617",
"q  c #131718",
"w  c #141819",
"e  c #15191A",
"r  c #161A1B",
"t  c #171B1C",
"y  c #191D1E",
"u  c #1A1E1F",
"i  c #1B1F20",
"p  c #530A0A",
"a  c #540A0A",
"s  c #550A0A",
"d  c #560A0A",
"f  c #570A0A",
"g  c #570B0B",
"h  c #580A0A",
"j  c #590B0B",
"k  c #5A0B0B",
"l  c #5B0B0B",
"z  c #5C0B0B",
"x  c #5D0B0B",
"c  c #5E0B0B",
"v  c #5F0B0B",
"b  c #5E0C0C",
"n  c #5F0C0C",
"m  c #600B0B",
"M  c #610B0B",
"N  c #610C0C",
"B  c #620C0C",
"V  c #630C0C",
"C  c #640C0C",
"Z  c #650C0C",
"A  c #660C0C",
"S  c #670C0C",
"D  c #660D0D",
"F  c #670D0D",
"G  c #680C0C",
"H  c #690C0C",
"J  c #680D0D",
"K  c #690D0D",
"L  c #6A0D0D",
"P  c #6B0D0D",
"I  c #6C0D0D",
"U  c #6D0D0D",
"Y  c #6E0D0D",
"T  c #6F0D0D",
"R  c #6C0E0E",
"E  c #6D0E0E",
"W  c #6E0E0E",
"Q  c #6F0E0E",
"!  c #700D0D",
"~  c #710D0D",
"^  c #700E0E",
"/  c #710E0E",
"(  c #720E0E",
")  c #730E0E",
"_  c #740E0E",
"`  c #750E0E",
"'  c #750F0F",
"]  c #760E0E",
"[  c #770E0E",
"{  c #760F0F",
"}  c #770F0F",
"|  c #780E0E",
" . c #780F0F",
".. c #790F0F",
"X. c #7A0F0F",
"o. c #7B0F0F",
"O. c #7C0F0F",
"+. c #7D0F0F",
"@. c #7E0F0F",
"#. c #7F0F0F",
"$. c #7D1010",
"%. c #7E1010",
"&. c #7F1010",
"*. c #800F0F",
"=. c #810F0F",
"-. c #801010",
";. c #811010",
":. c #821010",
">. c #831010",
",. c #841010",
"<. c #851010",
"1. c #851111",
"2. c #861010",
"3. c #871010",
"4. c #881010",
"5. c #891010",
"6. c #891111",
"7. c #8A1111",
"8. c #8B1111",
"9. c #8E1111",
"0. c #901111",
"q. c #911111",
"w. c #931212",
"e. c #941111",
"r. c #90121C",
"t. c #AAAAAA",
"y. c gray67",
"u. c gray68",
"i. c #AEAEAE",
"p. c #AFAFAF",
"a. c #B1B1B1",
"s. c #B2B2B2",
"d. c gray70",
"f. c #B4B4B4",
"g. c gray71",
"h. c #B6B6B6",
"j. c gray72",
"k. c #B9B9B9",
"l. c gray73",
"z. c gray",
/* pixels */
"] ] ] ] ] ] ] ] ] ] ] ] _ ( ! Y U P L P P Y ! ! ~ ! ~ ~ ! ! ! ! ! ! ! ! ~ ~ ! ! ! T T P P L L I I U U U I P L A A A L P U T ) _ ",
"] ] ] ] ] ] ] ] ] ] ] ` ( ! Y P > > > > > > U Y Y U U U U I I I I I I U U U U U Y U I > > > > > H H H L H G > > > > > S H P ! ( ",
"] ] ] ] ] ] ] ] ] ` _ ~ U H A B > z.z.z.z.> C Z Z V V V B B N M M M B B V V V V Z C V z.z.z.z.> v v v M v x > z.z.z.> z c B L U ",
"] ] ] ] ] ] ] ] ] ` ( ! P A V v > z.z.z.z.> m M M c x x z l k k k k l z z x c v M m m z.z.z.z.> l z l x l j > z.z.z.> d k x S L ",
"] ] ] ] ] ] ] ] ] ) ~ Y H V m z > z.z.z.z.> z z z h f d d d d d d d d d d f h j z z z z.z.z.z.> f f f k f d > z.z.z.> d d h C G ",
"] ] ] ] ] ] ] ] ` ! U L > z.z.z.z.> > > > > d d > 7 7 7 7 7 7 7 7 7 7 7 7 7 7 7 d d d > > > > z.z.z.z.> d d > z.z.z.z.z.z.z.> m ",
"] ] ] ] ] ] ] ] _ T I H > z.z.z.z.> d d d d d d > 7 7 7 7 7 7 7 7 7 7 7 7 7 7 7 d d d d d d > z.z.z.z.> d d > z.z.z.z.z.z.z.> x ",
"] ] ] ] ] ] ] ] _ T P G > z.z.z.z.> d d d d d d > 7 7 7 7 7 7 7 7 7 7 7 7 7 7 7 d d d d d d > z.z.z.z.> d d > z.z.z.z.z.z.z.> l ",
"] ] ] ] ] ] ] ` _ U K Z > z.z.z.z.> p p p p p a > 7 7 7 7 7 7 7 7 7 7 7 7 7 7 7 p p p p p a > z.z.z.z.> a s > z.z.z.z.z.z.z.> j ",
"] ] ] ] ] ] ] ` ) _ ( Y > z.z.z.z.> n n > 7 7 7 7 7 7 7 7 7 7 7 i i i i i i i i 7 7 7 > n b > z.z.z.z.> l l > z.z.z.z.z.z.z.> d ",
"] ] ] ] ] ] ] ` ` -.@. .> z.z.z.z.> Y Y > 7 7 7 7 7 7 7 7 7 7 7 i i i i i i i i 7 7 7 > Y Y > z.z.z.z.> C V > z.z.z.z.z.z.z.> d ",
"] ] ] ] ] ] ] ] ` &.@. .> z.z.z.z.> U U > 7 7 7 7 7 7 7 7 7 7 7 i i i i i i i i 7 7 7 > U I > z.z.z.z.> V V > z.z.z.z.z.z.z.> d ",
"] ] ] ] ] ] ] ] ] ;.-.o.> z.z.z.z.> > > > 7 7 7 7 7 7 7 7 7 7 7 i i i i i i i i 7 7 7 > > > > z.z.z.z.> V V > z.z.z.z.z.z.z.> d ",
"] ] ] ] ] ] ] ] [ ,.:.%.> > > > > z.z.z.z.7 7 7 7 7 7 7         i i i i i i i i 7 7 7 z.z.z.z.> > > > > V V > z.z.z.z.z.z.z.> s ",
"] ] ] ] ] ] ] ] [ 1.,.-.} Q L C > z.z.z.z.7 7 7 7 7 7 7         i i i i i i i i 7 7 7 z.z.z.z.> V V V V V V > z.z.z.z.z.z.z.> s ",
"] ] ] ] ] ] ] ] [ 1.1.;.X.) E V > z.z.z.z.7 7 7 7 7 7 7         i i i i i i i i 7 7 7 z.z.z.z.> V V V V V V > z.z.z.z.z.z.z.> s ",
"] ] ] ] ] ] ] ] [ 8.8.3.*..._ G > z.z.z.z.7 7 7 7 7 7 7         i i i i i i i i 7 7 7 z.z.z.z.> S S G G G Z > z.z.z.z.z.z.z.> d ",
"] ] ] ] ] ] ] ` | w.e.0.5.>.@.( > > > > > 7 7 7 7 r.r.r.                r.r.r.r.7 7 7 > > > > > Y ~ ~ ~ Y A > z.z.z.z.z.z.z.> d ",
"] ] ] ] ] ] ] _ [ 0.q.9.4.:.+./ U U U U > 7 7 7 7 r.r.r.                r.r.r.r.7 7 7 > U U U U U / / / Y C > z.z.z.z.z.z.z.> d ",
"] ] ` ) ( ~ ! T ~ 6.7.4.:.@...U U U U U > 7 7 7 7 r.r.r.                r.r.r.r.7 7 7 > U U U U U ! ! ! Y A > z.z.z.z.z.z.z.> d ",
"` _ ( ! T Y U P U ,.2.>.+..._ T > > > > > 7 7 7 7 r.r.r.                r.r.r.r.7 7 7 > > > > > U U U U Y A > z.z.z.z.z.z.z.> d ",
") ( T I P K G A G @.#.O.] ( U U >         7 7 7 7 7 7 7                 7 7 7 7 7 7 7         > U U U U Y J > z.z.z.z.z.z.z.> d ",
"T I S V M v z k l Y T U U U U U >         7 7 7 7 7 7 7                 7 7 7 7 7 7 7         > U U U U Y K > z.z.z.z.z.z.z.> d ",
"I H V x l h d s f U ! Y Y Y Y Y >         7 7 7 7 7 7 7                 7 7 7 7 7 7 7         > Y Y Y Y Y P > z.z.z.z.z.z.z.> d ",
"H > > > > > > > > > > > > > > > >         7 7 7 7 7 7 7                 7 7 7 7 7 7 7         > > > > > L D > z.z.z.z.z.z.z.> d ",
"m >                                               7 7 7                 7 7 7 7       7 7 7 7         > V V >               > s ",
"x >                                               7 7 7                 7 7 7 7       7 7 7 7         > V V >               > s ",
"l >                                               7 7 7                 7 7 7 7       7 7 7 7         > V V >               > s ",
"h >                                               7 7 7                 7 7 7 7       7 7 7 7         > > > >               > s ",
"s >         i i i i i i i i i i i         7 7 7 7       7 7 7 7 7 7 7 7         7 7 7 i i i i         7 7 7 7       i i i i > s ",
"s >         u u u u u u u u u u u         6 6 6 6       6 6 6 6 6 6 6 6         6 6 6 u u u u         6 6 6 6       u u u u > s ",
"s >         y y y y y y y y y y y         5 5 5 5       5 5 5 5 5 5 5 5         5 5 5 y y y y         5 5 5 5       y y y y > s ",
"s >         l.l.l.t t t t t t t t         t t t t t t t                 t t t t t t t < < < <         < < < <       t t t t > d ",
"s >         k.k.k.r r r r r r r r         r r r r r r r                 r r r r r r r , , , ,         , , , ,         r r r > d ",
"s >         k.k.k.r r r r r r r r         r r r r r r r                 r r r r r r r , , , ,         , , , ,         r r r > d ",
"s >         j.j.j.e e e e e e e e         w w w w w w w                 w w w w w w w > > > >         > > > >         w w w > d ",
"s >         h.h.h.h.h.h.h.q q q q                       - - - - - - - -                       > > > > > > > >               > d ",
"s >         g.g.g.g.g.g.g.0 0 0 0                       = = = = = = = =                       > d d d d d d >               > d ",
"s >         f.f.f.f.f.f.f.9 9 9 9                       * * * * * * * *                       > a a a a p a >               > d ",
"s >         d.d.d.d.d.d.d.8 8 8 8                       & & & & & & & &                       > c c c c c c >               > k ",
"s >         s.s.s.4 4 4 4 4 4 4 4                 O O O O O O O O O O O O O O O       > > > > > Y ~ _ ` _ ! > > > > >       > x ",
"s >         a.a.a.3 3 3 3 3 3 3 3                 o o o o o o o o o o o o o o o       > U U U U U _ [ ..[ Y C g d d >       > v ",
"s >         p.p.p.2 2 2 2 2 2 2 2                 X X X X X X X X X X X X X X X       > U U U U U [ O.#.@.' ) R z k >       > C ",
"s >         i.i.i.1 1 1 1 1 1 1 1                 . . . . . . . . . . . . . . .       > > > > > U [ O.=.<...} ^ N v >       > S ",
"s >         i.i.i.1 1 1 1 1 1 1 1         1 1 1 1                               1 1 1         > U ) ..*.2.+.o.} S A > > > > > I ",
"s >         u.u.u.: : : : : : : :         : : : :                               : : :         > Y ~ | #.4.+.$.%.Y U U L P P ! ~ ",
"s >         y.y.y.; ; ; ; ; ; ; ;         ; ; ; ;                               ; ; ;         > A A J ) O.+.&.-.! ! ! Y Y T ( ) ",
"d >         t.t.t.% % % % % % % %         % % % %                               % % %         > > > > > } o.&.;.~ ( ( ~ ~ ( _ ` ",
"d >         $ $ $ $ $ $ $         $ $ $ $               $ $ $ $ $ $ $ $               $ $ $ $         > )  .$.;.( ) _ _ _ _ ] ] ",
"d >         # # # # # # #         # # # #               # # # # # # # #               # # # #         > ^ { O.;._ ` ] ] ] ] ] ] ",
"s >         @ @ @ @ @ @ @         @ @ @ @               @ @ @ @ @ @ @ @               @ @ @ @         > W ` X.O._ ` ] ] ] ] ] ] ",
"d >         + + + + + + +         + + + +               + + + + + + + +               + + + +         > P (  .( ) ` ] ] ] ] ] ] ",
"k >                                               V V V                 > s f >                       > F W S Y ) ` ] ] ] ] ] ] ",
"x >                                               C C C                 > s f >                       > D E Z U ( ` ] ] ] ] ] ] ",
"m >                                               b b b                 > s d >                       > V K V I ~ _ ] ] ] ] ] ] ",
"B >                                               s s s                 > d d >                       > s k N I ! ) ] ] ] ] ] ] ",
"I H B z h d d d d d d d >                         d d d d d d d d d d d d d d >                       > d h c L T ( ` ] ] ] ] ] ",
"T I S M c l d d d d d d >                         d d d f j l x x z j f d d d >                       > d d x K Y ~ _ ] ] ] ] ] ",
"~ T L A V m j d d d d d >                         d d d x v M V V B v x l d d >                       > d d z H U ! ) ] ] ] ] ] ",
"` _ ~ U L S M x h                                 d j c Z G L I I P G Z V j d >                               Z L Y ~ ] ] ] ] ] ",
"] ` ) ! U P C m z                                 f x B H P Y T T T P H A x f >                               Z L Y ~ ] ] ] ] ] ",
"] ] ` ( ! Y S V v                                 l m Z P Y ! ( ( ~ Y P H m l >                               A L Y ~ ] ] ] ] ] ",
"] ] ] ` _ ( U H Z                                 B A L ! ) ` ] ] ` ) ! Y A B >                               G I T ( ] ] ] ] ] ",
"] ] ] ] ] ` ~ Y P > > > > > > > > > > > > > > > > H I T ) ` ] ] ] ] ` ) ~ I H > > > > > > > > > > > > > > > > U ! ( _ ] ] ] ] ] "
};
