/* XPM */
static char *result[] = {
/* columns rows colors chars-per-pixel */
"64 64 240 2 ",
"   c black",
".  c #000101",
"X  c #010101",
"o  c #010202",
"O  c #010303",
"+  c #020202",
"@  c #020203",
"#  c #020303",
"$  c gray1",
"%  c #050101",
"&  c #060101",
"*  c #010304",
"=  c #020304",
"-  c #020404",
";  c #030404",
":  c #030405",
">  c #020505",
",  c #030505",
"<  c #030506",
"1  c #040404",
"2  c #040505",
"3  c gray2",
"4  c #050606",
"5  c #040607",
"6  c #040707",
"7  c #060606",
"8  c #060607",
"9  c #060707",
"0  c #070707",
"q  c #0B0101",
"w  c #080303",
"e  c #090303",
"r  c #0C0101",
"t  c #0C0404",
"y  c #0D0404",
"u  c #0F0505",
"i  c #050708",
"p  c #040809",
"a  c #070809",
"s  c #05090A",
"d  c #060A0B",
"f  c gray3",
"g  c #090909",
"h  c #090A0B",
"j  c gray4",
"k  c #0A0B0B",
"l  c #0B0B0B",
"z  c #0B0B0C",
"x  c #080C0D",
"c  c #0B0D0D",
"v  c #0A0E0F",
"b  c #0C0C0C",
"n  c #0C0D0D",
"m  c gray5",
"M  c #0D0E0E",
"N  c #0E0E0E",
"B  c #0E0E0F",
"V  c gray6",
"C  c #110202",
"Z  c #150202",
"A  c #140606",
"S  c #160707",
"D  c #160C0C",
"F  c #170C0C",
"G  c #190808",
"H  c #1C0B0B",
"J  c #1D0C0C",
"K  c #1F0C0C",
"L  c #0B0F10",
"P  c #0E1111",
"I  c #101010",
"U  c #111111",
"Y  c gray7",
"T  c #131313",
"R  c #121515",
"E  c #131516",
"W  c #131616",
"Q  c #141718",
"!  c #161818",
"~  c #16191A",
"^  c #181B1C",
"/  c #191D1E",
"(  c #290505",
")  c #2A0505",
"_  c #2E0505",
"`  c #220B0B",
"'  c #210C0C",
"]  c #240C0C",
"[  c #250C0C",
"{  c #260C0C",
"}  c #270C0C",
"|  c #2C0B0B",
" . c #2D0B0B",
".. c #280C0C",
"X. c #290C0C",
"o. c #2A0C0C",
"O. c #2B0C0C",
"+. c #2B0D0D",
"@. c #2C0C0C",
"#. c #2C0D0D",
"$. c #2D0D0D",
"%. c #2E0D0D",
"&. c #2F0D0D",
"*. c #3E0707",
"=. c #300D0D",
"-. c #330C0C",
";. c #3C0B0B",
":. c #3D0B0B",
">. c #3E0B0B",
",. c #3F0B0B",
"<. c #1B1F20",
"1. c #202020",
"2. c #323232",
"3. c #343434",
"4. c #420808",
"5. c #400B0B",
"6. c #410B0B",
"7. c #420B0B",
"8. c #460808",
"9. c #450B0B",
"0. c #470B0B",
"q. c #430C0C",
"w. c #430D0D",
"e. c #440C0C",
"r. c #450C0C",
"t. c #460C0C",
"y. c #470C0C",
"u. c #480909",
"i. c #4E0909",
"p. c #4F0909",
"a. c #4D0A0A",
"s. c #4E0A0A",
"d. c #480C0C",
"f. c #490C0C",
"g. c #4A0C0C",
"h. c #4B0C0C",
"j. c #4C0C0C",
"k. c #4C0D0D",
"l. c #530A0A",
"z. c #520B0B",
"x. c #540A0A",
"c. c #550A0A",
"v. c #560A0A",
"b. c #570A0A",
"n. c #530C0C",
"m. c #550C0C",
"M. c #580A0A",
"N. c #580B0B",
"B. c #590B0B",
"V. c #5A0B0B",
"C. c #5B0B0B",
"Z. c #5C0B0B",
"A. c #5D0B0B",
"S. c #5E0B0B",
"D. c #5F0B0B",
"F. c #5D0C0C",
"G. c #5E0C0C",
"H. c #5F0C0C",
"J. c #600B0B",
"K. c #610B0B",
"L. c #610C0C",
"P. c #600D0D",
"I. c #620C0C",
"U. c #630C0C",
"Y. c #640C0C",
"T. c #650C0C",
"R. c #650D0D",
"E. c #660C0C",
"W. c #670C0C",
"Q. c #660D0D",
"!. c #670D0D",
"~. c #680C0C",
"^. c #690C0C",
"/. c #680D0D",
"(. c #690D0D",
"). c #6A0D0D",
"_. c #6B0D0D",
"`. c #6C0D0D",
"'. c #6D0D0D",
"]. c #6E0D0D",
"[. c #6F0D0D",
"{. c #6C0E0E",
"}. c #6E0E0E",
"|. c #6F0E0E",
" X c #700D0D",
".X c #710D0D",
"XX c #720D0D",
"oX c #700E0E",
"OX c #710E0E",
"+X c #720E0E",
"@X c #730E0E",
"#X c #740E0E",
"$X c #750E0E",
"%X c #740F0F",
"&X c #750F0F",
"*X c #760E0E",
"=X c #770E0E",
"-X c #760F0F",
";X c #770F0F",
":X c #780E0E",
">X c #790E0E",
",X c #780F0F",
"<X c #790F0F",
"1X c #7A0F0F",
"2X c #7B0F0F",
"3X c #7C0F0F",
"4X c #7D0F0F",
"5X c #7E0F0F",
"6X c #7F0F0F",
"7X c #7D1010",
"8X c #7E1010",
"9X c #7F1010",
"0X c gray28",
"qX c #5B5B5B",
"wX c #6F6F6F",
"eX c gray50",
"rX c #800F0F",
"tX c #810F0F",
"yX c #801010",
"uX c #811010",
"iX c #821010",
"pX c #831010",
"aX c #841010",
"sX c #851010",
"dX c #861010",
"fX c #871010",
"gX c #861111",
"hX c #881010",
"jX c #8A1111",
"kX c #8B1111",
"lX c #8C1111",
"zX c #8D1111",
"xX c #8F1111",
"cX c #911111",
"vX c #931212",
"bX c #941111",
"nX c #838383",
"mX c gray52",
"MX c gray59",
"NX c gray",
/* pixels */
"*X*X*X*X*X*X*X*X*X*X*X$X$X@X X[.]._.)._.`.[. X X.X X.X.X X X X X X X X X.X.X X X X[.[.`._.).)._.`.'.'.'.`.`.^.d.d.d.g.P.`.]..X#X",
"*X*X*X*X*X*X*X*X*X*X*X#X+X[.`.(.O.0X0X0X3.O._.`.`._._._._._.).).).)._._._._._.`.`._.h.3.0X0X0X1.W.W.W.~.W.E.1.0X0X0X1.y.~.).].+X",
"*X*X*X*X*X*X*X*X*X*X$X.X[._.W.Y.X.NXNXNXnXX.T.E.E.T.T.Y.Y.U.U.U.U.U.U.Y.Y.T.T.T.E.T.y.nXNXNXNX0XJ.K.K.I.K.D.0XNXNXNX0X7.L.Y.(.[.",
"*X*X*X*X*X*X*X*X*X$X@X[.`.~.I.D...NXNXNXnX..J.K.J.S.A.A.Z.C.V.V.V.V.C.Z.A.A.S.D.K.J.e.nXNXNXNX0XC.Z.C.A.Z.V.0XNXNXNX0X>.C.S.T._.",
"*X*X*X*X*X*X*X*X$X#X.X'.m.y.e.6.J NXNXNXnX{ C.z.5.,.>.:.:.:.:.:.:.:.:.:.:.>.,.5.z.C.5.nXNXNXNX0X>.>.>.0.b.v.0XNXNXNX0X .>.5.r.~.",
"*X*X*X*X*X*X*X*X$X+X[.).o.qXnXnXnX0X0X0X3.[ v.:.N U U U U U U U U U U U U U U V :.v.:.3.0X0X0XwXnXnXnX[ v.v.0XNXNXNXMXnXnXnX3.U.",
"*X*X*X*X*X*X*X*X#X X].~.o.nXNXNXNXH :.:.:.9.v.:.N T T T T T T T T T T T T T T U :.v.a.:.:.:.H nXNXNXNX[ v.v.0XNXNXNXNXNXNXNX0XJ.",
"*X*X*X*X*X*X*X*X@X X`.E.X.nXNXNXNX[ v.v.v.v.v.:.N T T T T T T T T T T T T T T U :.v.v.v.v.v.[ nXNXNXNX[ v.v.0XNXNXNXNXNXNXNX0XZ.",
"*X*X*X*X*X*X*X$X@X].).Y...nXNXNXNX] l.l.;.;.;.| N T T T T T T T T T T T T T T U | ;.;.;.l.x.[ nXNXNXNX[ x.c.0XNXNXNXNXNXNXNX0XV.",
"*X*X*X*X*X*X*X$X+X$X@X`.O.nXNXNXNX..H.H.N U U U U T T T T T T T ^ ^ ^ ^ ^ ^ ^ ! U U U N H.G.} nXNXNXNX} C.C.0XNXNXNXNXNXNXNX0XM.",
"*X*X*X*X*X*X*X$X#XuXyX-X%.nXNXNXNX$.].].N T T T T T T T T T T T <.<.<.<.<.<.<.^ T T T N ].].o.nXNXNXNXo.Y.U.0XNXNXNXNXNXNXNX0Xb.",
"*X*X*X*X*X*X*X*X#XyX9X;X&.nXNXNXNX$.'.'.N T T T T T T Y U N m m E R W Q ^ / <.^ T T T N '.`.o.nXNXNXNXo.U.U.0XNXNXNXNXNXNXNX0Xb.",
"*X*X*X*X*X*X*X*X$XuXyX<X&.nXNXNXNXF $.$.N T T T T T V j 3 1 + X + + $ 9 h P ~ ^ T T T N $.$.D nXNXNXNXo.U.U.0XNXNXNXNXNXNXNX0Xb.",
"*X*X*X*X*X*X*X*X*XaXiX3X=.3.0X0X0XnXnXMXmXT T T Y N 1 X                 X # a E Y T T mXNXNXNX0Xb b b o.U.U.0XNXNXNXNXNXNXNX0Xv.",
"*X*X*X*X*X*X*X*X=XgXsX9X<X+X(.T.$.NXNXNXmXT T T m +                           9 N T T mXNXNXNX0XU.U.U.U.U.U.0XNXNXNXNXNXNXNX0Xv.",
"*X*X*X*X*X*X*X*X=XgXgXyX2X%X_.R.$.NXNXNXmXT T V $                             X 7 U T mXNXNXNX0XU.U.U.U.U.U.0XNXNXNXNXNXNXNX0Xv.",
"*X*X*X*X*X*X*X*X=XlXlXdXtX2X+X).$.NXNXNXmXT Y 7                                 $ N T mXNXNXNX0XW.W.W.~.~.T.0XNXNXNXNXNXNXNX0Xv.",
"*X*X*X*X*X*X*X$X=XvXbXxXjXsX3X#Xw.$.$.$.N T N +                                   l Y N $.$.$.$.]. X.X X].E.0XNXNXNXNXNXNXNX0Xv.",
"*X*X*X*X$X$X$X#X*XxXcXzXhXpX2X@X].'.'.'.N T l                                     f U N '.'.'.'.'. XOX X].Y.0XNXNXNXNXNXNXNX0Xv.",
"*X*X$X#X@X+X+X XXXkXlXhXaXrX:X X'.'.'.'.N U 0                                     f U N '.'.'.'.'.[. X[.].E.0XNXNXNXNXNXNXNX0Xv.",
"$X$X.X X X].'._.'.sXdXiX5X1X@X].$.b b b N I $                                     g U N b b b b '.'.'.'.].E.0XNXNXNXNXNXNXNX0Xv.",
"@X.X'._.(.~.E.T.E.3X4X>X$XOX'.'.$.      7 m X                                     j T 7       f '.'.'.'.]./.0XNXNXNXNXNXNXNX0Xv.",
" X].~.T.U.J.S.A.A.OX+X[.].'.'.'.$.      3 7                                       f U 7       f '.'.'.'.].(.0XNXNXNXNXNXNXNX0Xv.",
"]._.U.J.A.V.M.b.M.]. X].].].].].$.      +                                           $ $       f ].].].].]._.0XNXNXNXNXNXNXNX0Xv.",
"~.o.f f f f f f f f f f f f f f f                                                       + 1 3 0 f f f #.).Q.2.eXeXeXeXeXeXeX2.v.",
"I...                                                                                      X f 1       X.U.U.f               f v.",
"J...                                                                                          X       o.U.U.f               f v.",
"Z.{                                                                                                   K t.t.f               f v.",
"V.[                                                                                                   j l m j       + . . 4 z v.",
"M.`                                                                                                       $ $             X B v.",
"l.S                                                                                                                         f v.",
"i.t                                                                                                                         9 v.",
"4.w                                                                                                                         f v.",
"*.%                                                                                                   j 7 3 +               c v.",
"*.%                                                                                                   N N N g       X     X n b.",
"8.e                                                                                                   b b b f       $     # M b.",
"i.y                                                                                             X 3 f b b b f       # $ o 4 k b.",
"x.A                                                                                           X _ p.v.v.v.v.f               f M.",
"v.u                                                                                           3 x.x.x.x.l.x.f               f B.",
"4.%                                                                                           f S.S.S.S.S.S.f               f C.",
")                                                                         X $ $       0 b b b b ]. X+X$X$X Xb b b b f       f S.",
"Z                                                                   X $ 1 3 7 1       f k.'.'.'.].@X=X1X1XoXY.B.v.:.f       f I.",
"q                                                                 X $ 1 1 1 1 $       f k.'.'.'.[.$X1X6X4X#XoX_.C.,.f       f T.",
"&                                                               + $ $ $ $ $ $ +       f ' $.$.$.[.*X1XtXpX,X&X|.J.7.f       f W.",
"&                                                                             2 L L L 2       f '. X*XtXdX4X3X<X^.n.o.o.o.o.@.].",
"r                                                                             , v v v ,       f ].[.$XrXfX3X8X7X'.`._.^.(.).]..X",
"C                                                                             ; x x x ;       f E.E./.$X1X3X9X9X[.[.].'.'.]. X@X",
"(                                                       X = = = = = = =       @ i i i , = = = 8 f f f %.#X,X9XuX.X+X+X+X+X@X#X$X",
"u.e                                                     6 d d d d d d d               6 d d d =       #.OX-X8XuX+X#X#X#X$X$X$X*X",
"b.G                                                     5 s s s s s s s               5 s s s #       +.}.$X7XyX@X$X$X*X*X*X*X*X",
"M.[                                   . o               < p p p p p p p               < p p p O       o._.+X3X2X@X$X*X*X*X*X*X*X",
"B.[       .                       o O - *       X 1 1 1 : > > > > > > > 1 1 1 $       * > > > o       o./.|.1XOX+X$X*X*X*X*X*X*X",
"Z.{                                             1 -.t.-.1               H :.>.f                       o.!.{.^.'.+X$X*X*X*X*X*X*X",
"S.}                                             1 y.Y.y.1               [ c.b.f                       o.Q._.W.`..X$X*X*X*X*X*X*X",
"I...                                            1 q.G.q.1               [ c.v.f                       X.U.Q.T.). X$X*X*X*X*X*X*X",
"E.o.1 1 1 1 1 1 1 1 1 1 1 X                     1 :.c.:.0 1 1 1 1 1 1 1 [ v.v.f                       [ c.N.U.).[.#X*X*X*X*X*X*X",
"`.m.r.7.,.:.:.:.:.:.:.:.H 1                     1 :.v.a.:.:.:.:.:.:.:.:.9.v.v.f                       [ v.b.L.^.].@X$X*X*X*X*X*X",
"[.'.E.I.D.B.v.v.v.v.v.v.[ 1                     1 :.v.v.M.C.A.S.S.S.Z.B.b.v.v.f                       [ v.v.D.~.`.+X$X*X*X*X*X*X",
"+X X_.~.T.J.Z.M.s.:.:.:.H 1                     1 :.v.B.A.J.U.Y.Y.U.L.S.C.v.v.f                       H :.:.q.F._..X#X*X*X*X*X*X",
"$X@X[.`.).T.K.A.>.0 1 1 1 X                     1 :.V.S.U.E.^.).).(.W.U.J.V.v.f                       1 1 1 0 d.^. X@X$X*X*X*X*X",
"*X$X@X X].).T.I.6.1                             1 >.S.U.~._.].[.[.].`.^.Y.S.b.f                             1 y.^.[.+X$X*X*X*X*X",
"*X*X$X@X.X].(.E.e.1                             1 6.U.W._.[..X@X@X+X X`.^.U.A.f                             1 d.^. X+X$X*X*X*X*X",
"*X*X*X$X#X X'.(.y.1                             1 r.W.).[.+X#X$X$X$X@X X`.W.L.f                             1 f.). X@X$X*X*X*X*X",
"*X*X*X*X$X@X X].g.g f f f f f f f f f f f f f f g d._.]..X#X$X*X*X$X$X+X[._.E.l f f f f f f f f f f f f f f g j.].+X#X*X*X*X*X*X"
};
