/* XPM */
static char *e83c8cc3808c473ec849290b13c0de030yPMwI4CqFvMy5Hl[] = {
/* columns rows colors chars-per-pixel */
"64 64 136 2 ",
"   c black",
".  c #010100",
"X  c #0C0C0C",
"o  c #0D0C0C",
"O  c #0D0D0C",
"+  c gray5",
"@  c #540A0A",
"#  c #550A0A",
"$  c #560A0A",
"%  c #580A0A",
"&  c #5A0B0B",
"*  c #5E0B0B",
"=  c #5F0B0B",
"-  c #610C0C",
";  c #620C0C",
":  c #630C0C",
">  c #650C0C",
",  c #660C0C",
"<  c #670C0C",
"1  c #660D0D",
"2  c #680C0C",
"3  c #6B0C0C",
"4  c #6B0D0D",
"5  c #6C0D0D",
"6  c #6D0D0D",
"7  c #6E0D0D",
"8  c #6F0D0D",
"9  c #6D0E0E",
"0  c #6F0E0E",
"q  c #700D0D",
"w  c #710D0D",
"e  c #730D0D",
"r  c #710E0E",
"t  c #720E0E",
"y  c #730E0E",
"u  c #750E0E",
"i  c #740F0F",
"p  c #750F0F",
"a  c #760E0E",
"s  c #770E0E",
"d  c #770F0F",
"f  c #780E0E",
"g  c #7B0F0F",
"h  c #7C0E0E",
"j  c #7C0F0F",
"k  c #7E0F0F",
"l  c #7D1010",
"z  c #7F1010",
"x  c #4A2000",
"c  c #4B2000",
"v  c #4E2300",
"b  c #502500",
"n  c #502600",
"m  c #592F02",
"M  c #5A2F02",
"N  c #5C3104",
"B  c #5D3205",
"V  c #5F3407",
"C  c #603508",
"Z  c #0C571C",
"A  c #0D581D",
"S  c #0F5A1F",
"D  c #105B20",
"F  c #125D22",
"G  c #135E23",
"H  c #156025",
"J  c #186328",
"K  c #196429",
"L  c #1B662B",
"P  c #1C672C",
"I  c #1F6A2F",
"U  c #1F7F34",
"Y  c #216B31",
"T  c #226B31",
"R  c #216C31",
"E  c #207F34",
"W  c #800F0F",
"Q  c #820F0F",
"!  c #840F0F",
"~  c #821010",
"^  c #851010",
"/  c #841111",
"(  c #861010",
")  c #861111",
"_  c #871111",
"`  c #881010",
"'  c #891010",
"]  c #881111",
"[  c #8A1111",
"{  c #8C1111",
"}  c #8D1111",
"|  c #8E1111",
" . c #901111",
".. c #921111",
"X. c #931212",
"o. c #951212",
"O. c #961212",
"+. c #981212",
"@. c #C60001",
"#. c #CC0007",
"$. c #CF000A",
"%. c #D2000D",
"&. c #D4000F",
"*. c #D70012",
"=. c #D80113",
"-. c #DA0315",
";. c #DB0416",
":. c #DB0516",
">. c #8D7F31",
",. c #218136",
"<. c #228237",
"1. c #248439",
"2. c #25853A",
"3. c #27873C",
"4. c #28883D",
"5. c #2A8A3F",
"6. c #2B8B40",
"7. c #2E8D42",
"8. c #8F8133",
"9. c #908234",
"0. c #928537",
"q. c #958639",
"w. c #96883A",
"e. c #988A3C",
"r. c #998B3D",
"t. c #9B8D3F",
"y. c #A19346",
"u. c #A19446",
"i. c #A29446",
"p. c #F5E06A",
"a. c #F6E16B",
"s. c #F7E26B",
"d. c gray60",
"f. c #9A9A9A",
"g. c gray61",
"h. c #9D9D9D",
/* pixels */
"a a a a a a a a a a a a a a a a a a a a a a a a a a a a a a a a a a a a a a a a a a a a a a a a a a a a a a a a a a a a a a a a ",
"a a a a a a a a a a a a a a a a a a a a a a a a a a a a a a a a a a a a a a a a a a a a a a a a a a a a a a a a a a a a a a a a ",
"a a a a a a a a a a a a a a a a a a a a a a a a a a a a a a a a a a a a a a a a a a a a a a a a a a a a a a a a a a a a a a a a ",
"a a a a a a a a a a a a a a a a a a a a a a a a a a a a a a a a a a a a a a a a a a a a a a a a a a a a a a a a a a a a a a a a ",
"a a a a a a a a a a a a a a a a a a a a a a a a a a a a a a y a y y y y y y a y a a a a a a a a a a a a a a a a a a a a a a a a ",
"a a a a a a a a a a a a a a a a a a a a a a a a a a a y y y y 7 7 y y 7 y y y y a a a a a a a a a a a a a a a a a a a a a a a a ",
"a a a a a a a a a a a a a a a a a a a a a a a a a y y 7 7 7 y y 7 7 7 y 7 7 7 y y 7 y y y a y a a a a a a a a a a a a a a a a a ",
"a a a a a a a a a a a a a a a a a a a a a a a a y y y 7 y 2 2 2 2 1 2 2 1 7 2 2 7 2 y y y a l a a a a a a a a a a a a a a a a a ",
"a a a a a a a a a a a a y a y y a y y y y y y 7 y 2 2 2 2 : ; ; > : : * : : > > > 2 2 7 7 y y a a a a a a a a a a a a a a a a a ",
"a a a a a a a a a a a k k k k k k k Q ~ ~ z k k p p p 2 2 1 2 1 : : & * * : * : 3 q a a g k g k g g z k g g a a a a a a a a a a ",
"a a a a a a a a a a a ] ] ] ] ] _ ] o.o. . .{ ] _ g p y 7 2 2 2 > # # # # # # : a g Q ! ' { {  .] ' ] { { ' k y a a a a a a a a ",
"a a a a a a a a a a ~ ] ] _ _ _ _ _  . .{ { ] ! k i X X + X X X X X X X X X X O X X X k k ` ' { ] ] { _ _ ` a a a a a a a a a a ",
"a a a a a a a a z _ _ _ ] _ Q ~ z ~ ] { ! _ k g a : O i.i.i.i.i.y.y.i.i.i.i.i.i.i.i.X y a l _ ` ` _ _ ] ] ] g a a a a a a a a a ",
"a a a a a a a a _ _ ~ _ _ Q z ~ z z ] ! _ k g y 7 ; O i.i.i.i.i.y.y.i.i.i.i.i.i.i.i.X y 7 g g ~ k _ ] ] { _ a a a a a a a a a a ",
"a a a a a a a g Q _ _ ~ ~ z k g a z ~ Q k g a 7 7 > O y.i.i.i.i.i.i.i.i.i.i.i.i.i.i.X 2 7 y l g g _ _ _ _ _ a a a a a a a a a a ",
"a a a a a a a z _ _ ~ ~ z i a a y a k g g a 2 7 7 > X y.i.i.i.i.i.i.i.i.i.i.i.i.i.i.X 7 2 7 y l g k ` _ ` ` a a a a a a a a a a ",
"a a a a a a a Q _ ~ ~ z X X X X X X l a y X X X X X X i.i.i.i.i.i.i.i.i.i.i.i.i.i.i.X X X X X X k ` ` _ { { k a a a a a a a a a ",
"a a a a a a y ~ ~ z z k X g.h.h.h.X y 2 2 X s.s.s.s.s.s.s.s.s.s.s.s.s.s.s.s.s.s.s.s.i.i.i.i.i.O k ] {  .o.o.a a a a a a a a a a ",
"a a a a a a y ~ ~ z z i X g.h.h.h.X i y 7 X s.s.s.s.s.s.s.s.s.s.s.s.s.s.s.s.s.s.s.s.i.i.i.i.i.O g ` ]  . .+.a a a a a a a a a a ",
"a a a a a a a ~ z g l a X g.h.h.h.X 7 2 y X s.s.s.s.s.s.s.s.s.s.s.s.s.s.s.s.s.s.s.s.i.i.i.i.i.O g Q ]  . . .g a a a a a a a a a ",
"a a a a a a y g z g a a X g.h.h.h.X y 2 2 X s.s.s.s.s.s.s.s.s.s.s.s.s.s.s.s.s.s.s.s.i.i.i.i.i.O g Q ' ]  .o.a a a a a a a a a a ",
"a a a a a y y y l z y i X g.h.h.h.X 2 7 7 X s.s.a.a.s.s.s.s.s.s.s.s.s.s.s.s.s.s.s.s.i.i.i.i.i.O a g ` ] { o.a a a a a a a a a a ",
"a a a a a a 7 7 l y y a X h.h.h.h.X 2 7 7 X           a.s.s.s.s.          a.s.s.s.s.s.s.s.s.s.O a g k `  .o.k a a a a a a a a a ",
"a a a a a y 7 y z i y a X h.h.h.h.X 7 y 7 X           a.s.s.s.s.          s.s.s.s.s.s.s.s.s.s.O a l _ `  . .a y a a a a a a a a ",
"a a a a a a y y g y y 7 X h.h.h.h.X 7 2 7 X           s.s.s.s.s.          s.s.s.s.s.s.s.s.s.s.O > 2 a k Q _ a a a a a a a a a a ",
"a a a a a y 7 7 a a y 2 X h.h.h.h.X ; 1 ; X           s.s.s.s.s.          s.s.s.s.s.s.s.s.s.s.X # * : : 2 2 y a a a a a a a a a ",
"a a a a a y y 2 z i 7 2 X h.h.h.h.X ; ; ; X           s.a.s.a.a.          s.s.s.s.s.a.a.s.s.s.X & & ; : 7 y y y a a a a a a a a ",
"a a a a a y 7 7 i i 7 7 X h.h.g.h.X ; 1 1 X ;.;.;.;.;.-.;.;.;.;.:.:.:.;.:.;.:.;.:.:.:.;.:.:.:.O # # * 1 7 2 y a a a a a a a a a ",
"a a a a a y y 7 i y y > X g.f.g.h.X ; ; 1 X -.-.-.-.;.-.-.-.;.;.;.;.;.;.;.-.-.-.*.;.*.;.-.;.-.X # # * : 2 7 y a a a a a a a a a ",
"a a a a a y 7 2 2 ; * 2 X f.f.f.f.X ; 1 ; X =.=.*.-.=.*.=.*.*.*.-.&.-.&.-.-.&.-.-.*.-.*.*.*.*.X # & # : 1 7 7 y a a a a a a a a ",
"a a a a a y 7 y 7 ; ; 1 X f.f.f.f.X ; ; ; X *.*.=.*.*.*.*.*.*.*.&.-.&.-.&.-.-.&.*.*.-.*.*.*.*.X # # # : ; 2 2 y a a a a a a a a ",
"a a a a a y 7 7 1 ; * # X t.t.t.t.Y R R Y R *.%.*.%.*.%.*.%.%.*.&.%.%.-.%.7.7.7.7.7.T R R R T T T I I X 7 g 7 2 y a a a a a a a ",
"a a a a a a 6 6 : ; = # O e.e.t.w.I I I I I %.%.%.%.%.%.%.%.%.%.%.%.%.%.%.4.5.7.7.4.Y I I I I I I I I O 2 a 2 7 7 i a a a a a a ",
"a a a a y y e 6 2 1 = & O t.w.w.e.I I I I I $.%.%.%.$.$.$.%.%.$.%.%.%.%.%.4.5.5.6.4.I I I P I I I P I O 2 y 2 7 y y a a a a a a ",
"a a a a a a y 6 2 2 = & X q.w.w.w.K K I K I $.$.$.$.$.$.$.$.$.$.#.%.#.#.$.4.4.4.4.4.P P K P P P K I J X 2 y 1 7 7 y a a a a a a ",
"a a y a a y 7 7 2 2 ; & X w.q.w.q.I K I K K #.#.$.$.$.$.$.$.#.$.%.#.%.#.$.3.3.4.4.4.K P P P K P P K P X 7 7 2 2 y y a a a a a a ",
"a a a a a a y y 7 1 : : X V C C V X X X X X 2.2.2.2.2.#.#.#.#.#.2.2.2.2.2.2.2.2.2.2.J J K K K 0.0.0.0.X 7 7 1 7 7 y y a a a a a ",
"a a a a a a y 7 7 2 : * X V V V V X @ @ @ X ,.2.2.,.2.#.#.#.#.#.1.1.1.1.2.2.1.1.2.2.J J J J K 0.9.0.9.X 2 7 1 y 7 y a a a a a a ",
"a a a a a y a 7 7 2 > > X B B B B X * * * X ,.2.,.2.,.@.#.@.@.#.,.1.1.,.,.,.,.1.1.,.H J H H H 9.9.9.9.X y a 2 2 y y a a a a a a ",
"a a a a a a y y y 7 2 Q X N N m B X 7 7 y X ,.,.,.,.,.@.@.@.#.@.,.,.,.,.,.,.,.,.,.,.H H H H G 8.9.9.9.X i z 2 7 y y a a a a a a ",
"a a a a a a a a 7 9 g g X m m m m X 2 y 2 X E U ,.U E @.@.@.@.@.,.,.,.,.,.U U ,.,.,.F F G G G >.>.8.>.X g k 7 1 y y a a a a a a ",
"a a a a a a y a p z l l X X X X X O y 2 7 X F F F F F F F F F F S F D S F H S F S F F F F F F O X X X X k Q y 7 y a a a a a a a ",
"a a a a a a a a i ~ ~ Q _ Q z g 7 7 7 y 2 X S D D D D S D F Z D S S S S S D S S D S S S D D D X 7 7 7 a Q Q 7 y a a a a a a a a ",
"a a a a a a a a p ~ _ ` { ` ~ z g y 7 2 7 X D D S S S S S S D D S S S S S S S S S S S S D Z D X 2 7 a k ` ! y y y a a a a a a a ",
"a a a a a a a a p ` ` _ { ` ` _ g a y 7 y X Z Z A A A A Z Z S Z A A A A A A Z S S Z Z A A A Z O y y a Q ! ] a y a a a a a a a a ",
"a a a a a a a a p ` _ _ ' _ Q l g g p y 2 X Z Z Z S Z Z Z Z Z Z Z A Z A Z Z Z Z Z Z S S Z Z S X 2 y g g _ _ a a a a a a a a a a ",
"a a a a a a a a g ` _ _ ' ` Q l p g z p p X b b n n c X O X O X X O X O X O X X O X b b v n n X 2 7 y g z ~ a a a a a a a a a a ",
"a a a a a a a a p ] _ _ _ ` _ Q g g k g y X n b n b b X & # # # @ ; ; ; ; ; : > 2 O b b n n n X y y a z Q ~ a a a a a a a a a a ",
"a a a a a a a a a ! ] { ] ] _ ` z g ~ Q g X v v v b c X # # & # $ ; ; 1 : : ; ; y X c b c b c o 7 i z z Q _ a a a a a a a a a a ",
"a a a a a a a a g Q ] ] ] { _ _ ~ Q _ k z X v c c v v X # # # & & 1 2 2 2 : 2 1 y X c b c b c o i z z ~ _ _ g a a a a a a a a a ",
"a a a a a a a a y g ` _ { ] _ _ ` k ] ] k X c c c c c X ; & = = ; i i 7 7 9 7 2 y X c c c c c o l z z ~ ] _ g a a a a a a a a a ",
"a a a a a a a a a a g Q ] ] ] ] _ _  .{ _ X X X X X X X ; : ; : 1 i i i i z g a g X X X X X X X z z _ _ ] _ a a a a a a a a a a ",
"a a a a a a a a a a g ` { ] ] { ] { +.+.+.+.+.+.+.g a a a a a a p ] ] ] ] { ] ] o.+.+.+.o.+.+.o._ _ ] ] { ] a a a a a a a a a a ",
"a a a a a a a a y y a _ ] _ ] ] ] ] ] ] ] { { ] ] p a a a a a a p Q Q ] Q k _ Q _ ] { ] ] _ ] { ~ ~ ~ ~ _ ~ a a a a a a a a a a ",
"a a a a a a a a a a a a y y g ` ] { ] ] ] a a a a a a a a a a a a a a a a y a a y y g a y a y y a a a a a y a a a a a a a a a a ",
"a a a a a a a a a a y a a p a ` ] ] ] ] g a a a a a a a a a a a a a a a a a a a a a a a a a a a a a a a a a a a a a a a a a a a ",
"a a a a a a a a a a a a a a a _ _ ] ] ] a a a a a a a a a a a a a a a a a a a a a a a a a a a a a a a a a a a a a a a a a a a a ",
"a a a a a a a a a a a a a a a a g g a a a a a a a a a a a a a a a a a a a a a a a a a a a a a a a a a a a a a a a a a a a a a a ",
"a a a a a a a a a a a a a a a y a a a a a a a a a a a a a a a a a a a a a a a a a a a a a a a a a a a a a a a a a a a a a a a a ",
"a a a a a a a a a a a a a a a a a a a a a a a a a a a a a a a a a a a a a a a a a a a a a a a a a a a a a a a a a a a a a a a a ",
"a a a a a a a a a a a a a a a a a a a a a a a a a a a a a a a a a a a a a a a a a a a a a a a a a a a a a a a a a a a a a a a a ",
"a a a a a a a a a a a a a a a a a a a a a a a a a a a a a a a a a a a a a a a a a a a a a a a a a a a a a a a a a a a a a a a a ",
"a a a a a a a a a a a a a a a a a a a a a a a a a a a a a a a a a a a a a a a a a a a a a a a a a a a a a a a a a a a a a a a a ",
"a a a a a a a a a a a a a a a a a a a a a a a a a a a a a a a a a a a a a a a a a a a a a a a a a a a a a a a a a a a a a a a a "
};
