/* XPM */
static char *result[] = {
/* columns rows colors chars-per-pixel */
"64 64 178 2 ",
"   c black",
".  c #0C0C0C",
"X  c #540A0A",
"o  c #550A0A",
"O  c #560A0A",
"+  c #570A0A",
"@  c #580A0A",
"#  c #590B0B",
"$  c #5A0B0B",
"%  c #5B0B0B",
"&  c #5C0B0B",
"*  c #5D0B0B",
"=  c #5E0B0B",
"-  c #5F0B0B",
";  c #600B0B",
":  c #610B0B",
">  c #610C0C",
",  c #620C0C",
"<  c #630C0C",
"1  c #640C0C",
"2  c #650C0C",
"3  c #660C0C",
"4  c #670C0C",
"5  c #660D0D",
"6  c #670D0D",
"7  c #680C0C",
"8  c #690C0C",
"9  c #680D0D",
"0  c #690D0D",
"q  c #6A0C0C",
"w  c #6B0C0C",
"e  c #6A0D0D",
"r  c #6B0D0D",
"t  c #6C0D0D",
"y  c #6D0D0D",
"u  c #6E0D0D",
"i  c #6F0D0D",
"p  c #6D0E0E",
"a  c #6E0E0E",
"s  c #6F0E0E",
"d  c #700D0D",
"f  c #710D0D",
"g  c #730D0D",
"h  c #700E0E",
"j  c #710E0E",
"k  c #720E0E",
"l  c #730E0E",
"z  c #740E0E",
"x  c #750E0E",
"c  c #740F0F",
"v  c #750F0F",
"b  c #760E0E",
"n  c #770E0E",
"m  c #760F0F",
"M  c #770F0F",
"N  c #780E0E",
"B  c #790E0E",
"V  c #780F0F",
"C  c #790F0F",
"Z  c #7A0E0E",
"A  c #7A0F0F",
"S  c #7B0F0F",
"D  c #7C0E0E",
"F  c #7C0F0F",
"G  c #7D0F0F",
"H  c #7E0F0F",
"J  c #7F0F0F",
"K  c #7D1010",
"L  c #7E1010",
"P  c #7F1010",
"I  c #4B2000",
"U  c #4D2200",
"Y  c #4E2300",
"T  c #502500",
"R  c #512600",
"E  c #5A2F02",
"W  c #5C3104",
"Q  c #5D3205",
"!  c #5F3407",
"~  c #603508",
"^  c #0C571C",
"/  c #0D581D",
"(  c #0F5A1F",
")  c #105B20",
"_  c #125D22",
"`  c #135E23",
"'  c #156025",
"]  c #166126",
"[  c #186328",
"{  c #196429",
"}  c #1B662B",
"|  c #1C672C",
" . c #1E692E",
".. c #1F6A2F",
"X. c #1F7F34",
"o. c #216C31",
"O. c #800F0F",
"+. c #810F0F",
"@. c #820F0F",
"#. c #840F0F",
"$. c #801010",
"%. c #811010",
"&. c #821010",
"*. c #831010",
"=. c #821111",
"-. c #841010",
";. c #851010",
":. c #841111",
">. c #851111",
",. c #861010",
"<. c #871010",
"1. c #861111",
"2. c #871111",
"3. c #881010",
"4. c #891010",
"5. c #881111",
"6. c #891111",
"7. c #8A1010",
"8. c #8A1111",
"9. c #8B1111",
"0. c #8C1111",
"q. c #8D1111",
"w. c #8E1111",
"e. c #8F1111",
"r. c #901111",
"t. c #911111",
"y. c #921111",
"u. c #931111",
"i. c #901212",
"p. c #921212",
"a. c #931212",
"s. c #941212",
"d. c #951212",
"f. c #961212",
"g. c #971212",
"h. c #981212",
"j. c #991212",
"k. c #C60001",
"l. c #C80003",
"z. c #C90004",
"x. c #CB0006",
"c. c #CC0007",
"v. c #CE0009",
"b. c #CF000A",
"n. c #D1000C",
"m. c #D2000D",
"M. c #D4000F",
"N. c #D50010",
"B. c #D70012",
"V. c #D80113",
"C. c #DA0315",
"Z. c #DB0416",
"A. c #8D7F31",
"S. c #218136",
"D. c #228237",
"F. c #248439",
"G. c #25853A",
"H. c #27873C",
"J. c #28883D",
"K. c #2A8A3F",
"L. c #2B8B40",
"P. c #2D8D42",
"I. c #8F8133",
"U. c #908234",
"Y. c #928436",
"T. c #938537",
"R. c #958739",
"E. c #96883A",
"W. c #988A3C",
"Q. c #998B3D",
"!. c #9B8D3F",
"~. c #A29446",
"^. c #F7E26B",
"/. c #979797",
"(. c gray60",
"). c #9A9A9A",
"_. c gray61",
"`. c #9D9D9D",
/* pixels */
"b b b b b b b b b b b b b b b b b b b b b b b b b b b b b b b b b b b b b b b b b b b b b b b b b b b b b b b b b b b b b b b b ",
"b b b b b b b b b b b b b b b b b b b b b b b b b b b b b b b b b b b b b b b b b b b b b b b b b b b b b b b b b b b b b b b b ",
"b b b b b b b b b b b b b b b b b b b b b b b b b b b b b b b b b b b b b b b b b b b b b b b b b b b b b b b b b b b b b b b b ",
"b b b b b b b b b b b b b b b b b b b b b b b b b b b b b b b b b b b b b b b b b b b b b b b b b b b b b b b b b b b b b b b b ",
"b b b b b b b b b b b b b b b b b b b b b b b b x x x z z z z z x x x b b b b b b b b b b b b b b b b b b b b b b b b b b b b b ",
"b b b b b b b b b b b b b b b b b b b b b b z z l k k f f f f f k k l z z b b b b b b b b b b b b b b b b b b b b b b b b b b b ",
"b b b b b b b b b b b b b b b b b b b x x z f d d i u u y y y u u i d d f z x x b b b b b b b b b b b b b b b b b b b b b b b b ",
"b b b b b b b b b b b b b b b b b b x z k f u y r e 0 8 8 7 8 8 0 e r y u d k l x x b b b b b b b b b b b b b b b b b b b b b b ",
"b b b b b b b b b x z z z z z z z j h u t e 6 3 3 2 1 < < < < < , 1 1 3 9 r y i s j k l l z z z z z z z z x b b b b b b b b b b ",
"b b b b b b b b b G H H H H H G $.H F A M x h y : - = * * & * , 1 3 4 0 t d l V S G P %.&.&.H H H H H H H G b b b b b b b b b b ",
"b b b b b b b b n 6.0.8.8.8.6.8.y.e.0.3.;.+.F b & @ + O O O O 1 6 6 e y s x A ,.7.q.t.u.s.d.8.5.6.6.6.8.8.6.n x b b b b b b b b ",
"b b b b b b b b n 5.8.6.6.6.2.;.q.4.;.%.G . . . . . . . . . . . . . . . . . k J -.<.9.q.e.r.1.;.>.1.1.2.6.5.*.x b b b b b b b b ",
"b b b b b b b b n 5.8.6.6.2.-.&.3.&.G N l . ~.~.~.~.~.~.~.~.~.~.~.~.~.~.~.. 9 x S O.;.3.9.0.*.%.&.*.-.-.2.2.-.2.G b b b b b b b ",
"b b b b b b b b n 5.8.6.2.>.&.P ;.G N j y . ~.~.~.~.~.~.~.~.~.~.~.~.~.~.~.. 1 u z C O.-.<.<.P K L P $.%.;.1.:.,.,.b b b b b b b ",
"b b b b b b b b n 5.8.5.1.*.P F $.N j y y . ~.~.~.~.~.~.~.~.~.~.~.~.~.~.~.. 1 t u l S H &.*.S C A F G L &.-.1.1.;.B b b b b b b ",
"b b b b b b b b n 2.6.1.-.$.F V F l y y y . ~.~.~.~.~.~.~.~.~.~.~.~.~.~.~.. 1 t y y x C G H m l v m M C L %.-.1.1.%.b b b b b b ",
"b b b b b b b b n q.e.9.3.*.H Z . . . . . . ~.~.~.~.~.~.~.~.~.~.~.~.~.~.~.. . . . . . z n A . . . . . . . %.%.-.>.*.b b b b b b ",
"b b b b b b b x N d.f.t.q.3.+.A . ~.~.~.~.~.^.^.^.^.^.^.^.^.^.^.^.^.^.^.^.^.^.^.^.^.. y y d . `.`.`.`.`.. H K $.*.&.x b b b b b ",
"b b b b b b b x N s.s.e.8.-.H b . ~.~.~.~.~.^.^.^.^.^.^.^.^.^.^.^.^.^.^.^.^.^.^.^.^.. y y y . `.`.`.`.`.. V S L %.&.z b b b b b ",
"b b b b b b b x N a.u.w.3.&.S l . ~.~.~.~.~.^.^.^.^.^.^.^.^.^.^.^.^.^.^.^.^.^.^.^.^.. y y y . `.`.`.`.`.. n C G $.*.l x b b b b ",
"b b b b b b b x N p.y.q.<.O.B d . ~.~.~.~.~.^.^.^.^.^.^.^.^.^.^.^.^.^.^.^.^.^.^.^.^.. y y y . `.`.`.`.`.. b M S L S l x b b b b ",
"b b b b b b b x N p.r.9.;.H b y . ~.~.~.~.~.^.^.^.^.^.^.^.^.^.^.^.^.^.^.^.^.^.^.^.^.. y y y . `.`.`.`.`.. v v C K f k x b b b b ",
"b b b b b b b x N i.r.8.*.F z y . ^.^.^.^.^.^.^.^.^.^.          ^.^.^.^.^.          . y y y . `.`.`.`.`.. v l V G i k z b b b b ",
"b b b b b b b x n y.t.7.*.S l u . ^.^.^.^.^.^.^.^.^.^.          ^.^.^.^.^.          . u u u . `.`.`.`.`.. x k v F u f z b b b b ",
"b b b b b b b x b #.+.D x u 3 1 . ^.^.^.^.^.^.^.^.^.^.          ^.^.^.^.^.          . 0 0 0 . `.`.`.`.`.. a j m S u f z b b b b ",
"b b b b b b b b z i r 4 > % X X . ^.^.^.^.^.^.^.^.^.^.          ^.^.^.^.^.          . < < < . `.`.`.`.`.. e h m A y f l b b b b ",
"b b b b b b b x l d t 4 ; $ O O . ^.^.^.^.^.^.^.^.^.^.          ^.^.^.^.^.          . < < < . `.`.`.`.`.. e s v C y d l b b b b ",
"b b b b b b b x k i e 2 = + O O . Z.Z.Z.Z.Z.Z.Z.Z.Z.Z.Z.Z.Z.Z.Z.Z.Z.Z.Z.Z.Z.Z.Z.Z.Z.. < < < . `.`.`.`.`.. 0 s x C y d l b b b b ",
"b b b b b b b z f y 8 < % O O O . C.C.C.C.C.C.C.C.C.C.C.C.C.C.C.C.C.C.C.C.C.C.C.C.C.. < < < . _._._._._.. 6 a k V y d l b b b b ",
"b b b b b b x l d r 4 > @ O O O . V.V.V.V.V.V.V.V.V.V.V.V.V.V.V.V.V.V.V.V.V.V.V.V.V.. < < < . ).).).).).. 5 ; < 8 y d l b b b b ",
"b b b b b b z f u 0 < - o o o o . B.B.B.B.B.B.B.B.B.B.B.B.B.B.B.B.B.B.B.B.B.B.B.B.B.. 1 1 1 . (.(.(.(.(.. 6 - < 8 y d l b b b b ",
"b b b b b b z d y u 0 . . . . . . N.N.N.N.N.N.N.N.N.N.N.N.N.N.N.N.N.N.N.N.N.N.N.N.N.. . . . . /././././.. > - < 8 y d l b b b b ",
"b b b b b x f u r v h . o.o.o.o.o.o.o.o.o.o.P.P.P.P.P.M.M.M.M.M.M.M.M.M.M.M.M.M.M.M.o.o.o.o.o.!.!.!.!.!.. + = < 8 y d l b b b b ",
"b b b b b z f y 8 k y . ....................L.L.L.L.L.m.m.m.m.m.m.m.m.m.m.m.m.m.m.m...........Q.Q.Q.Q.Q.. @ = < 8 y d l b b b b ",
"b b b b b l d t 8 j r .  . . . . . . . . . .K.K.K.K.K.n.n.n.n.n.n.n.n.n.n.n.n.n.n.n. . . . . .W.W.W.W.W.. # - 1 8 y f z b b b b ",
"b b b b x l d t 7 h e . | | | | | | | | | | J.J.J.J.J.b.b.b.b.b.b.b.b.b.b.b.b.b.b.b.| | | | | E.E.E.E.E.. $ ; 2 0 u f z b b b b ",
"b b b b x l d r 7 s e . } } } } } } } } } } H.H.H.H.H.v.v.v.v.v.v.v.v.v.v.v.v.v.v.v.} } } } } R.R.R.R.R.. % : 3 e u f z b b b b ",
"b b b b x l d r 7 s e . T.T.T.T.T.{ { { { { G.G.G.G.G.G.G.G.G.G.c.c.c.c.c.G.G.G.G.G.. . . . . ~ ~ ~ ~ ~ . = < 4 r i k x b b b b ",
"b b b b x l d t 7 s 0 . Y.Y.Y.Y.Y.[ [ [ [ [ F.F.F.F.F.F.F.F.F.F.x.x.x.x.x.F.F.F.F.F.. X X X . ! ! ! ! ! . = 1 8 t d l x b b b b ",
"b b b b b l d t 8 z i . U.U.U.U.U.] ] ] ] ] D.D.D.D.D.D.D.D.D.D.z.z.z.z.z.D.D.D.D.D.. = = = . Q Q Q Q Q . w 4 e u d l x b b b b ",
"b b b b b z f t q H N . I.I.I.I.I.' ' ' ' ' S.S.S.S.S.S.S.S.S.S.l.l.l.l.l.S.S.S.S.S.. u u u . W W W W W . O.q r i k z b b b b b ",
"b b b b b x k y t J B . A.A.A.A.A.` ` ` ` ` X.X.X.X.X.X.X.X.X.X.k.k.k.k.k.X.X.X.X.X.. y y y . E E E E E . A x h d l x b b b b b ",
"b b b b b b z i i *.J . . . . . . _ _ _ _ _ _ _ _ _ _ _ _ _ _ _ _ _ _ _ _ _ _ _ _ _ . y y y . . . . . . . K P %.l x b b b b b b ",
"b b b b b b x j d ;.@.A i y y y . ) ) ) ) ) ) ) ) ) ) ) ) ) ) ) ) ) ) ) ) ) ) ) ) ) . y y y i d x C G %.7.%.*.=.z b b b b b b b ",
"b b b b b b x k f <.;.G l y y y . ( ( ( ( ( ( ( ( ( ( ( ( ( ( ( ( ( ( ( ( ( ( ( ( ( . y y u z b A H &.;.q.-.>.>.x b b b b b b b ",
"b b b b b b b l g 8.3.@.N f u u . / / / / / / / / / / / / / / / / / / / / / / / / / . y y l B F O.-.3.9.t.1.2.2.b b b b b b b b ",
"b b b b b b b z x 5.;.P V j e e . ^ ^ ^ ^ ^ ^ ^ ^ ^ ^ ^ ^ ^ ^ ^ ^ ^ ^ ^ ^ ^ ^ ^ ^ ^ . y j n C C F O.&.;.5.2.6.5.b b b b b b b b ",
"b b b b b b b b x %.P A c s 0 1 . R R R R R . . . . . . . . . . . . . . . R R R R R . j n S m V F P &.-.2.5.6.5.b b b b b b b b ",
"b b b b b b b b b -.&.L V l a e . T T T T T . t 1 < < < < < < O o O O O . T T T T T . b F J A F P &.;.2.6.5.6.5.b b b b b b b b ",
"b b b b b b b b n >.-.$.F M k a . Y Y Y Y Y . t 1 < < < < < < O o O O O . Y Y Y Y Y . A J *.G P &.;.2.5.6.6.6.1.b b b b b b b b ",
"b b b b b b b b n 1.1.&.L A m l . U U U U U . t 2 5 6 6 9 9 6 $ @ + O O . U U U U U . H &.,.$.%.-.1.5.6.6.6.6.&.b b b b b b b b ",
"b b b b b b b b n 2.2.-.%.L A M . I I I I I . z t p a s s s a : = = * & . I I I I I . &.,.6.&.-.1.5.6.6.6.5.5.V b b b b b b b b ",
"b b b b b b b b n 5.8.2.;.&.P H . . . . . . . H x m m M M M m 7 2 2 1 < . . . . . . . 4.0.w.,.2.5.6.6.6.6.5.n x b b b b b b b b ",
"b b b b b b b b n 6.9.8.8.8.8.9.g.h.h.h.h.h.h.g.9.8.8.8.8.8.6.n x b b b b x N f.j.h.h.h.h.f.9.8.6.6.8.8.8.6.n x b b b b b b b b ",
"b b b b b b b b n &.*.&.&.&.&.*.8.9.9.9.9.9.9.8.*.&.&.&.&.&.&.n x b b b b x n 8.0.9.9.8.8.6.5.5.6.6.5.5.5.1.n x b b b b b b b b ",
"b b b b b b b b b x x x x x x x z z z z z z z z x x x x x x x b b b b b b b b z z z z 2.6.5.6.6.6.5.x x x x b b b b b b b b b b ",
"b b b b b b b b b b b b b b b b b b b b b b b b b b b b b b b b b b b b b b b b b b b S 6.5.6.6.6.;.b b b b b b b b b b b b b b ",
"b b b b b b b b b b b b b b b b b b b b b b b b b b b b b b b b b b b b b b b b b b b b 5.6.6.6.6.-.b b b b b b b b b b b b b b ",
"b b b b b b b b b b b b b b b b b b b b b b b b b b b b b b b b b b b b b b b b b b b b b b A G $.N b b b b b b b b b b b b b b ",
"b b b b b b b b b b b b b b b b b b b b b b b b b b b b b b b b b b b b b b b b b b b b b b b b b b b b b b b b b b b b b b b b ",
"b b b b b b b b b b b b b b b b b b b b b b b b b b b b b b b b b b b b b b b b b b b b b b b b b b b b b b b b b b b b b b b b ",
"b b b b b b b b b b b b b b b b b b b b b b b b b b b b b b b b b b b b b b b b b b b b b b b b b b b b b b b b b b b b b b b b ",
"b b b b b b b b b b b b b b b b b b b b b b b b b b b b b b b b b b b b b b b b b b b b b b b b b b b b b b b b b b b b b b b b ",
"b b b b b b b b b b b b b b b b b b b b b b b b b b b b b b b b b b b b b b b b b b b b b b b b b b b b b b b b b b b b b b b b "
};
