/* XPM */
static char *result[] = {
/* columns rows colors chars-per-pixel */
"64 64 218 2 ",
"   c #0C0C0C",
".  c #100F0D",
"X  c #540A0A",
"o  c #550A0A",
"O  c #560A0A",
"+  c #570A0A",
"@  c #580A0A",
"#  c #590B0B",
"$  c #5A0B0B",
"%  c #5B0B0B",
"&  c #5C0B0B",
"*  c #5D0B0B",
"=  c #5E0B0B",
"-  c #5F0B0B",
";  c #600B0B",
":  c #610B0B",
">  c #610C0C",
",  c #620C0C",
"<  c #630C0C",
"1  c #640C0C",
"2  c #650C0C",
"3  c #660C0C",
"4  c #670C0C",
"5  c #660D0D",
"6  c #670D0D",
"7  c #680C0C",
"8  c #690C0C",
"9  c #680D0D",
"0  c #690D0D",
"q  c #6A0C0C",
"w  c #6B0C0C",
"e  c #6A0D0D",
"r  c #6B0D0D",
"t  c #6C0D0D",
"y  c #6D0D0D",
"u  c #6E0D0D",
"i  c #6F0D0D",
"p  c #6D0E0E",
"a  c #6E0E0E",
"s  c #6F0E0E",
"d  c #700D0D",
"f  c #710D0D",
"g  c #730D0D",
"h  c #700E0E",
"j  c #710E0E",
"k  c #720E0E",
"l  c #730E0E",
"z  c #740E0E",
"x  c #750E0E",
"c  c #740F0F",
"v  c #750F0F",
"b  c #760E0E",
"n  c #770E0E",
"m  c #760F0F",
"M  c #770F0F",
"N  c #780E0E",
"B  c #790E0E",
"V  c #780F0F",
"C  c #790F0F",
"Z  c #7A0E0E",
"A  c #7A0F0F",
"S  c #7B0F0F",
"D  c #7C0E0E",
"F  c #7C0F0F",
"G  c #7D0F0F",
"H  c #7E0F0F",
"J  c #7F0F0F",
"K  c #7D1010",
"L  c #7E1010",
"P  c #7F1010",
"I  c #4B2000",
"U  c #4D2200",
"Y  c #4E2300",
"T  c #502500",
"R  c #512600",
"E  c #5A2F02",
"W  c #5C3104",
"Q  c #5D3205",
"!  c #5F3407",
"~  c #603508",
"^  c #0C571C",
"/  c #0D581D",
"(  c #0E591E",
")  c #0F5A1F",
"_  c #105B20",
"`  c #105C20",
"'  c #105C21",
"]  c #115C21",
"[  c #115D21",
"{  c #125D22",
"}  c #125E22",
"|  c #125F22",
" . c #135E23",
".. c #125F23",
"X. c #155D22",
"o. c #145E23",
"O. c #145F23",
"+. c #145F24",
"@. c #155F24",
"#. c #136023",
"$. c #136024",
"%. c #156124",
"&. c #156025",
"*. c #156125",
"=. c #166024",
"-. c #146224",
";. c #146225",
":. c #156325",
">. c #166126",
",. c #196426",
"<. c #1A652A",
"1. c #1B662B",
"2. c #1D6628",
"3. c #1C672C",
"4. c #800F0F",
"5. c #810F0F",
"6. c #820F0F",
"7. c #840F0F",
"8. c #801010",
"9. c #811010",
"0. c #821010",
"q. c #831010",
"w. c #821111",
"e. c #841010",
"r. c #851010",
"t. c #841111",
"y. c #851111",
"u. c #861010",
"i. c #871010",
"p. c #861111",
"a. c #871111",
"s. c #881010",
"d. c #891010",
"f. c #881111",
"g. c #891111",
"h. c #8A1010",
"j. c #8A1111",
"k. c #8B1111",
"l. c #8C1111",
"z. c #8D1111",
"x. c #8E1111",
"c. c #8F1111",
"v. c #901111",
"b. c #911111",
"n. c #921111",
"m. c #931111",
"M. c #901212",
"N. c #921212",
"B. c #931212",
"V. c #941212",
"C. c #951212",
"Z. c #961212",
"A. c #971212",
"S. c #981212",
"D. c #991212",
"F. c #D50010",
"G. c #D70012",
"H. c #D80113",
"J. c #D90214",
"K. c #D90314",
"L. c #DA0315",
"P. c #D80414",
"I. c #D90515",
"U. c #DB0416",
"Y. c #D90916",
"T. c #D90A17",
"R. c #DD161D",
"E. c #8D7F31",
"W. c #8F8133",
"Q. c #908234",
"!. c #928436",
"~. c #938537",
"^. c #958739",
"/. c #96883A",
"(. c #988A3C",
"). c #998B3D",
"_. c #9B8D3F",
"`. c #9C9043",
"'. c #A19345",
"]. c #A29446",
"[. c #A39546",
"{. c #A39547",
"}. c #A49647",
"|. c #A59647",
" X c #A59747",
".X c #A69748",
"XX c #A69848",
"oX c #A89A49",
"OX c #A99A49",
"+X c #AA9B49",
"@X c #AA9C4A",
"#X c #AD9E4B",
"$X c #AE9F4B",
"%X c #AFA04C",
"&X c #B0A14C",
"*X c #B8A850",
"=X c #C6B556",
"-X c #CBBA58",
";X c #D6C45D",
":X c #DBC95F",
">X c #DCC95F",
",X c #E8D464",
"<X c #E8D565",
"1X c #EAD665",
"2X c #EFDB68",
"3X c #F0DC68",
"4X c #F2DE69",
"5X c #F3DE69",
"6X c #F4DF6A",
"7X c #F4E06A",
"8X c #F5E06A",
"9X c #F6E16B",
"0X c #F7E26B",
"qX c #979797",
"wX c gray60",
"eX c #9A9A9A",
"rX c gray61",
"tX c #9D9D9D",
/* pixels */
"b b b b b b b b b b b b b b b b b b b b b b b b b b b b b b b b b b b b b b b b b b b b b b b b b b b b b b b b b b b b b b b b ",
"b b b b b b b b b b b b b b b b b b b b b b b b b b b b b b b b b b b b b b b b b b b b b b b b b b b b b b b b b b b b b b b b ",
"b b b b b b b b b b b b b b b b b b b b b b b b b b b b b b b b b b b b b b b b b b b b b b b b b b b b b b b b b b b b b b b b ",
"b b b b b b b b b b b b b b b b b b b b b b b b b b b b b b b b b b b b b b b b b b b b b b b b b b b b b b b b b b b b b b b b ",
"b b b b b b b b b b b b b b b b b b b b b b b b x x x z z z z z x x x b b b b b b b b b b b b b b b b b b b b b b b b b b b b b ",
"b b b b b b b b b b b b b b b b b b b b b b z z l k k f f f f f k k l z z b b b b b b b b b b b b b b b b b b b b b b b b b b b ",
"b b b b b b b b b b b b b b b b b b b x x z f d d i u u y y y u u i d d f z x x b b b b b b b b b b b b b b b b b b b b b b b b ",
"b b b b b b b b b b b b b b b b b b x z k f u y r e 0 8 8 7 8 8 0 e r y u d k l x x b b b b b b b b b b b b b b b b b b b b b b ",
"b b b b b b b b b x z z z z z z z j h u t e 6 3 3 2 1 < < < < < , 1 1 3 9 r y i s j k l l z z z z z z z z x b b b b b b b b b b ",
"b b b b b b b b b G H H H H H G 8.H F A M x h y : - = * * & * , 1 3 4 0 t d l V S G P 9.0.0.H H H H H H H G b b b b b b b b b b ",
"b b b b b b b b n g.l.j.j.j.g.j.n.c.l.s.r.5.F b & @ + O O O O 1 6 6 e y s x A u.h.z.b.m.V.C.j.f.g.g.g.j.j.g.n x b b b b b b b b ",
"b b b b b b b b n f.j.g.g.g.a.r.z.d.r.9.G                                   k J e.i.k.z.c.v.p.r.y.p.p.a.g.f.q.x b b b b b b b b ",
"b b b b b b b b n f.j.g.g.a.e.0.s.0.G N l   ].].].].].].].].].].].].].].].  9 x S 4.r.s.k.l.q.9.0.q.e.e.a.a.e.a.G b b b b b b b ",
"b b b b b b b b n f.j.g.a.y.0.P r.G N j y   ].].].].].].].].].].].].].].].  1 u z C 4.e.i.i.P K L P 8.9.r.p.t.u.u.b b b b b b b ",
"b b b b b b b b n f.j.f.p.q.P F 8.N j y y   ].].].].].].].].].].].].].].].  1 t u l S H 0.q.S C A F G L 0.e.p.p.r.B b b b b b b ",
"b b b b b b b b n a.g.p.e.8.F V F l y y y   ].].].].].].].].].].].].].].].  1 t y y x C G H m l v m M C L 9.e.p.p.9.b b b b b b ",
"b b b b b b b b n z.c.k.s.q.H Z           . `.[.].].].].].].].].].].].].].            z n A               9.9.e.y.q.b b b b b b ",
"b b b b b b b x N C.Z.b.z.s.5.A   ].].].].'.[.].].].].].].].].].].].].].[.|. XXX[.oX  y y d   tXtXtXtXtX  H K 8.q.0.x b b b b b ",
"b b b b b b b x N V.V.c.j.e.H b   ].].].]. X}.].[.}.|.}.[.].].].].].].].].].{.{.]..X  y y y   tXtXtXtXtX  V S L 9.0.z b b b b b ",
"b b b b b b b x N B.m.x.s.0.S l   ].].].].[.].].].].].].].].].].].].].].].].].].]..X  y y y   tXtXtXtXtX  n C G 8.q.l x b b b b ",
"b b b b b b b x N N.n.z.i.4.B d   ].].].].].].].].].].].].].].].].].[.[.].].[.XX}.&X  y y y   tXtXtXtXtX  b M S L S l x b b b b ",
"b b b b b b b x N N.v.k.r.H b y   ].].].].].].].].].].].].].[.[.].].].].].{.+X+X$X*X  y y y   tXtXtXtXtX  v v C K f k x b b b b ",
"b b b b b b b x N M.v.j.q.F z y   0X0X0X0X1X].].].].].].].].[.].].].].].].:X5X5X8X3X  y y y   tXtXtXtXtX  v l V G i k z b b b b ",
"b b b b b b b x n n.b.h.q.S l u   0X0X0X0X0X<X#X].].].].].[.].].].].].].}.,X0X0X6X5X  u u u   tXtXtXtXtX  x k v F u f z b b b b ",
"b b b b b b b x b 7.5.D x u 3 1   0X0X0X0X0X0X0X7XOX].}.[.].[.].[.]..X;X0X9X9X6X3X6X  0 0 0   tXtXtXtXtX  a j m S u f z b b b b ",
"b b b b b b b b z i r 4 > % X X   0X0X0X0X0X0X0X0X0X>X2X0X=X X@X#X%X-X0X0X0X9X4X4X9X  < < <   tXtXtXtXtX  e h m A y f l b b b b ",
"b b b b b b b x l d t 4 ; $ O O   0X0X0X0X0X0X0X0X0X0X0X0X0X0X0X0X0X0X0X0X0X8X9X6X4X  < < <   tXtXtXtXtX  e s v C y d l b b b b ",
"b b b b b b b x k i e 2 = + O O   U.U.U.U.U.U.U.U.U.R.Y.I.P.P.T.K.L.U.U.U.U.U.U.U.U.  < < <   tXtXtXtXtX  0 s x C y d l b b b b ",
"b b b b b b b z f y 8 < % O O O   L.L.L.L.L.L.L.L.L.J.H.H.H.H.H.H.J.L.L.L.L.L.L.L.L.  < < <   rXrXrXrXrX  6 a k V y d l b b b b ",
"b b b b b b x l d r 4 > @ O O O   H.H.H.H.H.H.H.H.H.H.H.H.H.H.H.H.H.H.H.H.H.H.H.H.H.  < < <   eXeXeXeXeX  5 ; < 8 y d l b b b b ",
"b b b b b b z f u 0 < - o o o o   G.G.G.G.G.G.G.G.G.G.G.G.G.G.G.G.G.G.G.G.G.G.G.G.G.  1 1 1   wXwXwXwXwX  6 - < 8 y d l b b b b ",
"b b b b b b z d y u 0             F.F.F.F.F.F.F.F.F.F.F.F.F.F.F.F.F.F.F.F.F.F.F.F.F.          qXqXqXqXqX  > - < 8 y d l b b b b ",
"b b b b b x f u r v h   >. . . . . . . . .] #.$.$.$.#...#.-.%.%.=.O.O.,.2.{ ] ] o.@.{ {  . .3._._._._._.  + = < 8 y d l b b b b ",
"b b b b b z f y 8 k y   ] {  . .&.>.&.] +.] } ] #.:.;.-.-.-.-.-.| -.#.} } _ _ ] ]  .{ ] { {  .).).).).).  @ = < 8 y d l b b b b ",
"b b b b b l d t 8 j r   ] _ { { _ _ _ _ ] _ ` _ _ ] [ [ [ ' ' ` ` ` _ ` _ _ _ X._ { { ] ] _ +.(.(.(.(.(.  # - 1 8 y f z b b b b ",
"b b b b x l d t 7 h e   ] { >. .] _ { _ _ _ _ ` _ _ _ _ _ _ _ _ _ _ _ _ _ _ _ _ _ ] _ _ ] ] >./././././.  $ ; 2 0 u f z b b b b ",
"b b b b x l d r 7 s e   { {  .&.&._ _ _ _ _ _ _ _ _ _ _ _ _ _ _ _ _ _ ' _ _ _ _ _ ] &.<.1.<.1.^.^.^.^.^.  % : 3 e u f z b b b b ",
"b b b b x l d r 7 s e   ~.~.~.~.~._ _ _ _ _ _ _ _ _ ` ' ' [ ] ] ' ' ` _ _ _ _ _ _ *.          ~ ~ ~ ~ ~   = < 4 r i k x b b b b ",
"b b b b x l d t 7 s 0   !.!.!.!.!.] _ _ ] _ _ _ _ ] _ ` ` _ _ _ _ _ _ _ _ _ _ _ _ +.  X X X   ! ! ! ! !   = 1 8 t d l x b b b b ",
"b b b b b l d t 8 z i   Q.Q.Q.Q.Q.&._ _ _ _ ` _ _ _ _ _ _ _ _ _ _ _ _ _ _ _ _ _ _ ]   = = =   Q Q Q Q Q   w 4 e u d l x b b b b ",
"b b b b b z f t q H N   W.W.W.W.W.&.&._ _ _ _ _ _ _ _ _ _ _ _ _ _ _ _ _ _ _ _ _ _ ]   u u u   W W W W W   4.q r i k z b b b b b ",
"b b b b b x k y t J B   E.E.E.E.E. . ._ _ _ ` ` ` _ _ ' _ _ _ _ _ _ _ _ _ _ _ _ _ _   y y y   E E E E E   A x h d l x b b b b b ",
"b b b b b b z i i q.J             { { _ _ _ _ _ ] { ] ] ] { { ] ] ] ] _ ] _ _ _ _ _   y y y               K P 9.l x b b b b b b ",
"b b b b b b x j d r.6.A i y y y   _ _ _ _ _ _ _ _ _ _ _ _ _ _ _ _ _ _ _ _ _ _ _ _ _   y y y i d x C G 9.h.9.q.w.z b b b b b b b ",
"b b b b b b x k f i.r.G l y y y   ) ) ) _ ) ) ) ) ) ) ) ) ) ) ) ) ) ) ) _ _ ] _ ) )   y y u z b A H 0.r.z.e.y.y.x b b b b b b b ",
"b b b b b b b l g j.s.6.N f u u   / / / / / / / / / / / / / / / / / / / / ) / ( / /   y y l B F 4.e.s.k.b.p.a.a.b b b b b b b b ",
"b b b b b b b z x f.r.P V j e e   ^ ^ ^ ^ ^ ^ ^ ^ ^ ^ ^ ^ ^ ^ ^ ^ ^ ^ ^ ^ ^ ^ ^ ^ ^   y j n C C F 4.0.r.f.a.g.f.b b b b b b b b ",
"b b b b b b b b x 9.P A c s 0 1   R R R R R                               R R R R R   j n S m V F P 0.e.a.f.g.f.b b b b b b b b ",
"b b b b b b b b b e.0.L V l a e   T T T T T   t 1 < < < < < < O o O O O   T T T T T   b F J A F P 0.r.a.g.f.g.f.b b b b b b b b ",
"b b b b b b b b n y.e.8.F M k a   Y Y Y Y Y   t 1 < < < < < < O o O O O   Y Y Y Y Y   A J q.G P 0.r.a.f.g.g.g.p.b b b b b b b b ",
"b b b b b b b b n p.p.0.L A m l   U U U U U   t 2 5 6 6 9 9 6 $ @ + O O   U U U U U   H 0.u.8.9.e.p.f.g.g.g.g.0.b b b b b b b b ",
"b b b b b b b b n a.a.e.9.L A M   I I I I I   z t p a s s s a : = = * &   I I I I I   0.u.g.0.e.p.f.g.g.g.f.f.V b b b b b b b b ",
"b b b b b b b b n f.j.a.r.0.P H               H x m m M M M m 7 2 2 1 <               d.l.x.u.a.f.g.g.g.g.f.n x b b b b b b b b ",
"b b b b b b b b n g.k.j.j.j.j.k.A.S.S.S.S.S.S.A.k.j.j.j.j.j.g.n x b b b b x N Z.D.S.S.S.S.Z.k.j.g.g.j.j.j.g.n x b b b b b b b b ",
"b b b b b b b b n 0.q.0.0.0.0.q.j.k.k.k.k.k.k.j.q.0.0.0.0.0.0.n x b b b b x n j.l.k.k.j.j.g.f.f.g.g.f.f.f.p.n x b b b b b b b b ",
"b b b b b b b b b x x x x x x x z z z z z z z z x x x x x x x b b b b b b b b z z z z a.g.f.g.g.g.f.x x x x b b b b b b b b b b ",
"b b b b b b b b b b b b b b b b b b b b b b b b b b b b b b b b b b b b b b b b b b b S g.f.g.g.g.r.b b b b b b b b b b b b b b ",
"b b b b b b b b b b b b b b b b b b b b b b b b b b b b b b b b b b b b b b b b b b b b f.g.g.g.g.e.b b b b b b b b b b b b b b ",
"b b b b b b b b b b b b b b b b b b b b b b b b b b b b b b b b b b b b b b b b b b b b b b A G 8.N b b b b b b b b b b b b b b ",
"b b b b b b b b b b b b b b b b b b b b b b b b b b b b b b b b b b b b b b b b b b b b b b b b b b b b b b b b b b b b b b b b ",
"b b b b b b b b b b b b b b b b b b b b b b b b b b b b b b b b b b b b b b b b b b b b b b b b b b b b b b b b b b b b b b b b ",
"b b b b b b b b b b b b b b b b b b b b b b b b b b b b b b b b b b b b b b b b b b b b b b b b b b b b b b b b b b b b b b b b ",
"b b b b b b b b b b b b b b b b b b b b b b b b b b b b b b b b b b b b b b b b b b b b b b b b b b b b b b b b b b b b b b b b ",
"b b b b b b b b b b b b b b b b b b b b b b b b b b b b b b b b b b b b b b b b b b b b b b b b b b b b b b b b b b b b b b b b "
};
