/* XPM */
static char *result[] = {
/* columns rows colors chars-per-pixel */
"64 64 158 2 ",
"   c #000008",
".  c #550A0A",
"X  c #560A0A",
"o  c #570A0A",
"O  c #580A0A",
"+  c #590A0A",
"@  c #580B0B",
"#  c #5A0B0B",
"$  c #5B0B0B",
"%  c #5C0B0B",
"&  c #5D0B0B",
"*  c #5E0B0B",
"=  c #5F0B0B",
"-  c #600B0B",
";  c #610B0B",
":  c #620B0B",
">  c #610C0C",
",  c #620C0C",
"<  c #630C0C",
"1  c #640C0C",
"2  c #650C0C",
"3  c #660C0C",
"4  c #670C0C",
"5  c #680C0C",
"6  c #680D0D",
"7  c #690D0D",
"8  c #6B0C0C",
"9  c #6A0D0D",
"0  c #6B0D0D",
"q  c #6C0D0D",
"w  c #6D0D0D",
"e  c #6E0D0D",
"r  c #6F0D0D",
"t  c #6D0E0E",
"y  c #6E0E0E",
"u  c #6F0E0E",
"i  c #700D0D",
"p  c #710D0D",
"a  c #700E0E",
"s  c #710E0E",
"d  c #720E0E",
"f  c #730E0E",
"g  c #740E0E",
"h  c #750E0E",
"j  c #750F0F",
"k  c #760E0E",
"l  c #770E0E",
"z  c #760F0F",
"x  c #770F0F",
"c  c #780E0E",
"v  c #790E0E",
"b  c #780F0F",
"n  c #790F0F",
"m  c #7B0E0E",
"M  c #7A0F0F",
"N  c #7B0F0F",
"B  c #7C0F0F",
"V  c #7D0F0F",
"C  c #7E0F0F",
"Z  c #7F0F0F",
"A  c #7C1010",
"S  c #7D1010",
"D  c #7E1010",
"F  c #7F1010",
"G  c #800F0F",
"H  c #810F0F",
"J  c #820F0F",
"K  c #860F0F",
"L  c #801010",
"P  c #811010",
"I  c #821010",
"U  c #831010",
"Y  c #841010",
"T  c #851010",
"R  c #841111",
"E  c #851111",
"W  c #861010",
"Q  c #871010",
"!  c #861111",
"~  c #871111",
"^  c #881010",
"/  c #891010",
"(  c #881111",
")  c #891111",
"_  c #8A1010",
"`  c #8A1111",
"'  c #8B1111",
"]  c #8C1111",
"[  c #8D1111",
"{  c #8E1111",
"}  c #8F1111",
"|  c #8C1212",
" . c #8D1212",
".. c #8F1212",
"X. c #901111",
"o. c #911111",
"O. c #921111",
"+. c #931111",
"@. c #901212",
"#. c #911212",
"$. c #921212",
"%. c #931212",
"&. c #941212",
"*. c #951212",
"=. c #961212",
"-. c #971212",
";. c #981212",
":. c #991212",
">. c #9A1212",
",. c #0061D4",
"<. c #0063D6",
"1. c #0065D8",
"2. c #0067DA",
"3. c #0069DB",
"4. c #006BDD",
"5. c #006DDF",
"6. c #006FE1",
"7. c #0071E3",
"8. c #0073E5",
"9. c #0075E7",
"0. c #0077E9",
"q. c #199BFF",
"w. c #38ACFF",
"e. c #8B8B8B",
"r. c #8D8D8D",
"t. c gray56",
"y. c gray57",
"u. c #939393",
"i. c #959595",
"p. c #979797",
"a. c gray60",
"s. c #AAAAAA",
"d. c #ACACAC",
"f. c #AEAEAE",
"g. c gray69",
"h. c #B2B2B2",
"j. c #B4B4B4",
"k. c #B6B6B6",
"l. c gray72",
"z. c #B9B9B9",
"x. c #BBBBBB",
"c. c gray74",
"v. c gray75",
"b. c #C1C1C1",
"n. c #C3C3C3",
"m. c #C5C5C5",
"M. c gray78",
"N. c gray79",
"B. c #CECECE",
"V. c #D0D0D0",
"C. c #D2D2D2",
"Z. c gray83",
"A. c #D5D5D5",
"S. c #D7D7D7",
"D. c gray85",
"F. c gray86",
"G. c gray90",
"H. c #F4F4F4",
/* pixels */
"k k k k k k k k k k k k k k k k k k k k k k k k k k k k k k k k k k k k k k k k k k k k k k k k k k k k k k k k k k k k k k k k ",
"k k k k k k k k k k k k k k k k k k k k k k k k k k k k k k k k k k k k k k k k k k k k k k k k k k k k k k k k k k k k k k k k ",
"k k k k k k k k k k k k k k k k k k k k k k k k k k k k k k k k k k k k k k k k k k k k k k k k k k k k k k k k k k k k k k k k ",
"k k k k k k k k k k k k k k k k k k k k k k k k k k k k k k k k k k k k k k k k k k k k k k k k k k k k k k k k k k k k k k k k ",
"k k k k k k k k k k k k k k k k k k k k k k k k k k k k k k k k k k k k k k k k k k k k k k k k k k k k k k k k k k k k k k k k ",
"k k k k k k k k k k k k k k k k k k k k k k k k k k k k k k k k k k k k k k k k k k k k k k k k k k k k k k k k k k k k k k k k ",
"k k k k k k k k k k k k k k k k k k k k k k k k k k k k k k k k k k k k k k k k k k k k k k k k k k k k k k k k k k k k k k k k ",
"k k k k k k k k k k k k k k k k k k k k k k k k k k k k k k k k k k k k k k k k k k k k k k k k k k k k k k k k k k k k k k k k ",
"k k k k k k k k k h g g g g g g g f f f f f f g k k k k k k k h g g g g g g g g f f f f f g g g g g g g g h k k k k k k k k k k ",
"k k k k k k k k k V C C C C C C I U U U U U U I l k k k k k k V C C C C C C C I U U U U U I C C C C C C C V k k k k k k k k k k ",
"k k k k k k k k l ) ] ` ` ` ` ] -.;.;.;.;.;.>.=.c h k k k k l ) ] ` ` ` ` ` ] -.;.;.;.;.;.-.] ` ` ` ` ` ` ) l h k k k k k k k k ",
"k k k k k k k k l ( ` ) ) ) ) ` *.=.=.=.=.=.-.&.c h k k k k l ( ` ) ) ) ) ) ` *.=.=.=.=.=.*.` ) ) ) ) ) ) ( U h k k k k k k k k ",
"k k k k k k k k l ( ` ) ) ) ) ` &.&.%.O.X.} } ' i w r i i p g E ( ( ) ) ) ) ` *.=.=.=.=.=.*.` ) ) ) ) ) ) ( Y ~ V k k k k k k k ",
"k k k k k k k k l ( ` ) ) ) ) ) %.$.o.} [ ' _ T 0 7 9 q w r p U ~ ~ ( ) ) ) ` *.=.=.=.=.=.*.` ) ) ) ) ) ) ) ! W W k k k k k k k ",
"k k k k k k k k l ( ` ) ) ) ) ) #.X.{ ' / Q T L 4 1 3 5 9 q r L Y ! ( ) ) ) ` *.=.=.=.=.=.*.` ) ) ) ) ) ) ) ) ( W v k k k k k k ",
"k k k k k k k k l ~ ) ( ( ~ ~ ! { ] / W Y P G N : = , 1 3 5 9 A P I ! ( ( ) ` *.=.=.=.=.=.*.) ( ( ( ( ( ( ) ) ) ( P k k k k k k ",
"k k k k k k k k l [ } { [ ] ' ^ ` Q Y G                     3 x B F I ! ~ ( ` *.=.=.=.=.=.*.} { { { { { } ' ) ) ( Y k k k k k k ",
"k k k k k k k h c *.;.=.*.%.o.[ Q U Z N   H.H.H.H.G.G.G.G.  ; f n B L Y ! ~ ) *.=.=.=.=.=.=.-.-.-.-.-.-.;.[ ) ) ) W k k k k k k ",
"k k k k k k k h c &.-.*.%.o.{ / Y Z M k   H.H.H.H.G.G.G.G.  & u h b S P Y ! ) *.=.=.=.=.=.=.=.=.=.=.=.=.-.` ) ) ) ~ k k k k k k ",
"k k k k k k k h c &.-.&.O.} ' W G N k i   H.H.H.H.G.G.G.G.  + 0 s j M F I E ( *.=.=.=.=.=.=.=.=.=.=.=.=.-.] ) ) ) ) k k k k k k ",
"k k k k k k k h c &.-.%.X.[ / Y           H.H.H.H.G.G.G.G.          b S L Y ~ &.=.=.=.=.=.=.=.=.=.=.=.=.-.[ ) ) ( I k k k k k k ",
"k k k k k k k h c &.-.$.} ' Q P   G.G.G.G.G.G.G.G.N.N.N.N.G.G.G.G.  z N F I ~ &.=.=.=.=.=.=.=.=.=.=.=.=.-...) ) ( c k k k k k k ",
"k k k k k k k h c &.-.O.{ / Y Z   G.G.G.G.G.G.G.G.N.N.N.N.G.G.G.G.  f b V P ! &.=.=.=.=.=.=.=.=.=.=.=.=.-.#.) ) ) k k k k k k k ",
"k k k k k k k h c =.>.+.{ / Y C   G.G.G.G.G.G.G.G.N.N.N.N.G.G.G.G.  a h M F T &.=.-.-.-.-.-.-.-.-.-.-.-.;.%.) ~ ) k k k k k k k ",
"k k k k k k k h l / _ K H m k p   G.G.G.G.G.G.G.G.N.N.N.N.G.G.G.G.  2 0 a h N  ...@.#.#.#.#.#.#.#.#.#.#.$.| ) ) ) k k k k k k k ",
"k k k k k k k k k g g a q 6 < =   N.N.N.N.        q.q.q.q.w.w.w.w.  @ & , 4 w I ! ! ~ ( ( ( ( ( ( ( ( ( ( ( ) ) ( k k k k k k k ",
"k k k k k k k k k k k d r 9 3 ,   N.N.N.N.  X X   q.q.q.q.w.w.w.w.  o % > 3 q L Y ! ( ) ) ) ) ) ) ) ) ) ) ) ( ) ( k k k k k k k ",
"k k k k k k k k k k k f i 0 4 <   N.N.N.N.  X X   q.q.q.q.w.w.w.w.  X # * < 5 B P I ! ( ( ) ) ) ) ) ) ) ) ) ) ) ( k k k k k k k ",
"k k k k k k k k k k k f i q 5 <   N.N.N.N.        q.q.q.q.w.w.w.w.          1 x B F I ! ~ ( ) ) ) ) ) ) ) ( ( ~ ~ k k k k k k k ",
"k k k k k k k k k k k f i q 5 <           0.0.0.0.M.M.M.M.0.0.0.0.M.M.M.M.  ; f n B L Y ! ~ ( ) ) ) ) ) ) ( l h k k k k k k k k ",
"k k k k k k k k k h g f r 0 4 , % o . .   9.9.9.9.m.m.m.m.9.9.9.9.m.m.m.m.  & a l n C I Y ~ ) ` ` ` ` ` ` ) l h k k k k k k k k ",
"k k k k k k k k k V V N l f e 6 , & $ $   8.8.8.8.n.n.n.n.8.8.8.8.n.n.n.n.  + 2 9 e d z n B F P P I I I I P l h k k k k k k k k ",
"k k k k k k k k l ) ' ~ U D n f           7.7.7.7.b.b.b.b.7.7.7.7.b.b.b.b.          < 4 9 q r d g g h h h h k k k k k k k k k k ",
"k k k k k k k k l ( ` ! I S b d   6.6.6.6.v.v.v.v.F.F.F.F.F.F.F.F.6.6.6.6.v.v.v.v.  - 1 4 9 e p f h h k k k k k k k k k k k k k ",
"k k k k k k k k l ( ` E P V b d   5.5.5.5.c.c.c.c.D.D.D.D.D.D.D.D.5.5.5.5.c.c.c.c.  % - 1 5 q i d g h k k k k k k k k k k k k k ",
"k k k k k k k k l ( ` T L B x d   4.4.4.4.x.x.x.x.S.S.S.S.S.S.S.S.4.4.4.4.x.x.x.x.  O & ; 2 7 e i f h k k k k k k k k k k k k k ",
"k k k k k k k k l ( ` T L M j a   3.3.3.3.z.z.z.z.A.A.A.A.A.A.A.A.3.3.3.3.z.z.z.z.          5 q r p g k k k k k k k k k k k k k ",
"k k k k k k k k l ( ` T L M g y   2.2.2.2.l.l.l.l.Z.Z.Z.Z.Z.Z.Z.Z.Z.Z.Z.Z.2.2.2.2.l.l.l.l.  3 9 w i f k k k k k k k k k k k k k ",
"k k k k k k k k l ~ ) Y F n f t   1.1.1.1.k.k.k.k.C.C.C.C.C.C.C.C.C.C.C.C.1.1.1.1.k.k.k.k.  , 3 9 e s g f g k k k k k k k k k k ",
"k k k k k k k k l ] } / Y C c d   <.<.<.<.j.j.j.j.V.V.V.V.V.V.V.V.V.V.V.V.<.<.<.<.j.j.j.j.  8 i g v V H J H l k k k k k k k k k ",
"k k k k k k k h c *.;.O.[ W G v   ,.,.,.,.h.h.h.h.B.B.B.B.B.B.B.B.B.B.B.B.,.,.,.,.h.h.h.h.  B J ^ { +.;.:.=.c h k k k k k k k k ",
"k k k k k k k h c &.-.o.] W G M   a.a.a.a.g.g.g.g.g.g.g.g.g.g.g.g.g.g.g.g.g.g.g.g.a.a.a.a.  M G W ] o.=.*.] I b k k k k k k k k ",
"k k k k k k k h c &.-.o.[ Q I V   p.p.p.p.f.f.f.f.f.f.f.f.f.f.f.f.f.f.f.f.f.f.f.f.p.p.p.p.  V I Q [ o.=.%.) ( ~ k k k k k k k k ",
"k k k k k k k h c &.-.O.{ / Y Z   i.i.i.i.d.d.d.d.d.d.d.d.d.d.d.d.d.d.d.d.d.d.d.d.i.i.i.i.  Z Y / { O.=.-.` ) ! k k k k k k k k ",
"k k k k k k k h c &.-.$.} ' Q P   u.u.u.u.s.s.s.s.s.s.s.s.s.s.s.s.s.s.s.s.s.s.s.s.u.u.u.u.  P Q ' } $.=.-.' ) ~ k k k k k k k k ",
"k k k k k k k h c *.;.&.o.[ _ T           y.y.y.y.y.y.y.y.y.y.y.y.y.y.y.y.y.y.y.y.          T _ [ o.&.-.;.` ) ( k k k k k k k k ",
"k k k k k k k h c @.$...[ ` ~ I G N k i   t.t.t.t.t.t.t.t.t.t.t.t.t.t.t.t.t.t.t.t.  i k N G I R W ) ' [ ] ) ) ( k k k k k k k k ",
"k k k k k k k k l ~ ) ~ E U L S U Z M k   r.r.r.r.r.r.r.r.r.r.r.r.r.r.r.r.r.r.r.r.  k M Z U S L Y ! ( ) ) ( ) ( k k k k k k k k ",
"k k k k k k k k l ( ` ( ~ ! Y P W U Z N   e.e.e.e.e.e.e.e.e.e.e.e.e.e.e.e.e.e.e.e.  N Z U W P Y ! ~ ( ) ) ( ) ( k k k k k k k k ",
"k k k k k k k k l ( ` ) ( ~ ! U ` Q Y G                                             G Y Q ` U ! ~ ( ) ) ) ) ) ! k k k k k k k k ",
"k k k k k k k k l ( ` ) ) ) ) ` *.=.=.=.=.=.=.*.` ) ) ) ) ) ( l h k k k k h c &.-.=.=.=.=.*.` ) ) ) ) ) ) ) ) I k k k k k k k k ",
"k k k k k k k k l ( ` ) ) ) ) ` *.=.=.=.=.=.=.*.` ) ) ) ) ) ( l h k k k k h c &.-.=.=.=.=.*.` ) ) ) ) ) ) ( ( b k k k k k k k k ",
"k k k k k k k k l ( ` ) ) ) ) ` *.=.=.=.=.=.=.*.` ) ) ) ) ) ( l h k k k k h c &.-.=.=.=.=.*.` ) ) ) ) ) ) ( l h k k k k k k k k ",
"k k k k k k k k l ) ' ` ` ` ` ' -.;.;.;.;.;.;.-.' ` ` ` ` ` ) l h k k k k h c =.:.;.;.;.;.=.' ` ) ) ` ` ` ) l h k k k k k k k k ",
"k k k k k k k k l I U I I I I U ` ' ' ' ' ' ' ` U I I I I I I l h k k k k h l ` ] ' ' ` ` ) ( ( ) ) ( ( ( ! l h k k k k k k k k ",
"k k k k k k k k k h h h h h h h g g g g g g g g h h h h h h h k k k k k k k k g g g g ~ ) ( ) ) ) ( h h h h k k k k k k k k k k ",
"k k k k k k k k k k k k k k k k k k k k k k k k k k k k k k k k k k k k k k k k k k k N ) ( ) ) ) T k k k k k k k k k k k k k k ",
"k k k k k k k k k k k k k k k k k k k k k k k k k k k k k k k k k k k k k k k k k k k k ( ) ) ) ) Y k k k k k k k k k k k k k k ",
"k k k k k k k k k k k k k k k k k k k k k k k k k k k k k k k k k k k k k k k k k k k k k k M V L c k k k k k k k k k k k k k k ",
"k k k k k k k k k k k k k k k k k k k k k k k k k k k k k k k k k k k k k k k k k k k k k k k k k k k k k k k k k k k k k k k k ",
"k k k k k k k k k k k k k k k k k k k k k k k k k k k k k k k k k k k k k k k k k k k k k k k k k k k k k k k k k k k k k k k k ",
"k k k k k k k k k k k k k k k k k k k k k k k k k k k k k k k k k k k k k k k k k k k k k k k k k k k k k k k k k k k k k k k k ",
"k k k k k k k k k k k k k k k k k k k k k k k k k k k k k k k k k k k k k k k k k k k k k k k k k k k k k k k k k k k k k k k k ",
"k k k k k k k k k k k k k k k k k k k k k k k k k k k k k k k k k k k k k k k k k k k k k k k k k k k k k k k k k k k k k k k k "
};
