/* XPM */
static char *_2d9e1ee86b640799038f9d324838746twtaaV7UgX9rwGn7[] = {
/* columns rows colors chars-per-pixel */
"60 60 182 2 ",
"   c #000102",
".  c #0F0800",
"X  c #02010B",
"o  c #08000B",
"O  c #1A0804",
"+  c #1F100D",
"@  c #200804",
"#  c #270E09",
"$  c #2C0F0C",
"%  c #2D0D02",
"&  c #300703",
"*  c #300B02",
"=  c #3A0E05",
"-  c #330708",
";  c #360D0D",
":  c #3C0F0C",
">  c #2C120D",
",  c #351103",
"<  c #3B1206",
"1  c #37120B",
"2  c #3D110E",
"3  c #3D0F12",
"4  c #2F1414",
"5  c #211114",
"6  c #361413",
"7  c #3C1111",
"8  c #331914",
"9  c #3B1812",
"0  c #331419",
"q  c #391F1E",
"w  c #161125",
"e  c #251520",
"r  c #382322",
"t  c #3F2B2A",
"y  c #40110D",
"u  c #400F12",
"i  c #410F1A",
"p  c #401110",
"a  c #450A20",
"s  c #4A0C21",
"d  c #422927",
"f  c #422C2C",
"g  c #4A3735",
"h  c #F5CE05",
"j  c #FEC90D",
"k  c #F8C805",
"l  c #EFCF1A",
"z  c #FFC613",
"x  c #F5C914",
"c  c #FBCA13",
"v  c #FDC719",
"b  c #F2CD1E",
"n  c #FDC91A",
"m  c #F0D116",
"M  c #EFCD23",
"N  c #F5C72C",
"B  c #F6C92D",
"V  c #F2CD26",
"C  c #FBD52D",
"Z  c #F5D425",
"A  c #ECCA35",
"S  c #EBC757",
"D  c #EACE50",
"F  c #F1C952",
"G  c #EBD357",
"H  c #FBDE5E",
"J  c #FADD64",
"K  c #F7D66B",
"L  c #F8D76C",
"P  c #F8DA69",
"I  c #F0DC7D",
"U  c #AC28B2",
"Y  c #BA3EB8",
"T  c #C92DBE",
"R  c #BC3DC2",
"E  c #D70DDD",
"W  c #DC0BD8",
"Q  c #CC2EC1",
"!  c #C830C0",
"~  c #C03AC1",
"^  c #CD1AEF",
"/  c #D312EB",
"(  c #D11AE8",
")  c #CE18F9",
"_  c #CA1BF3",
"`  c #D017F8",
"'  c #E706F6",
"]  c #E606F9",
"[  c #E906F8",
"{  c #E907F1",
"}  c #6EA5CE",
"|  c #67A5D6",
" . c #66A5DE",
".. c #69A4DD",
"X. c #6EA8D8",
"o. c #70A1DC",
"O. c #75A0D3",
"+. c #709FE3",
"@. c #67A5E1",
"#. c #68A4E1",
"$. c #63A7E8",
"%. c #69A2E9",
"&. c #C5BFBF",
"*. c #869FC7",
"=. c #8B9EC6",
"-. c #A99AD3",
";. c #B693DA",
":. c #B891D2",
">. c #88AEDB",
",. c #99AFD6",
"<. c #8BB0DC",
"1. c #97B3D4",
"2. c #9AB1D3",
"3. c #96B1D8",
"4. c #98B5DF",
"5. c #A0B2DA",
"6. c #9D93F5",
"7. c #A982F7",
"8. c #A683FA",
"9. c #A882FB",
"0. c #A58EF8",
"q. c #A290F6",
"w. c #A492FA",
"e. c #C6C6C6",
"r. c #C8C6C7",
"t. c #C2CDC7",
"y. c #CBC9C6",
"u. c #CECECE",
"i. c gray81",
"p. c #CDCDCD",
"a. c #CCCCCC",
"s. c #D6C7CE",
"d. c #D3CECF",
"f. c #D1CDCB",
"g. c #CED0CE",
"h. c #D0D0CE",
"j. c #CFCED1",
"k. c #CECDD0",
"l. c #D0D0D0",
"z. c gray82",
"x. c #D0D2D1",
"c. c #D5D5D5",
"v. c #D3D3D3",
"b. c #DCDCDC",
"n. c #E1E1DF",
"m. c #EEE0DF",
"M. c #F2E0DE",
"N. c #DFE1E0",
"B. c #E2E3E3",
"V. c #E4E4E4",
"C. c gray90",
"Z. c #E6E5E7",
"A. c #E3E3E3",
"S. c #E9E7EA",
"D. c #E8E8E8",
"F. c #ECECEC",
"G. c #EBE8E7",
"H. c #F3E3E3",
"J. c #F7ECEA",
"K. c #F6F1ED",
"L. c #F6F6F6",
"P. c gray97",
"I. c gray96",
"U. c #F3F3F3",
"Y. c #FBFBF6",
"T. c #F8F8F8",
"R. c #F9F9F9",
"E. c gray98",
"W. c #FBFBFB",
"Q. c #FAF8F9",
"!. c #FDFDFB",
"~. c gray99",
"^. c #FDFDFD",
"/. c #FFFFFD",
"(. c #FFFDFE",
"). c #FEFEFE",
"_. c #FEFFFF",
"`. c white",
"'. c #FFFEFF",
"]. c #FDFEFD",
"[. c #FEFEFE",
"{. c #F6FAF9",
/* pixels */
"`.a.`.p.`.`.p.`.p.`.`.p.`.p.`.N.a.`.p.!.2 2 2 2 2 2 2 2 2 2 2 2 2 2 2 2 2 2 2 2 d.`.`.p.`.p.`.`.p.`.p.`.`.p.`.p.`.L.p.`.",
"p.`.p.`.a.a.`.p.`.a.p.T.p.`.p.S.`.p.`.d.2 2 2 2 2 2 2 2 2 2 2 2 2 2 2 2 2 2 2 2 `.p.a.`.a.`.p.p.`.p.`.p.p.`.p.`.a.c.`.p.",
"`.a.`.p.`.`.p.`.p.`.`.p.`.p.`.2 2 2 2 2 2 2 2 2 2 2 2 2 2 2 2 2 2 2 2 2 2 2 2 2 2 2 > a.`.p.`.`.p.`.p.`.`.p.`.p.`.L.p.`.",
"p.T.p.`.z.a.`.p.`.a.p.`.p.`.a.2 2 2 2 2 2 2 2 2 2 2 2 2 2 2 2 2 2 2 2 2 2 2 2 2 2 2 $ `.p.`.a.p.`.p.`.p.p.`.p.`.p.p.`.p.",
"`.a.`.a.T.`.a.`.p.T.`.e.`.2 y 2 2 2 2 7 2 7 2 2 2 2 2 2 2 2 2 2 2 2 2 2 2 2 2 2 7 2 p 7 7 k.T.T.a.`.a.`.`.a.`.a.`.L.a.`.",
"a.`.a.`.a.p.`.a.`.a.p.`.a.2 2 2 2 2 2 2 2 2 2 2 2 2 2 2 2 2 2 2 2 2 2 2 2 2 2 2 2 2 2 2 2 `.k.h.`.a.`.a.c.`.a.`.p.b.`.a.",
"p.`.p.`.p.p.`.p.`.a.r 2 1 2 2 2 2 2 2 2 7 2 2 2 2 2 2 2 2 2 2 2 2 2 2 2 2 2 2 2 2 2 2 2 2 2 y p.`.p.`.p.p.`.p.`.z.c.`.p.",
"T.e.T.p.`.`.p.T.p.T.f 2 2 2 2 2 2 2 2 2 7 2 2 2 2 2 2 2 2 2 2 2 2 2 2 2 2 2 2 2 2 2 2 2 2 2 2 !.p.T.p.T.T.p.T.p.`.U.p.T.",
"p.T.p.`.c.p.`.p.`.a.t 2 2 2 2 2 2 2 2 2 2 7 2 2 2 7 2 2 2 2 2 2 2 2 2 2 2 2 2 2 2 2 2 2 2 7 2 a.`.p.`.p.e.T.p.`.p.p.`.p.",
"`.a.`.a.`.`.a.`.p.`.f 2 2 7 2 2 2 7 7 7 2 2 2 2 2 2 2 2 2 2 7 2 2 2 2 2 2 2 2 2 7 2 2 7 2 2 2 `.a.`.a.`.`.p.`.a.`.L.a.`.",
"p.`.p.`.a.p.`.p.`.a.t 2 2 2 2 2 1 S h A 2 2 c c < 2 2 2 2 2 2 2 2 2 2 2 2 2 2 2 2 2 2 2 2 2 1 9 7 f `.p.a.`.p.`.a.c.`.p.",
"`.a.`.p.`.`.p.`.p.`.f 2 2 7 7 2 p F j N 7 7 j c 2 2 2 2 2 2 2 2 2 2 2 2 2 2 2 2 2 2 2 2 2 2 2 2 2 f p.`.`.p.`.p.`.L.p.`.",
"p.T.p.`.z.e.`.p.`.r.p.Y.f.2 2 2 p F j N 7 2 j j M l I 2 2 2 2 2 2 2 2 2 2 2 2 2 2 2 2 2 2 2 2 2 2 d `.p.a.`.p.`.p.z.`.p.",
"`.p.`.p.T.T.p.`.a.T.`.a.].7 2 2 7 F j N 7 7 j j j j L 2 2 2 2 2 2 2 2 2 2 2 2 2 2 2 2 2 2 2 2 2 2 d p.`.T.p.`.p.`.L.p.`.",
"z.`.z.`.e.e.`.z.`.e.z.`.k.7 9 J H C j C J P c j j j L 2 2 2 2 2 2 2 2 2 2 2 2 2 2 2 2 2 2 2 2 2 2 q `.z.a.`.z.`.a.c.`.z.",
"V.V.V.D.V.V.D.A.D.A.V.V.V.7 < v j c j j j j j j j j L 2 2 2 7 7 2 2 2 2 2 2 2 2 2 2 2 2 2 2 2 2 2 f D.V.V.D.V.D.V.V.D.V.",
"`.e.`.a.`.`.a.`.p.`.`.p.`.7 < c j j j j j j j j j j L 2 2 2 1 , * * % & 2 2 2 2 2 2 2 2 2 2 2 2 2 g a.`.T.a.`.a.`.U.a.`.",
"p.T.p.`.c.p.`.p.`.p.p.`.a.7 < c j j j j j j j j j j L 2 2 2 2 h j j j c 2 2 2 2 2 2 2 2 2 2 2 2 2 d `.p.e.L.p.`.p.a.`.p.",
"`.p.`.p.`.`.p.`.p.`.`.e.`.7 < c j Z b b V N j j j j L 2 2 7 2 x j j j c 2 2 2 2 2 2 2 2 2 2 2 2 2 t p.`.`.p.`.p.T.L.p.`.",
"p.`.p.`.a.a.`.p.`.a.p.T.p.7 < c z .         j j j j L 2 ; j j j j j j c 2 2 2 2 2 2 2 2 2 2 2 2 2 d `.p.p.`.p.`.a.c.`.p.",
"`.a.`.p.`.`.p.`.p.`.W.t.Y.6 8 v j O X X   X j j j j L 2 ; j j j j x j m 2 2 2 2 2 2 2 2 2 2 2 2 2 f p.`.`.p.`.p.`.L.p.`.",
"p.`.p.`.z.a.`.p.`.a.t 2 7 j j j j j j j j j j j j j L 2 1 j j z c < 2 7 2 2 2 2 2 2 2 2 2 2 2 2 2 d `.p.a.`.p.`.a.c.`.p.",
"`.p.`.p.T.T.p.`.a.T.f 2 1 j j j j j j j j j j j j j K < 1 j j v v , 2 2 2 2 2 2 2 2 2 2 2 2 2 2 2 f p.`.T.p.`.p.`.L.p.`.",
"a.T.p.`.a.p.`.a.L.a.f 2 1 j j j j j j j j j j j j c h z j c j 1 2 2 2 2 2 2 2 2 2 2 2 2 2 2 2 2 2 f `.a.a.T.a.`.a.b.`.a.",
"`.a.`.p.`.`.p.`.p.`.g 2 2 j j j c k j j j j j j j j j j c j j 7 7 2 2 2 2 2 2 2 2 2 2 2 2 2 2 7 : f a.`.`.p.`.p.`.L.p.`.",
"`.z.`.p.`.T.p.`.p.`.g 2 7         D j j j j j j j j j j c 7 2 2 2 2 2 2 2 2 2 2 2 2 2 2 2 2 2 !.p.`.p.`.L.a.`.p.T.U.p.`.",
"a.T.a.`.p.a.`.a.T.a.f 2 2     o X G j j j j j j j j j j c 7 2 2 2 2 2 2 2 2 2 2 2 2 7 2 2 2 2 z.`.a.`.a.p.T.a.`.a.p.`.a.",
"`.p.`.p.`.`.p.`.a.`.`.e.`.7 2 c j j j j j j j j j j j j j 7 2 2 2 2 2 2 2 2 2 2 2 7 4 p.`.2 2 !.p.`.p.`.T.g.`.a.L.L.p.`.",
"p.`.p.`.a.a.`.p.`.a.p.T.a.7 2 c j j j j j j j j j j j j j 7 2 2 7 2 7 2 2 2 2 2 2 : 4 `.p.2 2 f.`.p.`.p.p.`.p.`.a.c.`.p.",
"`.a.`.p.`.`.p.`.p.`.`.k.`.p.].6 7 3 3 3 3 3 3 3 7 7 < j z j j < 2 2 2 1 b.].2 7 s.`.`.p.`.p.~.`.a.`.p.`.`.p.`.p.`.L.p.`.",
"p.`.p.`.z.a.`.p.`.a.p.T.p.`.a.2 2 2 2 2 2 2 2 2 2 2 < j j j j < 2 2 2 2 D.p.2 2 ~.p.p.`.p.`.p.p.`.p.`.p.a.`.p.`.a.c.`.p.",
"`.a.`.p.`.`.p.`.z.`.`.a.`.p.T.b.z.`.a.`.a.g.{.p.7 2 < j j j j < 2 H.Y.d.b.`.p.`.a.W.`.p.`.a.`.`.p.`.p.`.T.a.`.p.`.L.p.`.",
"p.T.p.`.a.p.`.p.T.p.p.T.p.`.p.V.`.p.`.p.`.T.a.`.7 7 = k j j j i y K.a.T.F.p.~.p.`.p.p.`.p.`.p.p.`.p.`.p.p.T.p.`.a.b.`.p.",
"`.a.`.p.`.`.p.`.a.`.`.e.`.p.`.V.a.`.p.T.p.a.`.a.7 2 2 2 2 2 2 2 2 m.`.a.A.`.a.`.p.`.`.p.`.a.`.`.p.`.p.`.`.p.`.p.`.L.p.`.",
"D.A.D.A.F.D.A.D.b.D.D.b.D.A.D.D.b.D.A.F.n.b.F.n.7 2 2 2 2 2 2 7 2 J.D.A.V.D.A.F.A.F.D.A.D.b.D.F.A.D.A.D.D.b.D.A.A.F.A.D.",
"p.T.p.`.p.p.`.p.`.p.p.`.a.`.p.V.T.p.`.h.`.~.= 7 y 2 2 2 2 #.%.1 2 ; 2 6 Z.p.`.p.`.a.p.`.p.`.e.p.`.p.`.p.e.L.a.`.a.z.`.p.",
"`.a.`.a.T.`.a.`.e.`.`.p.`.a.T.A.p.`.a.`.a.z.2 2 2 2 2 2 2 ..#.6 2 2 2 2 b.`.a.`.a.`.T.a.`.a.`.`.a.`.a.`.T.p.`.a.L.L.a.`.",
"p.`.p.`.a.a.`.p.`.a.p.T.p.`.p.V.`.p.`.y.6 8 } +.o.o.o.o.X.#...6 2 5.%.O.1 6 `.p.`.p.p.`.p.`.p.p.`.p.`.p.p.`.p.`.a.c.`.p.",
"`.a.`.p.`.`.p.`.p.`.`.p.`.p.`.b.p.`.p.!.2 2 @.@.@.@.#.#.....#.6 1 ,.@...2 y a.`.p.`.`.a.`.p.`.`.p.`.p.`.`.p.`.p.`.L.p.`.",
"p.`.p.`.z.a.`.p.`.a.p.T.p.`.p.V.`.p.`.a.2 7 / / / / U 0 0 @.#.6 1 R / / 2 2 `.k.`.p.p.`.p.`.p.p.`.p.`.p.a.`.p.`.a.c.`.p.",
"`.p.`.p.T.T.p.`.a.`.`.a.`.p.T.A.p.`.p.!.7 7 ' [ [ [ T 7 7 #.#.6 1 ! [ ] 2 2 a.L.p.`.`.p.`.p.`.`.p.`.p.`.T.a.`.p.L.L.p.`.",
"p.`.p.T.a.p.T.p.`.z.p.`.p.T.p.V.!.+ @ 5 >.<.0.w.q.6.;.2 7 #.#.6 1 -.6.w.< y T.p.T.z.p.`.p.`.p.p.T.p.T.p.p.`.p.T.a.c.T.p.",
"`.z.`.a.`.`.a.`.a.`.`.p.`.a.`.A.a.# p 0 ..#.#.#.#.#.2.7 7 #. .6 7 3.#.#.2 2 a.`.a.`.`.p.`.a.`.`.a.`.a.`.`.p.`.a.`.L.a.`.",
"p.`.p.`.p.c.`.p.`.p.p.T.p.`.a.F.`.> 2 6 9.9.9.9.9.8.:.7 7 =.*.y 2 ;.8.7.2 2 `.c.`.b.a.`.p.`.c.z.`.p.`.p.c.L.p.`.e.A.`.p.",
"a.`.a.`.a.p.`.a.T.p.a.`.p.`.p.V.].$ : a ] ] ] ] ] ] Q 2 2 2 2 2 1 Q ] { 2 y `.a.`.z.p.`.a.`.p.p.`.a.`.a.a.T.a.`.p.c.`.a.",
"`.a.`.p.`.`.p.`.c.`.`.c.`.z.`.A.g.> 7 s ) ^ ^ _ W E Y 6 6 1 7 - 2 ~ ` ( 7 2 h.`.p.`.T.p.`.p.`.T.p.`.p.`.`.z.`.p.`.U.p.`.",
"a.`.a.`.p.a.`.a.`.p.a.T.p.`.p.V.`.> 7 4 @.@. . .7 y , c j c c < 2 3.#...2 y `.a.`.p.a.`.p.`.p.p.`.a.`.a.a.`.a.`.a.z.`.a.",
"`.a.`.p.`.`.p.`.p.`.`.p.`.p.`.b.a.> p 0 ..#.#.@.2 2 = j j j j < u 3.#.#.2 y a.`.p.`.`.a.`.p.`.`.p.`.p.`.`.p.`.p.`.T.p.`.",
"p.`.p.`.z.a.`.p.`.a.p.T.a.`.p.V.`.> p 0 ..#.#.#.2 2 < j j j j 1 u 3.#. .2 2 `.p.`.p.p.`.p.`.p.p.`.a.`.p.a.`.p.`.a.c.`.p.",
"`.p.`.p.`.`.p.`.a.`.`.p.`.p.`.A.a.> 2 e @.....$.; : , c c c j 6 = 4.#.#.2 y a.T.p.`.`.p.`.p.`.`.p.`.p.`.`.a.`.p.T.L.p.`.",
"p.T.a.`.p.a.`.a.`.p.a.`.p.`.p.V.`.a.`.&.2 2 ....@.#.2.7 2 2 2 #.#.#.#...2 7 `.p.`.z.p.`.a.`.e.e.`.a.`.a.z.T.a.`.z.z.`.a.",
"`.z.`.a.`.`.a.`.p.`.`.z.`.a.`.A.a.`.a.Y.2 2 ..@...#.1.7 2 2 6 @.#.#...| 2 2 a.`.a.`.`.a.`.a.`.`.a.`.a.`.`.p.`.a.`.L.a.`.",
"a.`.a.`.a.a.`.a.`.e.a.T.a.`.a.V.`.a.`.a.`.`.2 2 #.#...#.#.#...#. .w 2 7 F.a.`.a.`.p.a.`.a.`.a.a.`.a.`.a.a.`.a.`.a.c.`.a.",
"b.F.b.U.c.b.U.b.D.b.b.U.b.U.b.V.F.b.U.b.U.F.2 2 #.#.#.#.#.#.#.#. .w 2 7 V.b.U.b.U.A.b.F.b.F.b.b.U.b.U.b.b.D.b.U.b.A.U.b.",
"`.e.`.a.`.`.p.`.a.`.`.a.`.p.`.A.p.`.p.`.p.e.2 y y y y y y y u y y : 2 2 n.`.p.`.a.`.`.p.`.p.`.`.p.`.p.`.T.p.`.p.`.U.p.`.",
"a.`.a.`.z.a.`.a.T.z.a.T.a.`.a.V.`.a.`.a.`.`.y p 2 2 2 7 2 2 2 2 2 2 7 7 G.y.`.e.`.a.a.`.a.`.p.a.`.a.`.a.a.T.a.`.p.p.`.a.",
"`.a.`.p.`.`.a.`.p.`.`.p.`.p.`.b.p.`.p.T.p.p.`.a.7 2 2 2 2 2 2 2 2 M.`.a.b.`.p.`.p.`.`.a.`.p.`.`.a.`.a.`.`.p.`.p.`.L.p.`.",
"p.`.p.`.z.a.`.p.`.a.p.T.p.`.p.V.`.p.`.p.`.`.p.].7 2 2 2 2 2 2 2 2 J.a.`.D.p.`.p.`.p.p.`.p.`.p.p.`.p.`.a.a.`.p.`.a.c.`.p.",
"`.a.`.p.`.`.p.`.p.`.`.p.`.p.`.b.p.`.p.T.p.a.2 2 7 2 2 2 2 2 2 2 2 H.`.p.b.`.p.`.p.`.`.p.`.p.`.`.p.`.p.`.`.p.`.p.`.L.p.`.",
"a.`.a.`.a.a.`.a.`.a.a.`.a.`.a.V.`.a.`.a.`.`.2 2 2 2 2 2 2 2 2 2 2 K.a.`.V.a.`.p.`.c.p.`.a.T.e.a.`.a.`.a.a.`.a.`.p.z.`.p."
};
