/* XPM */
static char *_7ea145c592a4af8b246a40794b83cc1jcYAAKRU9BDtPQi8[] = {
/* columns rows colors chars-per-pixel */
"60 60 190 2 ",
"   c #000102",
".  c #010109",
"X  c #0C0605",
"o  c #2A0905",
"O  c #310C0E",
"+  c #3E0E0D",
"@  c #300B05",
"#  c #391405",
"$  c #3D110E",
"%  c #37150A",
"&  c #2D1518",
"*  c #361413",
"=  c #3C1111",
"-  c #3C1C1B",
";  c #351618",
":  c #29100C",
">  c #3D201F",
",  c #3A0C28",
"<  c #3C2221",
"1  c #3B2D2A",
"2  c #420F0D",
"3  c #41110C",
"4  c #461A0F",
"5  c #421107",
"6  c #450E17",
"7  c #411111",
"8  c #441A15",
"9  c #461C19",
"0  c #481C19",
"q  c #5B2C0D",
"w  c #433405",
"e  c #40211E",
"r  c #5A2B12",
"t  c #612B0F",
"y  c #422525",
"u  c #43262B",
"i  c #432A28",
"p  c #56332E",
"a  c #563431",
"s  c #573636",
"d  c #422833",
"f  c #613F3D",
"g  c #6B4209",
"h  c #7C520E",
"j  c #704803",
"k  c #62403E",
"l  c #4D4558",
"z  c #6D4D4A",
"x  c #664644",
"c  c #4F526B",
"v  c #50526B",
"b  c #55627B",
"n  c #7A6563",
"m  c #746665",
"M  c #82520E",
"N  c #825112",
"B  c #8E6606",
"V  c #8E670A",
"C  c #92660B",
"Z  c #8C6613",
"A  c #A3790C",
"S  c #875F3B",
"D  c #87613A",
"F  c #947729",
"G  c #8B7875",
"H  c #927C79",
"J  c #866E6E",
"K  c #BA880E",
"L  c #B48D0C",
"P  c #BC970C",
"I  c #AF971B",
"U  c #B69627",
"Y  c #CD9C0A",
"T  c #CB9D16",
"R  c #E2AE0E",
"E  c #F2BC1B",
"W  c #E1AF0D",
"Q  c #DDAE21",
"!  c #FCCB07",
"~  c #FFC70E",
"^  c #FFC90D",
"/  c #F5CD06",
"(  c #FFC714",
")  c #F6CC14",
"_  c #FDCA12",
"`  c #FACA1B",
"'  c #EECB16",
"]  c #F9CD22",
"[  c #FDD422",
"{  c #99817D",
"}  c #FFDE45",
"|  c #FCDE58",
" . c #FCE24F",
".. c #70588C",
"X. c #546282",
"o. c #5B6F98",
"O. c #597195",
"+. c #6D6B9B",
"@. c #5D7FAF",
"#. c #706BA5",
"$. c #9B0B92",
"%. c #960D8F",
"&. c #A80D99",
"*. c #AA0BA6",
"=. c #A30FA5",
"-. c #A013AD",
";. c #805CA5",
":. c #BD09C0",
">. c #C503C3",
",. c #DD07EA",
"<. c #D212EF",
"1. c #DD0CF5",
"2. c #DB12FE",
"3. c #E606F6",
"4. c #E607FA",
"5. c #E609F9",
"6. c #E109E6",
"7. c #9B7FEE",
"8. c #5C81A7",
"9. c #5D91C1",
"0. c #669DD6",
"q. c #6B87C8",
"w. c #67A5DD",
"e. c #6BA3DD",
"r. c #7DA8D5",
"t. c #66A5E1",
"y. c #69A4E1",
"u. c #968B8A",
"i. c #978986",
"p. c #9E908F",
"a. c #9E9392",
"s. c #A39593",
"d. c #AA9D9D",
"f. c #A29897",
"g. c #A78E8E",
"h. c #B9AAAB",
"j. c #BEBCBD",
"k. c #C3BDBD",
"l. c #C7C2BE",
"z. c #869FC8",
"x. c #86A0C5",
"c. c #9399F2",
"v. c #9A91F1",
"b. c #A187F5",
"n. c #A285F9",
"m. c #88AAE6",
"M. c #C4C3C3",
"N. c #CDC2C2",
"B. c #CCCCCC",
"V. c #C9CDC9",
"C. c #D0CECF",
"Z. c #D0D0CE",
"A. c #CECED0",
"S. c #D1CFD0",
"D. c #CFD1D0",
"F. c #D4D4D3",
"G. c #D9D9D7",
"H. c #D7D9D9",
"J. c #DCDCDC",
"K. c #D7D8D8",
"L. c #E3DFDE",
"P. c #E2E0DF",
"I. c #DFDFE1",
"U. c #DFE1E0",
"Y. c #E4E4E4",
"T. c #E8E5E6",
"R. c #EAE9E7",
"E. c #E7E7E9",
"W. c #E9E7E9",
"Q. c #E6E9E8",
"!. c #EBEBEB",
"~. c #F1EDEC",
"^. c #F2F2EF",
"/. c #EEEEF0",
"(. c #EFF1F0",
"). c #F1F1F1",
"_. c gray95",
"`. c #F3F3F3",
"'. c #F2F3F0",
"]. c gray97",
"[. c #F6F6F6",
"{. c #F5F5F4",
"}. c #F4F4F4",
"|. c #F7F9F9",
" X c #F9F9F9",
".X c white",
"XX c #FEFEFE",
"oX c #FDFCFD",
"OX c #FCFCFC",
"+X c #F8F8F6",
/* pixels */
".XF._.J.!..X!.K. XZ..XF._.J.Q.!.B.K.].k.8 $ $ $ $ $ $ $ $ $ $ $ $ $ $ $ $ $ $ 0 ^.F._.J.E.!.J._.F.Y..XF._.J.!.!.J._.F..X",
"B. XK.!.Y.B.J._.F..XC.].K.!.Y.Y..X_.F.`.9 $ $ $ $ $ $ $ $ $ $ $ $ $ $ $ $ $ $ 8 M.].H.!.E.Y.!.K. XE.B.].K.!.Y.Y.!.K. XB.",
".XF._.J.!..X!.K.].B..XF._.J.E.E.B.d.3 $ $ $ $ $ $ $ $ $ $ $ $ $ $ $ $ $ $ $ $ $ $ $ $ $ g.T.J._.F.Y..XF._.J.!.W.J._.F..X",
"B.].F.!.J.B.J._.F.OXB.].K.!.Y.Y..XN.$ $ $ $ $ $ $ $ $ $ $ $ $ $ $ $ $ $ $ $ $ $ $ $ $ $ { ~.!.K. X!.Z.].K.!.Y.Y.!.F.].B.",
".XF._.J.E..X!.K.].B..XF._.J.L.g.= $ 3 $ $ $ $ $ $ $ $ $ $ $ $ $ $ $ $ $ $ $ $ $ $ $ $ $ 2 7 s u.B.Y..XF._.J.T.W.J._.F..X",
"B.].F.!.!.F.Y._.F.oXB.].F.!.R.{ $ $ $ $ $ $ $ $ $ $ $ $ $ $ $ $ $ $ $ $ $ $ $ $ $ $ $ $ $ $ a p.].T.B._.F.!.Y.Y.!.F.].B.",
"B. XK.!.E.B.Y._.F..XB. Xs.p + + $ $ $ $ $ $ $ $ $ $ $ $ $ $ $ $ $ $ $ $ $ $ $ $ $ $ $ $ $ $ $ $ $ ; M. XK.!.Y.Y.!.K.].B.",
".XF._.J.E..X!.K.].S. XF.u.a $ $ $ $ $ $ $ $ $ $ $ $ $ $ $ $ $ $ $ $ $ $ $ $ $ $ $ $ $ $ $ $ $ $ = < `.F.!.J.E.!.J._.K. X",
"B.].F.!.Y.B.J._.F. XB.].a.p $ $ $ $ $ $ $ $ $ $ $ $ $ $ $ $ $ $ $ = = $ $ $ $ $ $ $ $ $ $ $ $ $ = > B.].K.!.Y.Y.!.F.].B.",
".XF._.J.!..X!.F.].B.OXF.u.a $ $ $ $ $ $ $ $ $ $ $ $ $ $ $ $ $ $ $ $ $ $ $ $ $ $ = = $ $ $ $ $ $ = < `.F._.K.E.E.J._.F..X",
"B. XK.!.Y.B.J._.F.].< * $ $ $ $ $ $ $ $ $ $ $ $ $ $ $ $ $ $ $ $ $ $ $ Z ) T $ 4 ' / j $ $ $ $ $ = - M.].K.!.Y.Y.!.K.].B.",
".XF._.J.!..X!.K.].M.- $ $ = $ $ $ $ $ $ $ $ $ $ $ $ $ $ $ $ $ $ $ $ $ C ^ Y $ 4 E ~ g $ $ $ $ $ = < `.F._.J.E.E.J._.F..X",
"B.].K.!.Y.B.J._.F.^.> $ $ $ $ $ $ $ $ $ $ $ $ $ $ $ $ $ $ $ $ $ = L / _ ^ Y $ 4 E ~ g % $ $ a s.OX!.B.}.H.!.Y.Y.!.K.].B.",
".XF._.J.E..X!.K.].M.- $ $ $ $ $ $ $ $ $ $ $ $ $ $ $ $ $ $ $ $ $ $ K ^ ^ ! Y $ 8 E ^ g % $ $ a u.B.Y..XF.!.J.!.!.J._.K..X",
"F. XJ.!.Y.B.Y._.F.^.- $ $ $ $ $ $ $ $ $ $ $ $ $ $ $ $ $ $ $ $ $ $ K ^ ^ ^ ] | | [ _ }  .F % p a..X!.M._.F.!.E.E.!.K.].F.",
"E.E.E.E.E.E.E.E.E.J.> $ $ $ $ $ $ $ $ $ $ $ $ $ $ $ * = = = $ $ $ K ^ ^ ^ ^ ^ ^ _ ^ ! ! B # p a.!.E.Y.E.E.E.E.E.E.E.E.E.",
".XF._.K.Y. X!.F.].M.< = $ $ $ $ $ $ $ $ $ $ $ = O o o o @ $ $ $ $ K ^ ^ ^ ^ ^ ^ ^ ^ ^ ^ B # s u.B.Y..XF.!.K.E.W.J._.F..X",
"B.].K.!.J.B.J._.F._.e $ $ $ $ $ $ $ $ $ $ $ $ % A ^ ^ ^ R $ = $ $ K ^ ^ ^ ^ ^ ^ ^ ^ ^ ^ B # p a.`.!.F.].K.!.Y.Y.!.K. XB.",
".XF._.J.!..X!.K.|.M.- $ $ $ $ $ $ $ $ $ $ $ $ $ A ^ ^ ^ W $ , = = K ^ ^ ^ _ ] ` ) ) / ! B # a u.B.Y. XF.!.J.!.!.J._.F..X",
"B. XK.!.Y.B.J._.F.^.> $ $ $ $ $ $ $ $ $ $ $ $ $ A ^ ^ ^ ^ ^ _ r $ K ^ ! ~ P         U ` B # a s..X!.B.].K.!.Y.Y.!.K.].B.",
".XF._.Y.!..X!.K.].M.- $ $ $ $ $ $ $ $ $ $ $ $ # A ! ^ ( ^ ^ _ q $ K ^ ^ ^ P   . . . I ) V * s u.V.P..XF._.J.!.!.J._.F..X",
"B.].K.!.Y.B.J._.F._.- $ $ $ $ $ $ $ $ $ $ $ = = = $ N ( ^ ^ ^ r $ K ^ ^ ^ ^ ^ ^ ^ ^ _ ^ ^ ^ Q S $ - M.].F.!.Y.Y.!.K.].B.",
".XF._.J.E..X!.K. XM.- = $ $ $ $ $ $ $ $ $ $ $ $ $ $ N ` _ ^ _ q $ K ^ ^ ^ ^ ^ ^ ^ ^ ^ ^ ^ ^ Q D = < `.F.!.K.!.!.J._.F..X",
"B.].F.!.Y.B.Y._.F._.< $ $ $ $ $ $ $ $ $ $ $ $ $ $ $ $ $ r ^ ^ _ ( _ ^ ^ ^ ^ ^ ^ ^ ^ ^ ^ ^ ^ Q D = > j._.F.!.Y.Y.!.K._.B.",
".XF._.J.E..X!.K.+XM.- $ + $ $ $ $ $ $ $ $ $ $ $ $ $ $ $ q ! ! ~ ^ ^ ^ ^ ^ ^ ^ ^ ^ ^ ! ! ! ^ Q D $ < `.F._.J.!.!.J._.F..X",
".XF._.J.J.].!.K.].B. XF.u.a $ $ $ $ $ $ $ $ $ $ $ $ $ $ $ $ = R ^ ^ ^ ^ ^ ^ ^ ^ ^ ^ w       X : = y (.D.!.J.E.E.J.!.F..X",
"B.].K.!.J.M.K._.F..XB.].f.a $ 3 $ $ $ $ $ $ $ $ $ $ = $ $ $ = R ^ ^ ^ ^ ^ ^ ^ ^ ^ ^ w . . . X : $ y M.!.F.!.Y.Y.!.J.].B.",
".XF._.J.E..X!.K.].B. XF.u.a O m F.d.= $ $ $ $ $ $ $ $ $ $ = = R ^ ^ ^ ^ ^ ^ ^ ^ ^ ^ ^ ^ B # p u.B.Y. XF.!.K.E.W.J._.F..X",
"B. XK.!.Y.B.J._.F..XB.|.s.a O G  XN.= $ $ $ $ $ $ $ $ = $ $ = R ^ ^ ^ ^ ^ ^ ^ ^ ^ ^ ^ ^ B # p s..X!.B.].K.!.Y.Y.!.K.].B.",
".XF._.L.!..X!.K. XB..XF._.I.Q.E.B.H.|.N.9 = N.J.n $ $ $ r ^ ( ( ^ N = = = = = = = = = = s.P.J.}.F.Y..XF._.J.!.!.J._.F..X",
"B.].K.!.Y.B.J._.F. XB. XK.!.Y.Y..X_.F.`.0 = d.!.H $ $ $ q ^ ^ ^ ^ M $ $ $ $ $ $ $ $ = $ { ~.!.K..XE.B.].F.!.Y.Y.!.K.].B.",
".XF._.J.E..X!.K.].B.OXF._.J.E.Y.M.K. XF.OXF._.Y.T.E.u.$ q ^ ^ ^ ^ M $ n J.}.J.B. XH.}.J.E.E.J.!.B.Y..XF._.J.!.!.J._.F..X",
"B.].K.!.Y.B.J._.F. XF.].K.!.Y.E..X_.F. XB.].H.!.Y.Y.h.$ q ^ ^ ^ ^ h $ H Q.F.!. XF.}.K.!.Y.Y.!.K..XE.B.].K.!.Y.Y.!.F._.B.",
".XF._.J.E..X!.K.].B. XF._.J.!.!.B.K.].B. XF._.J.E.E.i.% $ $ $ $ $ $ $ n H.].J.B. XF._.J.!.!.J._.B.Y..XF._.J.E.E.J._.Z..X",
"!.Y.!.Y.Y.!.E.Y.!.Y.!.Y.!.E.!.!.E.E.!.Y.!.E.!.E.E.E.s.$ = $ $ $ $ $ $ J Y.!.Y.Y.!.Y.E.E.E.E.E.E.Y.E.!.J.E.Y.E.E.E.E.J.!.",
"B.].K.!.J.B.J._.F..XB.].K.!.Y.Y..X_.F..XF.].K.!.G $ = % 1 t.y.i $ $ $ = $ x !. XB.].K.!.Y.Y.!.K..XE.B.].F.!.Y.Y.!.K.].B.",
".XF._.J.E..X!.K.].B. XF._.J.E.E.F.K.].B.].F._.J.n $ $ $ u y.e.u $ $ $ $ $ x K.B.OXB._.J.E.!.J.!.B.Y. XF._.K.E.E.J.].J..X",
"B. XK.!.Y.B.J._.F..XF.].K.!.Y.Y..X_.F..XD. Xz * b e.o.2 u y.y.e.y.y.y.y.y.8.; - M. XK.!.Y.Y.!.K. X!.B.].K.!.Y.Y.!.K.].B.",
".XF._.J.!..X!.K.].B..XF._.J.E.E.B.K.].B. XF.k $ X.t.O.= u y.w.y.y.t.t.t.y.@.$ 9 ^.F._.J.!.E.J._.F.Y.OXF._.J.!.!.J._.F..X",
"B.].K.!.Y.B.J._.F..XB.].K.!.Y.Y..X_.F..XF.+Xz $ %.1.=.$ u y.w.d = =.1.1.5.:.= 8 l.].K.!.Y.Y.!.K..XE.B.].F.!.Y.Y.!.K. XB.",
".XF._.J.E. X!.K.].B.].F._.J.E.E.B.K.].B.OXF.k 7 $.4.*.= u y.e.u = *.3.3.4.>.$ 9 `.Z.^.J.E.!.J.!.F.Y..XF.!.K.E.E.J._.F..X",
"B.].K.!.J.B.J._.F. XF.].K.!.Y.E..X_.F.].B.`.z 7 ..c.#.5 y y.y.u $ #.c.c.c.m.m.r.: o f.!.Y.Y.!.K. XE.B.].K.!.Y.Y.!.F.].B.",
".XF._.J.E..X!.K.].B. XF._.J.!.!.B.K.].B. XF.f = X.w.O.5 u y.y.u $ O.y.y.y.y.y.0.- = N.J.!.!.J._.B.Y..XF._.J.!.!.J._.F..X",
"B.].K.!.E.F.E._.F..XF.].K.!.E.Y.OX_.K..XF.+Xz 3 ..b.;.= i z.x.y $ ;.b.b.b.b.n.7.* $ h._.Y.E.!.F. X!.F. XF.!.Y.E.!.F.].B.",
"B.].K.!.E.B.J._.F..XB.].K.!.Y.J. X!.F..XB.+Xz 7 $.4.*.= $ $ $ $ $ *.4.4.3.3.4.,.6 $ d.!.Y.Y.!.F. XE.B.].F.!.Y.Y.!.K._.B.",
".XF._.J.E..X!.J. XF..XF._.Y.!.E.F.Y. XF. XF.k * $.5.-.* % = ; ; ; &.6.,.1.2.2.<.6 $ N.Y.!.!.J.!.B.E..XK.].Y.!.!.J._.Y..X",
"B.].K.!.Y.B.Y._.F..XB.].K.!.Y.Y..X_.F..XS.].z = X.w.O.% q _ _ _ _ N 2 c t.t.y.0.; $ d.!.Y.P.!.F. XE.B.].K.!.Y.Y.!.K.].B.",
".XF._.J.!..X!.K.].B..XF._.J.E.E.B.K.].B. XF.k $ X.y.O.5 q ^ ^ ^ ^ M $ c e.y.y.0.- = N.J.W.E.J._.F.Y..XF._.J.!.!.J._.F..X",
"B.].K.!.Y.B.J._.F..XB. XK.!.Y.Y..X_.F..XF.].z $ X.y.O.5 t ^ ^ ^ ^ M $ v w.y.y.0.- = d.!.Y.E.!.K. XE.B.].F.!.Y.Y.!.K.].B.",
".XF._.J.E..X!.K. XB. XF._.J.!.E.B.K. XF. XF.k $ X.y.O.+ r ^ ^ ^ ^ h = c e.e.y.0.& + l.J.!.Q.J._.S.Y..XF._.J.!.!.J._.F..X",
"B.].K.!.J.B.J._.F..XF. XK.!.E.E..X^.F.OXB.].z $ X.y.y.y.9.$ $ $ $ O.y.y.y.@.= 8 k.].F.!.Y.P.!.K. XE.B._.F.!.Y.Y.!.K.].B.",
".XF._.J.E..X!.K.].B. XF._.J.!.!.B.K.].B. XF.f $ b e.e.y.q.= $ $ $ o.y.y.y.8.= 0 ^.F._.J.!.!.I._.B.Y. XF._.J.!.!.J._.F..X",
"B.].K.!.Y.B.Y._.F..XB.].K.!.Y.Y. X_.F.OXB.].K.!.H $ l y.y.y.y.y.y.w.y.X.$ x !. XV.].K.!.Y.Y.!.F. XE.M.].F.!.Y.Y.!.F.].B.",
"K.!.J.!.E.K.Y.!.J.!.K.!.J.!.E.Y.!.!.J._.K.!.Y.!.G $ l y.y.y.t.y.y.y.y.X.= x E.!.J.!.J.!.E.Y.E.P.!.E.K.!.K.E.E.E.!.Y.!.K.",
".XF._.J.!..X!.K.].B. XF._.J.!.!.B.F.].A.].F._.K.n $ + 5 $ $ $ + $ $ $ $ $ x J.B. XB.^.J.!.!.J.!.M.Y..XC._.J.!.!.J._.F..X",
"B.].F.!.P.B.P._.F. XB.].F.!.Y.Y..X_.F.OXB.].F.Q.H 7 $ $ $ $ $ $ $ $ $ $ 3 x !.oXF.].F.!.Y.U.!.F. XE.F.].K.!.Y.Y.!.F.].B.",
".XF._.J.!..X!.K.].B..XF._.J.E.E.B.K.].B. XF._.J.E.E.i.$ $ $ $ $ $ $ $ n J.].J.B. XF._.J.!.E.J._.F.Y..XF._.J.!.!.J._.F..X",
"B.].K.!.Y.B.J._.F..XB. XK.!.Y.Y..X_.F..XF. XK.!.Y.Y.h.= $ $ $ $ $ $ $ H !.F.!..XB.].K.!.E.E.!.K. X!.B.].F.!.Y.E.!.K.].B.",
".XF._.J.!..X!.K. XB..XF._.J.!.E.B.K. XB. XF._.J.!.!.i.= $ $ $ $ $ $ $ $ $ x J.B. XF._.J.!.E.J._.B.Y..XF._.J.E.!.J._.F..X",
"B.].F.!.Y.M.K._.F. XB.].F.!.Y.Y..X_.F. XB.].F.!.Y.Y.h.$ $ $ $ $ $ $ $ $ $ x !. XB._.F.!.Y.Y.!.F. XE.B.].F.!.Y.Y.!.K.].B."
};
