/* XPM */
static char *_f49fc3f4e6d4ead839252b565033109jJuDusQAcZTgT6or[] = {
/* columns rows colors chars-per-pixel */
"60 60 232 2 ",
"   c #040305",
".  c #050407",
"X  c #180700",
"o  c #1F1202",
"O  c #2C0F0E",
"+  c #251305",
"@  c #2C1618",
"#  c #331313",
"$  c #3D1515",
"%  c #341A16",
"&  c #3C1A15",
"*  c #3D151C",
"=  c #351B1C",
"-  c #3D1B1B",
";  c #361618",
":  c #37110E",
">  c #3C240F",
",  c #2C1A2B",
"<  c #3C1C23",
"1  c #3C1C2B",
"2  c #381926",
"3  c #2A1936",
"4  c #33153C",
"5  c #3D2323",
"6  c #38232A",
"7  c #2A233B",
"8  c #33223C",
"9  c #3A2535",
"0  c #4A1C03",
"q  c #43150D",
"w  c #461B0E",
"e  c #4A1B0C",
"r  c #461705",
"t  c #451615",
"y  c #491615",
"u  c #451915",
"i  c #491914",
"p  c #45161A",
"a  c #49171A",
"s  c #44191A",
"d  c #49191A",
"f  c #511D05",
"g  c #4D2101",
"h  c #4E210E",
"j  c #522302",
"k  c #552806",
"l  c #5B3400",
"z  c #46211E",
"x  c #653C00",
"c  c #451621",
"v  c #431B22",
"b  c #4B1B21",
"n  c #4B1529",
"m  c #481731",
"M  c #55112D",
"N  c #442122",
"B  c #4C2D2D",
"V  c #452828",
"C  c #49322E",
"Z  c #492B37",
"A  c #4B3535",
"S  c #533434",
"D  c #583C3E",
"F  c #522E30",
"G  c #745B09",
"H  c #765B18",
"J  c #72530A",
"K  c #7F6508",
"L  c #6F5923",
"P  c #3D3752",
"I  c #362C4A",
"U  c #560F45",
"Y  c #483953",
"T  c #551A5C",
"R  c #674A4B",
"E  c #674F52",
"W  c #6E5B58",
"Q  c #72565A",
"!  c #55516F",
"~  c #835604",
"^  c #A97E16",
"/  c #835629",
"(  c #916429",
")  c #A77E31",
"_  c #877674",
"`  c #B38917",
"'  c #B79D08",
"]  c #B28827",
"[  c #B18E33",
"{  c #BAA13C",
"}  c #BCA62F",
"|  c #C69C38",
" . c #C1912F",
".. c #DFB937",
"X. c #D3AB29",
"o. c #E2BA3F",
"O. c #E1B835",
"+. c #E3BA2E",
"@. c #FACF05",
"#. c #F6D303",
"$. c #FDD504",
"%. c #FDD902",
"&. c #F6D50A",
"*. c #FDD40A",
"=. c #FCD80C",
"-. c #F3CE19",
";. c #F4D214",
":. c #FAD313",
">. c #F6D31A",
",. c #FCD71C",
"<. c #EED018",
"1. c #F5CE2B",
"2. c #F7CE27",
"3. c #F9D121",
"4. c #F5D228",
"5. c #F5CC37",
"6. c #F8D235",
"7. c #EBC42A",
"8. c #BE9546",
"9. c #B9A340",
"0. c #D9B252",
"q. c #E4BA4C",
"w. c #CC9D57",
"e. c #EDC446",
"r. c #F4CB47",
"t. c #FAD449",
"y. c #FAD357",
"u. c #EECB53",
"i. c #EDC568",
"p. c #F4CE69",
"a. c #6D769C",
"s. c #6E79A4",
"d. c #757FB2",
"f. c #BE1EB2",
"g. c #B330B3",
"h. c #BD38EB",
"j. c #BB38EA",
"k. c #D81BD3",
"l. c #E31CCF",
"z. c #F205FA",
"x. c #F903FB",
"c. c #F606F6",
"v. c #EC09EF",
"b. c #C324E6",
"n. c #C224EA",
"m. c #C427E7",
"M. c #CD20D2",
"N. c #B045D6",
"B. c #B466DD",
"V. c #B95FF4",
"C. c #B75FF3",
"Z. c #B960F4",
"A. c #B561F3",
"S. c #B861EE",
"D. c #7881AF",
"F. c #7484B3",
"G. c #799FDD",
"H. c #7CA8EA",
"J. c #7DA5F3",
"K. c #73ABF5",
"L. c #7CABF4",
"P. c #7DA4FB",
"I. c #75ABFD",
"U. c #7AAAFB",
"Y. c #76A7F8",
"T. c #A38E8D",
"R. c #A7948E",
"E. c #AD9995",
"W. c #AB9797",
"Q. c #B19899",
"!. c #B3A29D",
"~. c #ABA09E",
"^. c #8A90B5",
"/. c #B59FA2",
"(. c #B4A3A2",
"). c #BCA9A6",
"_. c #B5A8AA",
"`. c #C2AEAD",
"'. c #C8B8B7",
"]. c #D1BBBD",
"[. c #979CC7",
"{. c #8D9DD7",
"}. c #8492CD",
"|. c #8AA3DB",
" X c #89A5D9",
".X c #93AADD",
"XX c #98A5D9",
"oX c #94A0C6",
"OX c #A3A9D9",
"+X c #889FE7",
"@X c #B585FF",
"#X c #AE8BF2",
"$X c #86A6E5",
"%X c #8AA6E3",
"&X c #86A9E8",
"*X c #91A7E4",
"=X c #82A2FC",
"-X c #82AAF6",
";X c #80B0FC",
":X c #DBCACB",
">X c #E6D6D6",
",X c #EDDBDA",
"<X c #E7D9D9",
"1X c #E0CECE",
"2X c #E7E5E5",
"3X c #ECE5E4",
"4X c #EBEAE6",
"5X c #EDEDED",
"6X c #EAE8EB",
"7X c #F3E5E5",
"8X c #FAE6E5",
"9X c #F2ECEB",
"0X c #FAEBEB",
"qX c #F4E8E6",
"wX c #EDF0EE",
"eX c #F3F1EE",
"rX c #FBF1EF",
"tX c #EDEEF1",
"yX c #F2EEF1",
"uX c #EDF1F0",
"iX c #F0F0F0",
"pX c #F1F1F1",
"aX c #FDF5F4",
"sX c #FDFAF6",
"dX c #FCF6F9",
"fX c #FDFDFD",
"gX c gray99",
"hX c #FEFEFE",
"jX c #FFFFFF",
"kX c #FDFEFE",
"lX c #FDFDFD",
"zX c #F5FAF9",
/* pixels */
"5X5X5XjXjXjXjXjX5X5X5X5X5XjXgXjXlXdX& u s s s s s s s s s s s s s s s s s & s N C 5XzXgXgXkXjX5X5X5X5X5XjXjXjXjXjX5X5X5X",
"5X5X5XjXjXjXjXjX5X5X5X5X5XjXjXsXdXdXs y i d a a a y y y a y a d d y y t s s s d S dXdXlXgXkXjX5X5XwX5X5XjXjXjXjXjXiX5X5X",
"5X5X5XjXjXjXjXjX5X5X5X5XiXgXlX'.= v d i t u t t t t u u u s s s s s t t u u t d s s 5 rXjXjXkX5X5X5X5X5XjXjXjXjXjXiX5X5X",
"6X6X6XjXjXjXjXjX6X5X5X5X6XdXdX`.s t s a s s a t p t a d a a a p a d a a s p p p y y s 0XdXdXjXuX6X6X5X5XjXjXjXjXjX5X5X5X",
"jXjXjX5X5X5X5X5XjXjXjXlXdX< - N s d s d s t s t t t d d t t d d a y d d d i i i t d p s z S qXzXkXjXjXjX5XwX5X5X5XkXjXjX",
"jXjXjX5X5X5X5X5XjXjXsXsXaXs d d i u s s s d s t t t t t p t u s t t t d t s s t s s t i s S 7XdXsXjXjXjXeX5X5X5X5XjXjXjX",
"jXjXgX5X5X5X5X5XjXlX(.; $ $ s s u u t t t t t s s s s s u s s s s s s s s s s u s s d d u u s ; rXlXjXjX5X5X5X5X5XjXjXjX",
"jXjXgX6X5X5X5X5XjXjX!.s $ t d t a i p c a u t s s s s s i d s s s s u s u u s p s s s s u u s ; aXsXsXjXiX5XiXwX5XgXjXjX",
"5X5X5XjXjXjXjXkX5X4XW.p y p t t p u t w u s s s s s s i p s u s i t d s s d s t t s s s d d s d s - C qXgXjXjXjXjX5X5X5X",
"5X5X5XgXjXjXjXlXqX4XE.$ u u t s p i q t q t s s s u u a u t t y i s s u s s s u t s s d s s u i u q B qXjXjXjXjXjX5X5X5X",
"5X5X5XjXjXjXlXsX@ # z y t t u u u e u.6.w.t s t s s p t u p x t.y.g d s u p p t s t t t s s s d u t B 9XjXjXjXjXjX5X5X4X",
"5X5X6XjXjXjXjXaX- s t y a v u t t h 5.#.| e d t u p i q t e x :.2.j t y t u t u q u a u u s s s s u V 6XgXjXjXjXjXiX5X5X",
"jXjXjX5XwX5X6X9X& d t t s s t / e.y.>.*.4.t.p.r u u c r i.u.1.#.2.j p d v i i.u.0.p u s p s t t s s B lX5XiX5X5X5XgXjXjX",
"jXjXjXiX5X5X5X9X& p p s u s y ~ *.*.%.*.$.*.1.0 p u s y 5.&.*.*.3.j u i c e r.:.o.b i t s p u u s s V sXqX2X5X5X5XjXjXkX",
"jXjXjX5X5X5X5X9X& p t s t u u ~ *.%.$.$.$.$.&.+.....o.+.,.$.*.*.@.O.o.O...o.3.=.,.q.0.k p t u s p s s A A <X5X5X5XjXjXkX",
"jXjXjX5X5X4X4XqX& t d s t p i ~ *.%.$.$.*.*.$.$.$.*.$.*.*.*.$.*.*.$.%.$.%.$.*.*.%.*.>.j y t s i i t p d s ,X6X5X5XgXjXjX",
"5X5X5XjXjX'.W Q $ t t s u t i ~ *.$.%.$.$.$.*.*.*.*.*.$.*.$.$.%.$.*.*.*.*.$.*.$.%.$.>.k q k | | 0 t s t s 8XjXjXjXiXtX5X",
"5X5X5XjXjXE.u s t u t s t a u ~ *.#.#.&.$.$.*.$.%.%.$.*.$.$.$.$.#.&.=.*.*.*.$.*.$.&.:.j i l ,.>.g u s t & 8XjXjXjXtXtX5X",
"5X5X5XjXjXW.u d t p u u w a u ~ &.<.G G G G G 6.*.%.$.$.%.%.$.*.<.K H H G G 6.%.%.*.*.` ^ ` =.3.g u t t s 8XjXjXlXtXtX5X",
"5X5X6XjXjXE.t d t u u p d e d ~ *.1.X .   .   u.#.$.*.$.%.$.$.$.4.X     . X u.$.*.$.%.$.$.$.$.2.0 u u s & 8XjXjXlX5X5X5X",
"jXjXjX5X5XT.u d t t u t r ( ( ` :.>.H H L H H 2.$.$.%.%.%.$.*.*.;.H H L L H 5.*.*.%.*.%.*.7.` ] g d u d s ,X6X5X6XgXkXjX",
"jXjXjX5X5XT.u d t t t t 0 1.$.*.*.$.*.$.*.*.@.@.$.#.:.*.*.*.$.*.$.$.$.%.*.#.$.%.*.$.$.%.$...w p u t u s s ,X5X5XqXjXkXjX",
"jXjXjX5X5XT.u d t u s u e 2.:.$.%.*.$.$.$.$.$.$.$.7.{ 9.} { X.&.%.$.$.*.$.$.$.$.$.*.*.X.X.8.q s s u s s s ,X5X5X9XjXjXjX",
"jXjXjX5X5XT.u d t t t p 0 1.$.$.%.%.%.%.$.$.$.$.:.} .   .   > ;.*.$.$.%.%.$.%.$.$.$.;.j t a d i p s s s s ,X5X5X6XgXjXjX",
"5X5X5XjXjXW.u d t p t s e q.e.2.*.$.$.$.$.$.%.$.*.' o + + + l &.$.%.*.*.*.:.5.e.5.r.u.k e u u s s u u t s 8XlXjXlXtX5X5X",
"5X5X5XjXjXW.i d p t p u q d y ~ *.$.#.$.%.%.$.$.$.=.&.&.$.>.:.*.$.$.$.$.%.-.g p s e i d p s t p u u u d s 8XlXjXlXiX5X5X",
"5X5XiXjXjXW.s d t t u t d s u H y.t.t.t.2.$.$.*.*.$.$.%.%.$.$.$.$.$.$.3.t.y.k t t i d t i s u s s t u t s qXgXjXjXiX5X5X",
"5X5X5XjXjXQ.s a u t u d t s p u e q q i J *.%.%.%.%.$.*.$.$.$.$.*.$.$.X.i e d t t p d a p u t d d s t t s qXjXkXgX5X6X5X",
"jXjXjX5X5XT.= & u i & % & i t s u s u w J t.6.6.6.6.6.6.:.%.$.%.*.6.r.0.t q t s p s s s s s - ; s d u - = ,X5X5X5XjXjXjX",
"jXjXjX5X5XeX5X0Xv t _ sXaXs d i p y p a y r q t y q q r 5.$.*.=.-.j d t t t d u y y t p t S eXsX# s S aX5X6X5X5X5XjXjXjX",
"jXjXjXiX5X5X4X9X= ; _ gXsX< - - - - - s & - - % & : d i 5.$.%.%.:.j z u s N < - - - - d d S 4XlX= * A jX5XyX5X5X5XjXjXjX",
"jXjXjX5X5X5X4X6XsXsXsXkXgXyXqXqX9X6XsXsXsXgXsX4X5X'.s e 5.$.*.$.3.j s D qXaXsXgXgXsX0XV s B 9XkXgXsXsXjXtXyX5X5X6XgXjXjX",
"5XiX6XjXkXgXsXjX4X5X5X5X6XjXlXjXjXjX5X5X5X6X6XdXsX].p e u.2.>.1.7.0 s R dXpX6X3XyX6XpXV N D jXiX5X5X5X2XjXjXgXgXjX5X5X5X",
"5X5X5XjXjXjXjXjX5X5X5X5X6XjXjXjXkXjX6XtX6X5X2X5 s u i d i e e e e i t q s z s 5 V 5XzXsXsXdXjXyX5X5X5X6XjXjXjXjXjXiX5X6X",
"5X6X5XjXjXjXjXjX5X9X5X5X5XjXkXgXdXdX7X6X5X3X4X6 m * u s u s s s s d b v < 2 a d B 9XsXsXgXlXzXtX5X5X5X5XjXjXjXjXjXiX5X5X",
"5X5X6XjXjXjXjXjX6X5X5X9X5XdXgX'.- < & & s & , oX X^.b t t t t i d d s Y %X|.9 * - v & & - A lXeX9X5X5X5XjXjXjXjXjX5X5X5X",
"jXjXjX6X5X5X5X5XjXjXjXjXgX9X4X(.* s s u u s 9 .XL.F.v * < v p * < - 2 P L.-X, - t d d v 1 B 9XsXjXgXjXjX6X5X5X5X6XgXjXjX",
"jXjXjXiX5X5X5X5XjXlXkXgXdX= * ! .XXX1 p Y |.&XL.I.L.%X$X%X%X%X%X%X|.%X&XI.I.$X*X^.v v [..X^.= & aXjXjXjX5X5X5X5X6XjXjXjX",
"jXjXjX5X5X5X5X5XjXgXjXsXaX2 v ! H.H.Z n Y =XU.P.=X=XP.P.=XP.P.P.U.P.=X=X=XP.=XP.}.s N {.L.}.1 * dXsXlXlX9X5X5X5X6XjXjXjX",
"jXjXjX6X5X5X5X6XkXgX~.# @ OX.Xs.3 4 g.l.M.m.n.n.m.n.n.n.n.n.n.b.m.b.b.m.n.b.b.b.g.a b , 3 I .X.X, O 6 sX5X6X5X5X5XgXjXjX",
"5X5X6XjXjXjXjXjX5X4XE.d 6  X;Xs.d M k.c.z.z.z.z.z.z.z.z.z.z.z.z.z.z.z.z.c.z.z.z.f.m v i i I J.L.7 u B 9XgXjXjXjXjX5X5X5X",
"5X5X5XjXjXjXjXjX5X4XR.s 6 $XI.a.t n #X@X@X@X@X@X@X@X@X@X@X@X@X@X@X@X@X@X@X@X@X@X#X XXX9 b I U.H., t F tXgXjXjXjXjXiX5X5X",
"5X5X5XjXjXjXjXjX5X5XE.s 1 %XL.a.s 2 *XP.U.U.U.U.U.U.U.U.U.U.U.U.U.U.U.U.Y.U.U.U.P.J.+X8 s I H.&X3 t B 5XgXjXjXjXjXiX5X5X",
"6X6X6XjXjXjXjXjX5X5XQ.s s P Y Z s M N.j.h.h.h.h.h.h.h.j.h.h.h.h.h.h.h.h.h.j.h.h.j.h.N.U t < P P 2 t B 6XgXjXjXjXjX5X5X5X",
"jXjXjX5X5X5X5X5XjXjX/.u t s d u s M k.c.x.c.x.x.x.x.x.x.x.x.x.x.x.x.x.x.x.x.x.x.x.x.v.U t s t i d a B sX5X5X5X5X6XgXjXjX",
"jXjXjX5X5X5X5X5XjXlX!.d i [ ] ( w n B.C.A.A.Z.Z.A.Z.Z.Z.Z.V.V.V.V.Z.Z.Z.V.V.V.V.V.C.S.U y j ] ] 0 d B lX5X5X5X5X5XjXjXjX",
"jXjXjX6X5X5X5X5XjXjX!.d 0 5.;. .p 1 $XU.I.I.I.I.I.I.I.I.I.Y.Y.I.I.I.I.I.I.I.U.U.Y.I.J.7 u l :.,.f d B sXwX5X5XwX5XgXjXjX",
"jXjXjX5X5X5X5X5XjXlX(.v 0 ) ) / s < %XI.U.U.I.I.Y.K.I.I.I.I.I.K.K.Y.I.I.I.I.I.K.I.Y.H.9 s h [ [ 0 u C sX4X6X5X5X5XgXjXjX",
"6X5X5XjXjXjXjXjX5XyXQ.s d u q d s 1 %XU.I.I.I.U.I.K.I.K.I.I.K.U.K.Y.I.I.I.I.I.I.I.U.J.8 d u i u s u C 3XjXjXjXjXjXiX5X5X",
"5X5X5XjXjXjXjXjX5X5X_.E R W W R u 2 $XU.I.I.I.U.Y.G.F.F.F.F.D.F.F.-XI.I.U.I.I.I.I.U.H.8 p s Q E R R W 9XgXjXjXjXjX5X5X5X",
"5X5X5XjXjXjXjXjX5X5X5X5X9XgXlX'.s 1 $XI.I.I.U.I.K.d.< t $ s p t 1 |.I.U.I.I.U.U.I.U.&X8 s S sX5X9XeX5XiXgXkXjXjXjXeX5X5X",
"5X5X6XjXjXjXjXjX5X5X5X5X5XgXjX`.p 1 %XI.U.I.I.I.I.d.s p B A F d 1 %XI.U.I.I.I.I.I.I.L.8 s S sXuX5X4X5X5XjXjXjXjXjXiX5X5X",
"jXjXjX6X6X6X6X6XjXjXjXjXjX6X4X(.s < *XU.U.I.K.K.Y.D.d s aXsX>Xs 5  XK.K.K.K.K.K.K.I.H.8 t S 6XgXjXjXjXjX5X2X5X6X6XgXjXjX",
"jXjXjX5X5X5X5X5XjXjXjXjXkX5X4X(.s v [. X X|.|.|. Xa.v v dXgX>Xs v [.{.+X|.|.|.|.|.{.[.9 - S 9XjXjXjXjXjX5X5X5X5X6XjXjXjX",
"jXjXjX5X5X5X5X5XjXjXjXjXjX5X5X).u p t & s < s v s s i s dXgX>Xs y < s s s s s s * p s a s S 6XgXjXjXjXjX5X5X5X5X5XjXjXjX",
"jXjXjX5X5X5X5X5XjXjXjXjXjX6X6X~.% O # O N t d d d t d s dXlX>Xs d d s a a a d d $ O # # ; 6 3XgXjXjXjXjXiX5X5X5X6XjXjXjX",
"6X6X6XjXjXjXjXjX5X4X5X5X6XkXkXgXsXsXqXqX'.s y y y y a s 7X4X1Xs t p s p p p u s C qXgXjXjXsXzXwX6X5X6X6XgXjXjXjXjX5X6X5X",
"5X5X5XjXjXjXjXjX5X5X5X5X5XjXjXjXjXkX9XqX).$ u u u t u s 9X5X:Xu i t u t p p t s S 0XdXgXjXjXjX5X5X5X5X5XjXjXjXjXjX5X5X5X",
"5X5X5XgXjXjXjXjX5X6X5X5X6XjXjXjXjXgX5 N t t t t p t t d 0X5X:Xu y y t y y y a t d b - aXjXjXjX5X5X6X5X5XjXjXjXjXjXiX5X5X",
"5X5X5XjXjXjXjXjX5X5X5X5X6XjXjXjXjXjX@ $ s $ & & s & & = 7XiX:X- ; & & $ & & & s s s N aXlXjXjX5X5X5X5X5XjXjXjXjXjXiX5X5X"
};
