/* XPM */
static char *b85d780028ea46dcdc0f08183d876fd4S4dOJP52JRnJewYp[] = {
/* columns rows colors chars-per-pixel */
"60 60 161 2 ",
"   c #2B0F0D",
".  c #370F07",
"X  c #350F0E",
"o  c #3B0F0B",
"O  c #2C1004",
"+  c #27100A",
"@  c #2C120D",
"#  c #341602",
"$  c #3B1405",
"%  c #321A00",
"&  c #34130E",
"*  c #3D110E",
"=  c #321809",
"-  c #300A15",
";  c #3C0F16",
":  c #3C0D1F",
">  c #2D1212",
",  c #2C1817",
"<  c #2E1318",
"1  c #2D1B1C",
"2  c #331315",
"3  c #3C1111",
"4  c #301D17",
"5  c #3C1118",
"6  c #311D1C",
"7  c #391A18",
"8  c #1D1525",
"9  c #1C1D21",
"0  c #310924",
"q  c #3F0A24",
"w  c #3C0E2A",
"e  c #251225",
"r  c #2E1E21",
"t  c #3D1120",
"y  c #321E20",
"u  c #2F2325",
"i  c #342224",
"p  c #420F0E",
"a  c #411107",
"s  c #41110D",
"d  c #410D15",
"f  c #411311",
"g  c #481212",
"h  c #411F1E",
"j  c #400F2C",
"k  c #452926",
"l  c #44202A",
"z  c #785E5F",
"x  c #786664",
"c  c #FECC04",
"v  c #FEC60F",
"b  c #FDCB0C",
"n  c #FFC715",
"m  c #FDC51C",
"M  c #FDC818",
"N  c #F9C524",
"B  c #5F758A",
"V  c #60758C",
"C  c #647392",
"Z  c #AB2DBD",
"A  c #BF25E9",
"S  c #CC17C8",
"D  c #DF0CED",
"F  c #D70EF1",
"G  c #D80EF0",
"H  c #E00CED",
"J  c #E607F7",
"K  c #E508F6",
"L  c #E607F8",
"P  c #E905F8",
"I  c #C024EA",
"U  c #AA71D8",
"Y  c #A869EE",
"T  c #AD66F0",
"R  c #AA68F0",
"E  c #7C9CC3",
"W  c #649FDB",
"Q  c #67A1CF",
"!  c #7BA5CE",
"~  c #77ACCC",
"^  c #67A4DF",
"/  c #6AA4DD",
"(  c #60A9DC",
")  c #69A8DE",
"_  c #72A6D5",
"`  c #7AA7D0",
"'  c #7FA6DD",
"]  c #7EADDB",
"[  c #65A6E2",
"{  c #68A4E0",
"}  c #6AA8E1",
"|  c #65A3EC",
" . c #83A0D8",
".. c #80AADA",
"X. c #99AFD6",
"o. c #94B1D7",
"O. c #9AB1D4",
"+. c #96B2D8",
"@. c #9293EF",
"#. c #998FF0",
"$. c #8F94F0",
"%. c #9293F0",
"&. c #C5C5C5",
"*. c #C8C6C7",
"=. c #C6C8C7",
"-. c #CBCCC7",
";. c #CCCCCC",
":. c #D5CCC7",
">. c #D2CDCB",
",. c #D9CECA",
"<. c #CED0CF",
"1. c #D0D0CE",
"2. c #DCD3CF",
"3. c #CFCDD1",
"4. c #D2CED1",
"5. c #D3D3D3",
"6. c #DCD2D0",
"7. c #D7D9D8",
"8. c #DADADA",
"9. c #DBDBDB",
"0. c #DFDFE1",
"q. c #DFE1E0",
"w. c #E1E1E2",
"e. c gray90",
"r. c #E7E7E7",
"t. c #E3E3E3",
"y. c #EAEAEA",
"u. c #F4E9E5",
"i. c #F0EEF3",
"p. c #F8EFF2",
"a. c #F1F1F1",
"s. c gray95",
"d. c gray96",
"f. c #F4F4F4",
"g. c #F6F6F6",
"h. c gray97",
"j. c #F5F5F5",
"k. c #FEF9F6",
"l. c #F7F5F8",
"z. c #F8F8F8",
"x. c #F9F9F9",
"c. c gray98",
"v. c #FBFBFB",
"b. c #F9FBF8",
"n. c #FFFCF9",
"m. c #FDFDFB",
"M. c #FBFBFD",
"N. c gray99",
"B. c #FDFDFD",
"V. c #FEFEFC",
"C. c #FFFFFD",
"Z. c #FCFDFF",
"A. c #FDFFFE",
"S. c #FDFFFF",
"D. c #FEFEFE",
"F. c #FEFEFF",
"G. c #FFFEFF",
"H. c #FEFFFF",
"J. c white",
"K. c #FEFDFE",
"L. c #FEFEFE",
/* pixels */
"J.;.g.J.;.J.;.J.J.;.J.;.J.J.;.J.;.J.J.:.* * * * * * * * * * * * * * * * * * * * n.;.J.;.w.J.;.J.;.J.J.;.J.;.J.J.;.J.;.J.",
";.J.5.;.J.;.J.;.;.J.;.J.;.;.J.;.J.;.<.n.* * * * * * * * * * * * * * * * * * * * ,.J.;.J.r.;.J.;.v.;.;.J.;.J.;.;.J.;.J.;.",
"J.;.g.J.;.J.;.J.J.;.J.;.J.J.;.J.;.@ * * * * * * * * * * * * * * * * * * * * * * * * @ -.q.J.;.J.;.J.J.;.J.;.J.J.;.J.;.J.",
";.J.;.5.J.;.J.;.;.J.;.J.;.;.J.;.J.@ * * * * 3 * * * * * * * * * * * * * * * * * * * @ n.r.;.J.;.J.;.;.J.;.J.;.5.J.;.v.;.",
"J.;.g.J.;.J.;.J.J.;.J.;.v.v.;.* * * * 3 * * * * * * * * * * * * * * * * * * * * * * f * * J.;.J.&.J.J.5.J.;.J.J.;.J.;.J.",
";.J.w.5.J.;.J.5.;.J.;.J.5.1.J.s * * * * * * 3 * * * * * * * * * * * * * * * * * * * * * * ;.J.;.J.;.;.J.;.J.;.;.J.;.J.;.",
";.J.5.5.J.;.J.;.;.J.;.J.>.s * a * * * * * * * * * * * * * * * * * * * * * * * * * * * * * f * ;.v.;.;.J.;.J.;.;.J.;.J.;.",
"v.;.s.J.;.v.;.v.v.;.v.>.J.* * * * * * * * * * * * * * * * * * * * * * * * * * * * * * * * 3 3 M.5.v.v.;.v.;.J.J.;.v.;.v.",
";.J.5.;.J.;.v.;.;.J.i * * * * * * * * * * * * * * * * * * * * * * * * * * * * * * * * * * * 3 ;.J.;.;.J.;.J.;.5.J.;.v.;.",
"J.;.g.J.;.J.;.J.J.;.1 * 3 * * * * * * * * * * * * * * * * * * * * * * * * * * * * * * * * * 3 J.3.J.J.;.J.;.J.J.;.J.;.J.",
";.J.5.;.J.;.J.;.;.J.y * * * * * * * * * * * * * * * * * * * * * * * * * * * * * * * * * * * * * f 6 ;.J.;.J.;.;.J.;.J.;.",
"J.;.g.J.;.J.;.J.J.;.1 * * * * * * * * * * * * * * * * * * * * * * * * * * * * * * * * * * * * * * , J.;.J.;.J.J.;.J.;.J.",
";.J.5.5.J.;.J.;.;.J.i * * * * * * * * * * * * * * * * * * * * * * * * * * * * * * * * * * * * * * 4 &.J.;.J.&.5.J.;.v.;.",
"J.;.g.J.;.J.;.J.J.;.1 * * * 3 * * * * * * * * * * * * * * * * * * * * * * * * * * * * * * * 3 * * , J.;.J.;.J.v.;.J.;.J.",
";.J.5.;.J.;.J.;.7   k * * * * * * * * * * * * * * * * * * * * * * * * * * * * * * * * * * * * * * , &.J.;.J.&.&.J.;.J.;.",
"5.g.9.9.g.5.g.9.f 3 3 * * * * * * * * * * * * * * * * * * * * * * * * * * * * * * * 3 * * * * * * 4 5.g.5.g.5.7.g.5.g.5.",
"J.;.s.J.;.J.;.v.o * * * * * * * * * * * * * * * * * * * * * * * * * * * * * * * * * * * * * * * * h x z J.;.J.J.;.J.;.J.",
";.J.;.;.J.;.g.&.* * * * * * * * * * * * * * * * * * * * * * * * * * * * * * * * * * * * * * * * * * & f ;.J.5.5.J.;.v.;.",
"J.;.g.J.;.J.;.J.o * * * * * * * * * * * * * * * * * * * * * * * * * * * * * * * * * * * * * * * * * * * J.;.J.J.;.J.;.J.",
";.J.5.;.J.;.J.;.* * * * * * * * * * * * * * * * * * * * * * * * * * * * * * * * * * * * * * * * * * * * ;.J.;.;.J.;.J.;.",
"J.;.g.J.;.J.;.J.* * * * * * * * * * * * * * * * * * * * * * * * * * * * * * * * * * * * * * * * * * * * J.;.J.J.;.J.;.J.",
";.J.5.;.J.;.J.;.* * * * * * * * * * * * * * * * * * * * * * * * * * * * * * * * * * * * * * * * * * * * ;.J.;.1.J.;.J.;.",
"J.;.g.J.;.J.5.v.o * * * * * * * * * * * * * * * * * * * * * * * * * * * * * * * * * * * * * * * * * * * J.;.v.g.;.J.5.J.",
";.J.5.;.J.;.J.;.f * * * * * * * * * * * * * * * * * * * * * * * * * * * * * * * * * * * * * * * * * * * ;.J.;.=.J.;.J.;.",
"g.5.s.g.5.g.5.g.o * * * * * * * * * * * * * * * * * * * * * * * * * * * * * * * * * * * * 3 * * * * * * g.5.g.g.5.g.5.g.",
"J.;.s.J.;.J.;.v.o * * * * * * * * * * * * * * * * * * * * * * * * * * * * 3 * * 3 3 * * * * * * * * * o J.;.J.J.;.J.;.J.",
";.J.;.;.J.;.v.;.* * * * * * * * * * * * * * * * * * * * * * * * * * * * * * * * * * * * * * * * 3 * * f ;.J.;.4.J.;.v.;.",
"J.;.g.v.;.J.5.J.o * * * * * * * * * * * 3 * * * * * * * * * * * * * * * * * * * * * * * * * * * * * * o J.<.J.J.;.J.;.J.",
";.J.5.;.J.;.J.;.o * * * * * * * * * * * * * * * * * * * * * * * * * * * * * * * * * * * * * * * * * * * ;.J.;.;.J.;.J.;.",
"J.;.g.J.;.J.;.J.J.3.r * 3 J.;.p * * * * * * * * * * * * * * * * * * * * * * * * * * * * * J.3.3 * , J.3.J.;.J.J.;.J.;.J.",
";.J.5.;.J.;.J.;.;.J.1 * 3 ;.J.* * f * s * * * * * * * * * * * * * o 3 * * * s * * * * * * ;.J.3 * 4 ;.J.;.J.;.5.J.;.J.;.",
"J.;.g.J.;.J.;.v.J.;.J.;.J.J.;.* * k.J.;.J.;.J.0.* * O c b b b 3 * u.;.J.;.v.3.;.J.;.J.;.w.J.;.J.5.J.J.;.J.;.J.J.;.J.;.J.",
";.J.9.;.J.;.v.;.;.J.;.J.*.;.v.* * 6.=.J.;.J.;.i.3 * # c c c v $ * p.l.;.J.5.v.J.>.J.;.J.r.;.J.;.g.;.;.s.;.J.;.;.J.;.v.;.",
"J.;.g.J.;.J.;.J.J.;.J.;.J.J.;.J.;.J.v.2.* * * * * * * * * * * * * 3 * * >.J.;.;.v.;.J.;.r.J.;.J.;.J.J.;.J.;.J.J.;.J.;.J.",
"J.;.s.g.;.J.;.g.J.;.J.;.J.v.;.J.;.J.v.2.* * * * * * * * * * * * * * * * >.J.&.;.J.;.J.;.r.J.;.J.;.J.J.;.J.;.v.J.;.J.5.J.",
";.J.;.;.J.;.v.;.;.J.;.J.5.;.J.* & o * & * = { { ^ { ^ } { { { ) { { { ^ d & . & * & > J.r.;.J.;.J.;.;.J.;.J.;.;.J.;.v.;.",
"J.;.g.v.;.J.;.v.J.;.J.;.J.v.;.* * * * * * 2 { { { { { { ^ { { { { { { { * * * * * * @ ;.w.J.;.J.&.J.J.;.J.;.J.J.;.J.;.J.",
";.J.5.;.J.;.J.;.;.J.;.J.;.3 g ^ ^ 9 3 > { ( ^ { { { { { { { { { { { { { | [ * s ..^ E 3 3 ;.J.;.v.;.;.J.;.J.;.;.J.;.J.;.",
"J.;.g.J.;.J.;.J.J.;.J.;.J.* * [ [ 8 * > { { { { { { { { { { { { { { { { [ / 3 * _ [ ~ d 3 J.;.J.5.J.J.;.J.;.J.J.;.J.;.J.",
";.J.5.;.J.;.J.;.;.J.i * 5 / / 3 2 f d : G G G F G G F G G G G F G G G G G F D H 0 2 8 / / 3 3 ;.v.;.;.J.;.J.;.5.J.;.J.;.",
"J.;.g.J.;.J.;.v.J.;.1 * 3 ^ { a * * d t P P P P P P P P P P P P P P P P P P L J w * 8 { / 3 * J.;.J.J.5.J.;.J.J.;.J.;.J.",
";.J.9.;.J.;.J.;.;.J.i 3 ; { { a * o.] ' #.@.@.%.%.%.%.%.%.%.%.%.%.%.%.%.%.%.%.$.X * e / / 3 3 ;.v.;.;.v.;.J.;.;.J.;.J.;.",
"J.;.g.J.;.J.;.J.J.;.i * d ^ { a * ` { { { { { { { { { { { { { { { { { { { { { { < * e { ^ 3 3 J.&.J.J.;.J.;.J.J.;.J.;.J.",
"y.w.y.w.w.y.9.y.y.w.i * 3 V V a * U R Y Y Y Y Y Y Y Y Y Y Y Y Y Y Y Y Y Y Y R T - * < C B s 3 y.9.y.y.9.y.w.y.y.w.y.r.y.",
";.J.5.;.J.;.g.&.;.J.i * * 3 * * * S K L J L L L L L L L L L L L L L L L L L L L j * * * * * 3 ;.J.;.;.J.;.J.;.;.J.;.v.;.",
"J.;.g.v.;.J.;.v.J.;.1 * $ % $ $ * Z A A A A A A A A A A A A A A A A A A A A I A q * l % # o 3 J.;.J.J.&.J.;.J.J.;.J.;.J.",
";.J.5.;.J.;.J.;.;.J.y * 3 b b 3 *  .{ [ [ [ { { { { { { { { { { { [ { { { { { { 2 * $ M n * 3 ;.v.;.;.J.;.J.;.;.J.;.J.;.",
"J.;.g.J.;.J.;.J.J.;.r * $ M N * * ! { { { { { { { { { { { { { { { { { { { { { { 2 * % m m * 3 J.;.J.J.;.J.;.J.J.;.J.;.J.",
";.J.5.;.J.;.J.;.;.J.y * * 3 * * * ! { { { { { { { { { { { { ^ { { { { { { { ^ { < * 3 * 3 * 3 ;.v.;.;.J.;.J.;.5.J.;.J.;.",
"J.;.s.v.;.J.;.v.J.;.u 3 * * * * * ! { { { { { { { ^ Q / { { { { { W { { { { { { 2 * * 3 * * * J.;.J.J.;.J.;.v.v.;.J.;.J.",
";.v.5.;.v.;.J.5.;.v.;.v.;.5.J.s * ! { { { ^ { { { { +.3 * * * * * O.{ { { { { { 2 * @ M.r.;.v.;.J.;.5.J.;.v.;.;.v.;.J.;.",
"J.;.g.J.;.J.;.J.J.;.J.;.J.J.;.* * ! { { { { { ^ { { +.3 s * o s * O.{ { { { { { 2 * + ;.w.J.;.J.;.J.J.;.J.;.J.J.;.J.;.J.",
";.J.w.&.J.;.g.9.;.J.3.J.;.9.J.s * ! { { { { ^ { { { o.3 3 J.;.g * O.{ { { ^ { { 2 * @ J.y.;.J.;.g.;.;.J.;.J.5.5.J.5.v.;.",
";.J.5.;.J.;.g.;.;.J.;.J.;.;.J.o * ! { { { { { { { { +.* 3 J.;.* * O.{ { { { { { < * @ v.r.;.J.;.J.;.;.v.;.J.;.;.J.;.J.;.",
"J.;.s.v.;.J.5.J.J.;.J.;.v.J.;.* 3 a 2 3 3 3 3 3 3 3 * 3 3 ;.J.o * * 3 3 3 3 3 3 $ * @ <.w.J.;.J.5.J.J.5.J.;.J.J.;.J.;.J.",
";.J.5.;.J.;.J.;.;.J.;.J.;.;.J.a * & & * * * * * * * * * 3 J.;.* * * * * * * * * * * > J.r.;.J.;.v.;.;.J.;.J.;.;.J.;.J.;.",
"J.;.g.J.;.J.;.J.J.;.J.;.J.J.;.J.;.J.J.,.3 * * * * * * * 3 ;.J.* * * * * * * ;.;.v.;.J.;.w.J.;.J.;.J.J.;.J.;.J.J.;.J.;.J.",
";.J.5.;.J.;.J.;.;.J.;.J.;.;.J.;.J.;.<.v.* * * * * * * * 3 J.;.* * * * * * * J.J.4.J.;.J.r.;.J.;.v.;.;.J.;.J.;.5.J.;.J.;.",
"J.;.g.v.;.J.;.J.J.;.J.;.J.J.;.J.;.  & * 3 * * * * * * * 3 ;.v.* * * * * * 3 * * o * @ ;.w.J.;.J.;.J.J.;.J.;.J.v.;.J.;.J.",
";.J.5.;.J.;.v.5.;.J.;.J.;.;.J.;.J.& * * 3 * * * * * * * 3 J.;.f * * * * * * * * * * @ M.r.;.J.;.J.;.;.J.;.J.;.;.J.;.J.;."
};
